<mxfile host="app.diagrams.net" modified="2024-05-25T06:05:13.239Z" agent="Mozilla/5.0 (Macintosh; Intel Mac OS X 10_15_7) AppleWebKit/605.1.15 (KHTML, like Gecko) Version/17.4.1 Safari/605.1.15" etag="_om7zgkf1GX3XDdagcrj" version="24.4.8" type="github">
  <diagram name="第 1 页" id="gjAsDLAnwRxJvNHpUjTu">
    <mxGraphModel dx="7100" dy="4109" grid="1" gridSize="10" guides="1" tooltips="1" connect="1" arrows="1" fold="1" page="1" pageScale="1" pageWidth="827" pageHeight="1169" math="0" shadow="0">
      <root>
        <mxCell id="0" />
        <mxCell id="1" parent="0" />
        <UserObject label="" plantUmlData="{&#xa;  &quot;data&quot;: &quot;@startuml\n\nclass BalanceLog {\n    -childName: String\n    -type: String\n    -amount: double\n    -time: String\n    +BalanceLog(childName: String, type: String, amount: double, time: String)\n    +getChildName(): String\n    +setType(type: String): void\n    +getType(): String\n    +setAmount(amount: double): void\n    +getAmount(): double\n    +setTime(time: String): void\n    +getTime(): String\n}\n\nclass Child {\n    -childName: String\n    -password: String\n    -currentDeposit: double\n    -savingDeposit: double\n    -parentName: String\n    +Child(childName: String, password: String, currentDeposit: double, savingDeposit: double, parentName: String)\n    +getChildName(): String\n    +setPassword(password: String): void\n    +getPassword(): String\n    +setCurrentDeposit(currentDeposit: double): void\n    +getCurrentDeposit(): double\n    +setSavingDeposit(savingDeposit: double): void\n    +getSavingDeposit(): double\n    +setParentName(parentName: String): void\n    +getParentName(): String\n}\n\nclass Parent {\n    -parentName: String\n    -password: String\n    +Parent(parentName: String, password: String)\n    +getParentName(): String\n    +setParentName(parentName: String): void\n    +getPassword(): String\n    +setPassword(password: String): void\n}\n\nclass Task {\n    -taskName: String\n    -moneyReward: double\n    -parentName: String\n    +Task(taskName: String, moneyReward: double, parentName: String)\n    +getTaskName(): String\n    +setTaskName(taskName: String): void\n    +getMoneyReward(): double\n    +setMoneyReward(moneyReward: double): void\n    +getParentName(): String\n    +setParentName(parentName: String): void\n}\n\nclass TaskWorkLog {\n    -taskName: String\n    -childName: String\n    -status: String\n    -time: String\n    +TaskWorkLog(taskName: String, childName: String, status: String, time: String)\n    +getTaskName(): String\n    +setTaskName(taskName: String): void\n    +getChildName(): String\n    +setChildName(childName: String): void\n    +getStatus(): String\n    +setStatus(status: String): void\n    +getTime(): String\n    +setTime(time: String): void\n}\n\nclass ChildrenAccountGUI {\n    +initialize(): void\n    +actionPerformed(e: ActionEvent): void\n}\n\nclass ChildBalanceLogListPanel {\n    +ChildBalanceLogListPanel(child: Child)\n    -isCellEditable(row: int, column: int): boolean\n}\n\nclass ChildMenuUI {\n    +ChildMenuUI(child: Child)\n    +actionPerformed(e: ActionEvent): void\n}\n\nclass ChildPanel {\n    +ChildPanel(child: Child)\n    +actionPerformed(e: ActionEvent): void\n}\n\nclass ChildTaskListPanel {\n    +ChildTaskListPanel(child: Child)\n    +actionPerformed(e: ActionEvent): void\n}\n\nclass ChildTaskWorkLogListPanel {\n    +ChildTaskWorkLogListPanel(child: Child)\n    +actionPerformed(e: ActionEvent): void\n}\n\nclass ChildListPanel {\n    +ChildListPanel()\n    +Buttons(child: Child): JPanel\n}\n\nclass LoginGUI {\n    +LoginGUI()\n    -validateLogin(username: String, password: String): boolean\n}\n\nclass MenuUI {\n    +MenuUI(parent: Parent)\n}\n\nclass TaskInputPanel {\n    +TaskInputPanel(parent: Parent)\n}\n\nclass TaskListPanel {\n    +TaskListPanel(parent: Parent)\n}\n\nChildrenAccountGUI --|&gt; JFrame\nChildBalanceLogListPanel --|&gt; JPanel\nChildMenuUI --|&gt; JFrame\nChildPanel --|&gt; JPanel\nChildTaskListPanel --|&gt; JPanel\nChildTaskWorkLogListPanel --|&gt; JPanel\nChildListPanel --|&gt; JPanel\nLoginGUI --|&gt; JFrame\nMenuUI --|&gt; JFrame\nTaskInputPanel --|&gt; JPanel\nTaskListPanel --|&gt; JPanel\n\nBalanceLog --|&gt; Object\nChild --|&gt; Object\nParent --|&gt; Object\nTask --|&gt; Object\nTaskWorkLog --|&gt; Object\n\n@enduml\n&quot;,&#xa;  &quot;format&quot;: &quot;svg&quot;&#xa;}" id="guqCjP4RtGkK8ISFuLmI-4">
          <mxCell style="shape=image;noLabel=1;verticalAlign=top;aspect=fixed;imageAspect=0;image=data:image/svg+xml,PD94bWwgdmVyc2lvbj0iMS4wIiBlbmNvZGluZz0idXMtYXNjaWkiIHN0YW5kYWxvbmU9Im5vIj8+PHN2ZyB4bWxucz0iaHR0cDovL3d3dy53My5vcmcvMjAwMC9zdmciIHhtbG5zOnhsaW5rPSJodHRwOi8vd3d3LnczLm9yZy8xOTk5L3hsaW5rIiBjb250ZW50U3R5bGVUeXBlPSJ0ZXh0L2NzcyIgaGVpZ2h0PSIzOTVweCIgcHJlc2VydmVBc3BlY3RSYXRpbz0ibm9uZSIgc3R5bGU9IndpZHRoOjYzODhweDtoZWlnaHQ6Mzk1cHg7YmFja2dyb3VuZDojRkZGRkZGOyIgdmVyc2lvbj0iMS4xIiB2aWV3Qm94PSIwIDAgNjM4OCAzOTUiIHdpZHRoPSI2Mzg4cHgiIHpvb21BbmRQYW49Im1hZ25pZnkiPjxkZWZzLz48Zz48IS0tY2xhc3MgQmFsYW5jZUxvZy0tPjxnIGlkPSJlbGVtX0JhbGFuY2VMb2ciPjxyZWN0IGNvZGVMaW5lPSIxIiBmaWxsPSIjRjFGMUYxIiBoZWlnaHQ9IjIyNy44MTI1IiBpZD0iQmFsYW5jZUxvZyIgcng9IjIuNSIgcnk9IjIuNSIgc3R5bGU9InN0cm9rZTojMTgxODE4O3N0cm9rZS13aWR0aDowLjU7IiB3aWR0aD0iNTQyIiB4PSI3IiB5PSIyOS41Ii8+PGVsbGlwc2UgY3g9IjIzOC43NSIgY3k9IjQ1LjUiIGZpbGw9IiNBREQxQjIiIHJ4PSIxMSIgcnk9IjExIiBzdHlsZT0ic3Ryb2tlOiMxODE4MTg7c3Ryb2tlLXdpZHRoOjEuMDsiLz48cGF0aCBkPSJNMjM2LjM3NSw0OS43NSBMMjM2LjM3NSw1MS41IEwyNDEuMzEyNSw1MS41IEwyNDEuMzEyNSw0OS43NSBMMjM2LjM3NSw0OS43NSBaIE0yMzcuMDYyNSw1MC40Mzc1IFEyMzcuMDYyNSw1MC40Mzc1IDIzNy4wNjI1LDQxLjI1IEwyMzUuMzEyNSw0MS4yNSBRMjM1LjMxMjUsNDEuMjUgMjM1LjMxMjUsNTAuNDM3NSBMMjM3LjA2MjUsNTAuNDM3NSBaIE0yNDAuNjI1LDUwLjQzNzUgTDI0Mi4zNzUsNTAuNDM3NSBRMjQyLjM3NSw1MC40Mzc1IDI0Mi4zNzUsNDcuNjI1IEwyNDAuNjI1LDQ3LjYyNSBRMjQwLjYyNSw0Ny42MjUgMjQwLjYyNSw1MC40Mzc1IFogTTI0MC42MjUsNDEuMjUgUTI0MC42MjUsNDEuMjUgMjQwLjYyNSw0NC4wNjI1IEwyNDIuMzc1LDQ0LjA2MjUgUTI0Mi4zNzUsNDQuMDYyNSAyNDIuMzc1LDQxLjI1IEwyNDAuNjI1LDQxLjI1IFogTTIzNi4zNzUsNDEuOTM3NSBMMjQxLjMxMjUsNDEuOTM3NSBMMjQxLjMxMjUsNDAuMTg3NSBMMjM2LjM3NSw0MC4xODc1IEwyMzYuMzc1LDQxLjkzNzUgWiAiIGZpbGw9IiMwMDAwMDAiLz48dGV4dCBmaWxsPSIjMDAwMDAwIiBmb250LWZhbWlseT0ic2Fucy1zZXJpZiIgZm9udC1zaXplPSIxNCIgbGVuZ3RoQWRqdXN0PSJzcGFjaW5nIiB0ZXh0TGVuZ3RoPSI3MCIgeD0iMjU5LjI1IiB5PSI1MS4yNDIyIj5CYWxhbmNlTG9nPC90ZXh0PjxsaW5lIHN0eWxlPSJzdHJva2U6IzE4MTgxODtzdHJva2Utd2lkdGg6MC41OyIgeDE9IjgiIHgyPSI1NDgiIHkxPSI2MS41IiB5Mj0iNjEuNSIvPjxyZWN0IGZpbGw9Im5vbmUiIGhlaWdodD0iNiIgc3R5bGU9InN0cm9rZTojQzgyOTMwO3N0cm9rZS13aWR0aDoxLjA7IiB3aWR0aD0iNiIgeD0iMTUiIHk9IjcxLjQ5MjIiLz48dGV4dCBmaWxsPSIjMDAwMDAwIiBmb250LWZhbWlseT0ic2Fucy1zZXJpZiIgZm9udC1zaXplPSIxNCIgbGVuZ3RoQWRqdXN0PSJzcGFjaW5nIiB0ZXh0TGVuZ3RoPSIxMjAiIHg9IjI3IiB5PSI3OC43MzQ0Ij5jaGlsZE5hbWU6IFN0cmluZzwvdGV4dD48cmVjdCBmaWxsPSJub25lIiBoZWlnaHQ9IjYiIHN0eWxlPSJzdHJva2U6I0M4MjkzMDtzdHJva2Utd2lkdGg6MS4wOyIgd2lkdGg9IjYiIHg9IjE1IiB5PSI4Ni40NzY2Ii8+PHRleHQgZmlsbD0iIzAwMDAwMCIgZm9udC1mYW1pbHk9InNhbnMtc2VyaWYiIGZvbnQtc2l6ZT0iMTQiIGxlbmd0aEFkanVzdD0ic3BhY2luZyIgdGV4dExlbmd0aD0iODQiIHg9IjI3IiB5PSI5My43MTg4Ij50eXBlOiBTdHJpbmc8L3RleHQ+PHJlY3QgZmlsbD0ibm9uZSIgaGVpZ2h0PSI2IiBzdHlsZT0ic3Ryb2tlOiNDODI5MzA7c3Ryb2tlLXdpZHRoOjEuMDsiIHdpZHRoPSI2IiB4PSIxNSIgeT0iMTAxLjQ2MDkiLz48dGV4dCBmaWxsPSIjMDAwMDAwIiBmb250LWZhbWlseT0ic2Fucy1zZXJpZiIgZm9udC1zaXplPSIxNCIgbGVuZ3RoQWRqdXN0PSJzcGFjaW5nIiB0ZXh0TGVuZ3RoPSI5OSIgeD0iMjciIHk9IjEwOC43MDMxIj5hbW91bnQ6IGRvdWJsZTwvdGV4dD48cmVjdCBmaWxsPSJub25lIiBoZWlnaHQ9IjYiIHN0eWxlPSJzdHJva2U6I0M4MjkzMDtzdHJva2Utd2lkdGg6MS4wOyIgd2lkdGg9IjYiIHg9IjE1IiB5PSIxMTYuNDQ1MyIvPjx0ZXh0IGZpbGw9IiMwMDAwMDAiIGZvbnQtZmFtaWx5PSJzYW5zLXNlcmlmIiBmb250LXNpemU9IjE0IiBsZW5ndGhBZGp1c3Q9InNwYWNpbmciIHRleHRMZW5ndGg9Ijg1IiB4PSIyNyIgeT0iMTIzLjY4NzUiPnRpbWU6IFN0cmluZzwvdGV4dD48bGluZSBzdHlsZT0ic3Ryb2tlOiMxODE4MTg7c3Ryb2tlLXdpZHRoOjAuNTsiIHgxPSI4IiB4Mj0iNTQ4IiB5MT0iMTI5LjQzNzUiIHkyPSIxMjkuNDM3NSIvPjxlbGxpcHNlIGN4PSIxOCIgY3k9IjE0Mi40Mjk3IiBmaWxsPSIjODRCRTg0IiByeD0iMyIgcnk9IjMiIHN0eWxlPSJzdHJva2U6IzAzODA0ODtzdHJva2Utd2lkdGg6MS4wOyIvPjx0ZXh0IGZpbGw9IiMwMDAwMDAiIGZvbnQtZmFtaWx5PSJzYW5zLXNlcmlmIiBmb250LXNpemU9IjE0IiBsZW5ndGhBZGp1c3Q9InNwYWNpbmciIHRleHRMZW5ndGg9IjUxNiIgeD0iMjciIHk9IjE0Ni42NzE5Ij5CYWxhbmNlTG9nKGNoaWxkTmFtZTogU3RyaW5nLCB0eXBlOiBTdHJpbmcsIGFtb3VudDogZG91YmxlLCB0aW1lOiBTdHJpbmcpPC90ZXh0PjxlbGxpcHNlIGN4PSIxOCIgY3k9IjE1Ny40MTQxIiBmaWxsPSIjODRCRTg0IiByeD0iMyIgcnk9IjMiIHN0eWxlPSJzdHJva2U6IzAzODA0ODtzdHJva2Utd2lkdGg6MS4wOyIvPjx0ZXh0IGZpbGw9IiMwMDAwMDAiIGZvbnQtZmFtaWx5PSJzYW5zLXNlcmlmIiBmb250LXNpemU9IjE0IiBsZW5ndGhBZGp1c3Q9InNwYWNpbmciIHRleHRMZW5ndGg9IjE1NyIgeD0iMjciIHk9IjE2MS42NTYzIj5nZXRDaGlsZE5hbWUoKTogU3RyaW5nPC90ZXh0PjxlbGxpcHNlIGN4PSIxOCIgY3k9IjE3Mi4zOTg0IiBmaWxsPSIjODRCRTg0IiByeD0iMyIgcnk9IjMiIHN0eWxlPSJzdHJva2U6IzAzODA0ODtzdHJva2Utd2lkdGg6MS4wOyIvPjx0ZXh0IGZpbGw9IiMwMDAwMDAiIGZvbnQtZmFtaWx5PSJzYW5zLXNlcmlmIiBmb250LXNpemU9IjE0IiBsZW5ndGhBZGp1c3Q9InNwYWNpbmciIHRleHRMZW5ndGg9IjE5MSIgeD0iMjciIHk9IjE3Ni42NDA2Ij5zZXRUeXBlKHR5cGU6IFN0cmluZyk6IHZvaWQ8L3RleHQ+PGVsbGlwc2UgY3g9IjE4IiBjeT0iMTg3LjM4MjgiIGZpbGw9IiM4NEJFODQiIHJ4PSIzIiByeT0iMyIgc3R5bGU9InN0cm9rZTojMDM4MDQ4O3N0cm9rZS13aWR0aDoxLjA7Ii8+PHRleHQgZmlsbD0iIzAwMDAwMCIgZm9udC1mYW1pbHk9InNhbnMtc2VyaWYiIGZvbnQtc2l6ZT0iMTQiIGxlbmd0aEFkanVzdD0ic3BhY2luZyIgdGV4dExlbmd0aD0iMTIxIiB4PSIyNyIgeT0iMTkxLjYyNSI+Z2V0VHlwZSgpOiBTdHJpbmc8L3RleHQ+PGVsbGlwc2UgY3g9IjE4IiBjeT0iMjAyLjM2NzIiIGZpbGw9IiM4NEJFODQiIHJ4PSIzIiByeT0iMyIgc3R5bGU9InN0cm9rZTojMDM4MDQ4O3N0cm9rZS13aWR0aDoxLjA7Ii8+PHRleHQgZmlsbD0iIzAwMDAwMCIgZm9udC1mYW1pbHk9InNhbnMtc2VyaWYiIGZvbnQtc2l6ZT0iMTQiIGxlbmd0aEFkanVzdD0ic3BhY2luZyIgdGV4dExlbmd0aD0iMjIxIiB4PSIyNyIgeT0iMjA2LjYwOTQiPnNldEFtb3VudChhbW91bnQ6IGRvdWJsZSk6IHZvaWQ8L3RleHQ+PGVsbGlwc2UgY3g9IjE4IiBjeT0iMjE3LjM1MTYiIGZpbGw9IiM4NEJFODQiIHJ4PSIzIiByeT0iMyIgc3R5bGU9InN0cm9rZTojMDM4MDQ4O3N0cm9rZS13aWR0aDoxLjA7Ii8+PHRleHQgZmlsbD0iIzAwMDAwMCIgZm9udC1mYW1pbHk9InNhbnMtc2VyaWYiIGZvbnQtc2l6ZT0iMTQiIGxlbmd0aEFkanVzdD0ic3BhY2luZyIgdGV4dExlbmd0aD0iMTM2IiB4PSIyNyIgeT0iMjIxLjU5MzgiPmdldEFtb3VudCgpOiBkb3VibGU8L3RleHQ+PGVsbGlwc2UgY3g9IjE4IiBjeT0iMjMyLjMzNTkiIGZpbGw9IiM4NEJFODQiIHJ4PSIzIiByeT0iMyIgc3R5bGU9InN0cm9rZTojMDM4MDQ4O3N0cm9rZS13aWR0aDoxLjA7Ii8+PHRleHQgZmlsbD0iIzAwMDAwMCIgZm9udC1mYW1pbHk9InNhbnMtc2VyaWYiIGZvbnQtc2l6ZT0iMTQiIGxlbmd0aEFkanVzdD0ic3BhY2luZyIgdGV4dExlbmd0aD0iMTkzIiB4PSIyNyIgeT0iMjM2LjU3ODEiPnNldFRpbWUodGltZTogU3RyaW5nKTogdm9pZDwvdGV4dD48ZWxsaXBzZSBjeD0iMTgiIGN5PSIyNDcuMzIwMyIgZmlsbD0iIzg0QkU4NCIgcng9IjMiIHJ5PSIzIiBzdHlsZT0ic3Ryb2tlOiMwMzgwNDg7c3Ryb2tlLXdpZHRoOjEuMDsiLz48dGV4dCBmaWxsPSIjMDAwMDAwIiBmb250LWZhbWlseT0ic2Fucy1zZXJpZiIgZm9udC1zaXplPSIxNCIgbGVuZ3RoQWRqdXN0PSJzcGFjaW5nIiB0ZXh0TGVuZ3RoPSIxMjIiIHg9IjI3IiB5PSIyNTEuNTYyNSI+Z2V0VGltZSgpOiBTdHJpbmc8L3RleHQ+PC9nPjwhLS1jbGFzcyBDaGlsZC0tPjxnIGlkPSJlbGVtX0NoaWxkIj48cmVjdCBjb2RlTGluZT0iMTYiIGZpbGw9IiNGMUYxRjEiIGhlaWdodD0iMjcyLjc2NTYiIGlkPSJDaGlsZCIgcng9IjIuNSIgcnk9IjIuNSIgc3R5bGU9InN0cm9rZTojMTgxODE4O3N0cm9rZS13aWR0aDowLjU7IiB3aWR0aD0iNzk0IiB4PSI1ODQiIHk9IjciLz48ZWxsaXBzZSBjeD0iOTU5LjI1IiBjeT0iMjMiIGZpbGw9IiNBREQxQjIiIHJ4PSIxMSIgcnk9IjExIiBzdHlsZT0ic3Ryb2tlOiMxODE4MTg7c3Ryb2tlLXdpZHRoOjEuMDsiLz48cGF0aCBkPSJNOTU2Ljg3NSwyNy4yNSBMOTU2Ljg3NSwyOSBMOTYxLjgxMjUsMjkgTDk2MS44MTI1LDI3LjI1IEw5NTYuODc1LDI3LjI1IFogTTk1Ny41NjI1LDI3LjkzNzUgUTk1Ny41NjI1LDI3LjkzNzUgOTU3LjU2MjUsMTguNzUgTDk1NS44MTI1LDE4Ljc1IFE5NTUuODEyNSwxOC43NSA5NTUuODEyNSwyNy45Mzc1IEw5NTcuNTYyNSwyNy45Mzc1IFogTTk2MS4xMjUsMjcuOTM3NSBMOTYyLjg3NSwyNy45Mzc1IFE5NjIuODc1LDI3LjkzNzUgOTYyLjg3NSwyNS4xMjUgTDk2MS4xMjUsMjUuMTI1IFE5NjEuMTI1LDI1LjEyNSA5NjEuMTI1LDI3LjkzNzUgWiBNOTYxLjEyNSwxOC43NSBROTYxLjEyNSwxOC43NSA5NjEuMTI1LDIxLjU2MjUgTDk2Mi44NzUsMjEuNTYyNSBROTYyLjg3NSwyMS41NjI1IDk2Mi44NzUsMTguNzUgTDk2MS4xMjUsMTguNzUgWiBNOTU2Ljg3NSwxOS40Mzc1IEw5NjEuODEyNSwxOS40Mzc1IEw5NjEuODEyNSwxNy42ODc1IEw5NTYuODc1LDE3LjY4NzUgTDk1Ni44NzUsMTkuNDM3NSBaICIgZmlsbD0iIzAwMDAwMCIvPjx0ZXh0IGZpbGw9IiMwMDAwMDAiIGZvbnQtZmFtaWx5PSJzYW5zLXNlcmlmIiBmb250LXNpemU9IjE0IiBsZW5ndGhBZGp1c3Q9InNwYWNpbmciIHRleHRMZW5ndGg9IjM1IiB4PSI5NzkuNzUiIHk9IjI4Ljc0MjIiPkNoaWxkPC90ZXh0PjxsaW5lIHN0eWxlPSJzdHJva2U6IzE4MTgxODtzdHJva2Utd2lkdGg6MC41OyIgeDE9IjU4NSIgeDI9IjEzNzciIHkxPSIzOSIgeTI9IjM5Ii8+PHJlY3QgZmlsbD0ibm9uZSIgaGVpZ2h0PSI2IiBzdHlsZT0ic3Ryb2tlOiNDODI5MzA7c3Ryb2tlLXdpZHRoOjEuMDsiIHdpZHRoPSI2IiB4PSI1OTIiIHk9IjQ4Ljk5MjIiLz48dGV4dCBmaWxsPSIjMDAwMDAwIiBmb250LWZhbWlseT0ic2Fucy1zZXJpZiIgZm9udC1zaXplPSIxNCIgbGVuZ3RoQWRqdXN0PSJzcGFjaW5nIiB0ZXh0TGVuZ3RoPSIxMjAiIHg9IjYwNCIgeT0iNTYuMjM0NCI+Y2hpbGROYW1lOiBTdHJpbmc8L3RleHQ+PHJlY3QgZmlsbD0ibm9uZSIgaGVpZ2h0PSI2IiBzdHlsZT0ic3Ryb2tlOiNDODI5MzA7c3Ryb2tlLXdpZHRoOjEuMDsiIHdpZHRoPSI2IiB4PSI1OTIiIHk9IjYzLjk3NjYiLz48dGV4dCBmaWxsPSIjMDAwMDAwIiBmb250LWZhbWlseT0ic2Fucy1zZXJpZiIgZm9udC1zaXplPSIxNCIgbGVuZ3RoQWRqdXN0PSJzcGFjaW5nIiB0ZXh0TGVuZ3RoPSIxMTMiIHg9IjYwNCIgeT0iNzEuMjE4OCI+cGFzc3dvcmQ6IFN0cmluZzwvdGV4dD48cmVjdCBmaWxsPSJub25lIiBoZWlnaHQ9IjYiIHN0eWxlPSJzdHJva2U6I0M4MjkzMDtzdHJva2Utd2lkdGg6MS4wOyIgd2lkdGg9IjYiIHg9IjU5MiIgeT0iNzguOTYwOSIvPjx0ZXh0IGZpbGw9IiMwMDAwMDAiIGZvbnQtZmFtaWx5PSJzYW5zLXNlcmlmIiBmb250LXNpemU9IjE0IiBsZW5ndGhBZGp1c3Q9InNwYWNpbmciIHRleHRMZW5ndGg9IjE1NCIgeD0iNjA0IiB5PSI4Ni4yMDMxIj5jdXJyZW50RGVwb3NpdDogZG91YmxlPC90ZXh0PjxyZWN0IGZpbGw9Im5vbmUiIGhlaWdodD0iNiIgc3R5bGU9InN0cm9rZTojQzgyOTMwO3N0cm9rZS13aWR0aDoxLjA7IiB3aWR0aD0iNiIgeD0iNTkyIiB5PSI5My45NDUzIi8+PHRleHQgZmlsbD0iIzAwMDAwMCIgZm9udC1mYW1pbHk9InNhbnMtc2VyaWYiIGZvbnQtc2l6ZT0iMTQiIGxlbmd0aEFkanVzdD0ic3BhY2luZyIgdGV4dExlbmd0aD0iMTQ3IiB4PSI2MDQiIHk9IjEwMS4xODc1Ij5zYXZpbmdEZXBvc2l0OiBkb3VibGU8L3RleHQ+PHJlY3QgZmlsbD0ibm9uZSIgaGVpZ2h0PSI2IiBzdHlsZT0ic3Ryb2tlOiNDODI5MzA7c3Ryb2tlLXdpZHRoOjEuMDsiIHdpZHRoPSI2IiB4PSI1OTIiIHk9IjEwOC45Mjk3Ii8+PHRleHQgZmlsbD0iIzAwMDAwMCIgZm9udC1mYW1pbHk9InNhbnMtc2VyaWYiIGZvbnQtc2l6ZT0iMTQiIGxlbmd0aEFkanVzdD0ic3BhY2luZyIgdGV4dExlbmd0aD0iMTI3IiB4PSI2MDQiIHk9IjExNi4xNzE5Ij5wYXJlbnROYW1lOiBTdHJpbmc8L3RleHQ+PGxpbmUgc3R5bGU9InN0cm9rZTojMTgxODE4O3N0cm9rZS13aWR0aDowLjU7IiB4MT0iNTg1IiB4Mj0iMTM3NyIgeTE9IjEyMS45MjE5IiB5Mj0iMTIxLjkyMTkiLz48ZWxsaXBzZSBjeD0iNTk1IiBjeT0iMTM0LjkxNDEiIGZpbGw9IiM4NEJFODQiIHJ4PSIzIiByeT0iMyIgc3R5bGU9InN0cm9rZTojMDM4MDQ4O3N0cm9rZS13aWR0aDoxLjA7Ii8+PHRleHQgZmlsbD0iIzAwMDAwMCIgZm9udC1mYW1pbHk9InNhbnMtc2VyaWYiIGZvbnQtc2l6ZT0iMTQiIGxlbmd0aEFkanVzdD0ic3BhY2luZyIgdGV4dExlbmd0aD0iNzY4IiB4PSI2MDQiIHk9IjEzOS4xNTYzIj5DaGlsZChjaGlsZE5hbWU6IFN0cmluZywgcGFzc3dvcmQ6IFN0cmluZywgY3VycmVudERlcG9zaXQ6IGRvdWJsZSwgc2F2aW5nRGVwb3NpdDogZG91YmxlLCBwYXJlbnROYW1lOiBTdHJpbmcpPC90ZXh0PjxlbGxpcHNlIGN4PSI1OTUiIGN5PSIxNDkuODk4NCIgZmlsbD0iIzg0QkU4NCIgcng9IjMiIHJ5PSIzIiBzdHlsZT0ic3Ryb2tlOiMwMzgwNDg7c3Ryb2tlLXdpZHRoOjEuMDsiLz48dGV4dCBmaWxsPSIjMDAwMDAwIiBmb250LWZhbWlseT0ic2Fucy1zZXJpZiIgZm9udC1zaXplPSIxNCIgbGVuZ3RoQWRqdXN0PSJzcGFjaW5nIiB0ZXh0TGVuZ3RoPSIxNTciIHg9IjYwNCIgeT0iMTU0LjE0MDYiPmdldENoaWxkTmFtZSgpOiBTdHJpbmc8L3RleHQ+PGVsbGlwc2UgY3g9IjU5NSIgY3k9IjE2NC44ODI4IiBmaWxsPSIjODRCRTg0IiByeD0iMyIgcnk9IjMiIHN0eWxlPSJzdHJva2U6IzAzODA0ODtzdHJva2Utd2lkdGg6MS4wOyIvPjx0ZXh0IGZpbGw9IiMwMDAwMDAiIGZvbnQtZmFtaWx5PSJzYW5zLXNlcmlmIiBmb250LXNpemU9IjE0IiBsZW5ndGhBZGp1c3Q9InNwYWNpbmciIHRleHRMZW5ndGg9IjI0OSIgeD0iNjA0IiB5PSIxNjkuMTI1Ij5zZXRQYXNzd29yZChwYXNzd29yZDogU3RyaW5nKTogdm9pZDwvdGV4dD48ZWxsaXBzZSBjeD0iNTk1IiBjeT0iMTc5Ljg2NzIiIGZpbGw9IiM4NEJFODQiIHJ4PSIzIiByeT0iMyIgc3R5bGU9InN0cm9rZTojMDM4MDQ4O3N0cm9rZS13aWR0aDoxLjA7Ii8+PHRleHQgZmlsbD0iIzAwMDAwMCIgZm9udC1mYW1pbHk9InNhbnMtc2VyaWYiIGZvbnQtc2l6ZT0iMTQiIGxlbmd0aEFkanVzdD0ic3BhY2luZyIgdGV4dExlbmd0aD0iMTUwIiB4PSI2MDQiIHk9IjE4NC4xMDk0Ij5nZXRQYXNzd29yZCgpOiBTdHJpbmc8L3RleHQ+PGVsbGlwc2UgY3g9IjU5NSIgY3k9IjE5NC44NTE2IiBmaWxsPSIjODRCRTg0IiByeD0iMyIgcnk9IjMiIHN0eWxlPSJzdHJva2U6IzAzODA0ODtzdHJva2Utd2lkdGg6MS4wOyIvPjx0ZXh0IGZpbGw9IiMwMDAwMDAiIGZvbnQtZmFtaWx5PSJzYW5zLXNlcmlmIiBmb250LXNpemU9IjE0IiBsZW5ndGhBZGp1c3Q9InNwYWNpbmciIHRleHRMZW5ndGg9IjMzMSIgeD0iNjA0IiB5PSIxOTkuMDkzOCI+c2V0Q3VycmVudERlcG9zaXQoY3VycmVudERlcG9zaXQ6IGRvdWJsZSk6IHZvaWQ8L3RleHQ+PGVsbGlwc2UgY3g9IjU5NSIgY3k9IjIwOS44MzU5IiBmaWxsPSIjODRCRTg0IiByeD0iMyIgcnk9IjMiIHN0eWxlPSJzdHJva2U6IzAzODA0ODtzdHJva2Utd2lkdGg6MS4wOyIvPjx0ZXh0IGZpbGw9IiMwMDAwMDAiIGZvbnQtZmFtaWx5PSJzYW5zLXNlcmlmIiBmb250LXNpemU9IjE0IiBsZW5ndGhBZGp1c3Q9InNwYWNpbmciIHRleHRMZW5ndGg9IjE5MSIgeD0iNjA0IiB5PSIyMTQuMDc4MSI+Z2V0Q3VycmVudERlcG9zaXQoKTogZG91YmxlPC90ZXh0PjxlbGxpcHNlIGN4PSI1OTUiIGN5PSIyMjQuODIwMyIgZmlsbD0iIzg0QkU4NCIgcng9IjMiIHJ5PSIzIiBzdHlsZT0ic3Ryb2tlOiMwMzgwNDg7c3Ryb2tlLXdpZHRoOjEuMDsiLz48dGV4dCBmaWxsPSIjMDAwMDAwIiBmb250LWZhbWlseT0ic2Fucy1zZXJpZiIgZm9udC1zaXplPSIxNCIgbGVuZ3RoQWRqdXN0PSJzcGFjaW5nIiB0ZXh0TGVuZ3RoPSIzMTciIHg9IjYwNCIgeT0iMjI5LjA2MjUiPnNldFNhdmluZ0RlcG9zaXQoc2F2aW5nRGVwb3NpdDogZG91YmxlKTogdm9pZDwvdGV4dD48ZWxsaXBzZSBjeD0iNTk1IiBjeT0iMjM5LjgwNDciIGZpbGw9IiM4NEJFODQiIHJ4PSIzIiByeT0iMyIgc3R5bGU9InN0cm9rZTojMDM4MDQ4O3N0cm9rZS13aWR0aDoxLjA7Ii8+PHRleHQgZmlsbD0iIzAwMDAwMCIgZm9udC1mYW1pbHk9InNhbnMtc2VyaWYiIGZvbnQtc2l6ZT0iMTQiIGxlbmd0aEFkanVzdD0ic3BhY2luZyIgdGV4dExlbmd0aD0iMTg0IiB4PSI2MDQiIHk9IjI0NC4wNDY5Ij5nZXRTYXZpbmdEZXBvc2l0KCk6IGRvdWJsZTwvdGV4dD48ZWxsaXBzZSBjeD0iNTk1IiBjeT0iMjU0Ljc4OTEiIGZpbGw9IiM4NEJFODQiIHJ4PSIzIiByeT0iMyIgc3R5bGU9InN0cm9rZTojMDM4MDQ4O3N0cm9rZS13aWR0aDoxLjA7Ii8+PHRleHQgZmlsbD0iIzAwMDAwMCIgZm9udC1mYW1pbHk9InNhbnMtc2VyaWYiIGZvbnQtc2l6ZT0iMTQiIGxlbmd0aEFkanVzdD0ic3BhY2luZyIgdGV4dExlbmd0aD0iMjc3IiB4PSI2MDQiIHk9IjI1OS4wMzEzIj5zZXRQYXJlbnROYW1lKHBhcmVudE5hbWU6IFN0cmluZyk6IHZvaWQ8L3RleHQ+PGVsbGlwc2UgY3g9IjU5NSIgY3k9IjI2OS43NzM0IiBmaWxsPSIjODRCRTg0IiByeD0iMyIgcnk9IjMiIHN0eWxlPSJzdHJva2U6IzAzODA0ODtzdHJva2Utd2lkdGg6MS4wOyIvPjx0ZXh0IGZpbGw9IiMwMDAwMDAiIGZvbnQtZmFtaWx5PSJzYW5zLXNlcmlmIiBmb250LXNpemU9IjE0IiBsZW5ndGhBZGp1c3Q9InNwYWNpbmciIHRleHRMZW5ndGg9IjE2NCIgeD0iNjA0IiB5PSIyNzQuMDE1NiI+Z2V0UGFyZW50TmFtZSgpOiBTdHJpbmc8L3RleHQ+PC9nPjwhLS1jbGFzcyBQYXJlbnQtLT48ZyBpZD0iZWxlbV9QYXJlbnQiPjxyZWN0IGNvZGVMaW5lPSIzNCIgZmlsbD0iI0YxRjFGMSIgaGVpZ2h0PSIxNTIuODkwNiIgaWQ9IlBhcmVudCIgcng9IjIuNSIgcnk9IjIuNSIgc3R5bGU9InN0cm9rZTojMTgxODE4O3N0cm9rZS13aWR0aDowLjU7IiB3aWR0aD0iMzM4IiB4PSIxNDEzIiB5PSI2NyIvPjxlbGxpcHNlIGN4PSIxNTU2Ljc1IiBjeT0iODMiIGZpbGw9IiNBREQxQjIiIHJ4PSIxMSIgcnk9IjExIiBzdHlsZT0ic3Ryb2tlOiMxODE4MTg7c3Ryb2tlLXdpZHRoOjEuMDsiLz48cGF0aCBkPSJNMTU1NC4zNzUsODcuMjUgTDE1NTQuMzc1LDg5IEwxNTU5LjMxMjUsODkgTDE1NTkuMzEyNSw4Ny4yNSBMMTU1NC4zNzUsODcuMjUgWiBNMTU1NS4wNjI1LDg3LjkzNzUgUTE1NTUuMDYyNSw4Ny45Mzc1IDE1NTUuMDYyNSw3OC43NSBMMTU1My4zMTI1LDc4Ljc1IFExNTUzLjMxMjUsNzguNzUgMTU1My4zMTI1LDg3LjkzNzUgTDE1NTUuMDYyNSw4Ny45Mzc1IFogTTE1NTguNjI1LDg3LjkzNzUgTDE1NjAuMzc1LDg3LjkzNzUgUTE1NjAuMzc1LDg3LjkzNzUgMTU2MC4zNzUsODUuMTI1IEwxNTU4LjYyNSw4NS4xMjUgUTE1NTguNjI1LDg1LjEyNSAxNTU4LjYyNSw4Ny45Mzc1IFogTTE1NTguNjI1LDc4Ljc1IFExNTU4LjYyNSw3OC43NSAxNTU4LjYyNSw4MS41NjI1IEwxNTYwLjM3NSw4MS41NjI1IFExNTYwLjM3NSw4MS41NjI1IDE1NjAuMzc1LDc4Ljc1IEwxNTU4LjYyNSw3OC43NSBaIE0xNTU0LjM3NSw3OS40Mzc1IEwxNTU5LjMxMjUsNzkuNDM3NSBMMTU1OS4zMTI1LDc3LjY4NzUgTDE1NTQuMzc1LDc3LjY4NzUgTDE1NTQuMzc1LDc5LjQzNzUgWiAiIGZpbGw9IiMwMDAwMDAiLz48dGV4dCBmaWxsPSIjMDAwMDAwIiBmb250LWZhbWlseT0ic2Fucy1zZXJpZiIgZm9udC1zaXplPSIxNCIgbGVuZ3RoQWRqdXN0PSJzcGFjaW5nIiB0ZXh0TGVuZ3RoPSI0MiIgeD0iMTU3Ny4yNSIgeT0iODguNzQyMiI+UGFyZW50PC90ZXh0PjxsaW5lIHN0eWxlPSJzdHJva2U6IzE4MTgxODtzdHJva2Utd2lkdGg6MC41OyIgeDE9IjE0MTQiIHgyPSIxNzUwIiB5MT0iOTkiIHkyPSI5OSIvPjxyZWN0IGZpbGw9Im5vbmUiIGhlaWdodD0iNiIgc3R5bGU9InN0cm9rZTojQzgyOTMwO3N0cm9rZS13aWR0aDoxLjA7IiB3aWR0aD0iNiIgeD0iMTQyMSIgeT0iMTA4Ljk5MjIiLz48dGV4dCBmaWxsPSIjMDAwMDAwIiBmb250LWZhbWlseT0ic2Fucy1zZXJpZiIgZm9udC1zaXplPSIxNCIgbGVuZ3RoQWRqdXN0PSJzcGFjaW5nIiB0ZXh0TGVuZ3RoPSIxMjciIHg9IjE0MzMiIHk9IjExNi4yMzQ0Ij5wYXJlbnROYW1lOiBTdHJpbmc8L3RleHQ+PHJlY3QgZmlsbD0ibm9uZSIgaGVpZ2h0PSI2IiBzdHlsZT0ic3Ryb2tlOiNDODI5MzA7c3Ryb2tlLXdpZHRoOjEuMDsiIHdpZHRoPSI2IiB4PSIxNDIxIiB5PSIxMjMuOTc2NiIvPjx0ZXh0IGZpbGw9IiMwMDAwMDAiIGZvbnQtZmFtaWx5PSJzYW5zLXNlcmlmIiBmb250LXNpemU9IjE0IiBsZW5ndGhBZGp1c3Q9InNwYWNpbmciIHRleHRMZW5ndGg9IjExMyIgeD0iMTQzMyIgeT0iMTMxLjIxODgiPnBhc3N3b3JkOiBTdHJpbmc8L3RleHQ+PGxpbmUgc3R5bGU9InN0cm9rZTojMTgxODE4O3N0cm9rZS13aWR0aDowLjU7IiB4MT0iMTQxNCIgeDI9IjE3NTAiIHkxPSIxMzYuOTY4OCIgeTI9IjEzNi45Njg4Ii8+PGVsbGlwc2UgY3g9IjE0MjQiIGN5PSIxNDkuOTYwOSIgZmlsbD0iIzg0QkU4NCIgcng9IjMiIHJ5PSIzIiBzdHlsZT0ic3Ryb2tlOiMwMzgwNDg7c3Ryb2tlLXdpZHRoOjEuMDsiLz48dGV4dCBmaWxsPSIjMDAwMDAwIiBmb250LWZhbWlseT0ic2Fucy1zZXJpZiIgZm9udC1zaXplPSIxNCIgbGVuZ3RoQWRqdXN0PSJzcGFjaW5nIiB0ZXh0TGVuZ3RoPSIzMTIiIHg9IjE0MzMiIHk9IjE1NC4yMDMxIj5QYXJlbnQocGFyZW50TmFtZTogU3RyaW5nLCBwYXNzd29yZDogU3RyaW5nKTwvdGV4dD48ZWxsaXBzZSBjeD0iMTQyNCIgY3k9IjE2NC45NDUzIiBmaWxsPSIjODRCRTg0IiByeD0iMyIgcnk9IjMiIHN0eWxlPSJzdHJva2U6IzAzODA0ODtzdHJva2Utd2lkdGg6MS4wOyIvPjx0ZXh0IGZpbGw9IiMwMDAwMDAiIGZvbnQtZmFtaWx5PSJzYW5zLXNlcmlmIiBmb250LXNpemU9IjE0IiBsZW5ndGhBZGp1c3Q9InNwYWNpbmciIHRleHRMZW5ndGg9IjE2NCIgeD0iMTQzMyIgeT0iMTY5LjE4NzUiPmdldFBhcmVudE5hbWUoKTogU3RyaW5nPC90ZXh0PjxlbGxpcHNlIGN4PSIxNDI0IiBjeT0iMTc5LjkyOTciIGZpbGw9IiM4NEJFODQiIHJ4PSIzIiByeT0iMyIgc3R5bGU9InN0cm9rZTojMDM4MDQ4O3N0cm9rZS13aWR0aDoxLjA7Ii8+PHRleHQgZmlsbD0iIzAwMDAwMCIgZm9udC1mYW1pbHk9InNhbnMtc2VyaWYiIGZvbnQtc2l6ZT0iMTQiIGxlbmd0aEFkanVzdD0ic3BhY2luZyIgdGV4dExlbmd0aD0iMjc3IiB4PSIxNDMzIiB5PSIxODQuMTcxOSI+c2V0UGFyZW50TmFtZShwYXJlbnROYW1lOiBTdHJpbmcpOiB2b2lkPC90ZXh0PjxlbGxpcHNlIGN4PSIxNDI0IiBjeT0iMTk0LjkxNDEiIGZpbGw9IiM4NEJFODQiIHJ4PSIzIiByeT0iMyIgc3R5bGU9InN0cm9rZTojMDM4MDQ4O3N0cm9rZS13aWR0aDoxLjA7Ii8+PHRleHQgZmlsbD0iIzAwMDAwMCIgZm9udC1mYW1pbHk9InNhbnMtc2VyaWYiIGZvbnQtc2l6ZT0iMTQiIGxlbmd0aEFkanVzdD0ic3BhY2luZyIgdGV4dExlbmd0aD0iMTUwIiB4PSIxNDMzIiB5PSIxOTkuMTU2MyI+Z2V0UGFzc3dvcmQoKTogU3RyaW5nPC90ZXh0PjxlbGxpcHNlIGN4PSIxNDI0IiBjeT0iMjA5Ljg5ODQiIGZpbGw9IiM4NEJFODQiIHJ4PSIzIiByeT0iMyIgc3R5bGU9InN0cm9rZTojMDM4MDQ4O3N0cm9rZS13aWR0aDoxLjA7Ii8+PHRleHQgZmlsbD0iIzAwMDAwMCIgZm9udC1mYW1pbHk9InNhbnMtc2VyaWYiIGZvbnQtc2l6ZT0iMTQiIGxlbmd0aEFkanVzdD0ic3BhY2luZyIgdGV4dExlbmd0aD0iMjQ5IiB4PSIxNDMzIiB5PSIyMTQuMTQwNiI+c2V0UGFzc3dvcmQocGFzc3dvcmQ6IFN0cmluZyk6IHZvaWQ8L3RleHQ+PC9nPjwhLS1jbGFzcyBUYXNrLS0+PGcgaWQ9ImVsZW1fVGFzayI+PHJlY3QgY29kZUxpbmU9IjQ0IiBmaWxsPSIjRjFGMUYxIiBoZWlnaHQ9IjE5Ny44NDM4IiBpZD0iVGFzayIgcng9IjIuNSIgcnk9IjIuNSIgc3R5bGU9InN0cm9rZTojMTgxODE4O3N0cm9rZS13aWR0aDowLjU7IiB3aWR0aD0iNDczIiB4PSIxNzg1LjUiIHk9IjQ0LjUiLz48ZWxsaXBzZSBjeD0iMjAwMy43NSIgY3k9IjYwLjUiIGZpbGw9IiNBREQxQjIiIHJ4PSIxMSIgcnk9IjExIiBzdHlsZT0ic3Ryb2tlOiMxODE4MTg7c3Ryb2tlLXdpZHRoOjEuMDsiLz48cGF0aCBkPSJNMjAwMS4zNzUsNjQuNzUgTDIwMDEuMzc1LDY2LjUgTDIwMDYuMzEyNSw2Ni41IEwyMDA2LjMxMjUsNjQuNzUgTDIwMDEuMzc1LDY0Ljc1IFogTTIwMDIuMDYyNSw2NS40Mzc1IFEyMDAyLjA2MjUsNjUuNDM3NSAyMDAyLjA2MjUsNTYuMjUgTDIwMDAuMzEyNSw1Ni4yNSBRMjAwMC4zMTI1LDU2LjI1IDIwMDAuMzEyNSw2NS40Mzc1IEwyMDAyLjA2MjUsNjUuNDM3NSBaIE0yMDA1LjYyNSw2NS40Mzc1IEwyMDA3LjM3NSw2NS40Mzc1IFEyMDA3LjM3NSw2NS40Mzc1IDIwMDcuMzc1LDYyLjYyNSBMMjAwNS42MjUsNjIuNjI1IFEyMDA1LjYyNSw2Mi42MjUgMjAwNS42MjUsNjUuNDM3NSBaIE0yMDA1LjYyNSw1Ni4yNSBRMjAwNS42MjUsNTYuMjUgMjAwNS42MjUsNTkuMDYyNSBMMjAwNy4zNzUsNTkuMDYyNSBRMjAwNy4zNzUsNTkuMDYyNSAyMDA3LjM3NSw1Ni4yNSBMMjAwNS42MjUsNTYuMjUgWiBNMjAwMS4zNzUsNTYuOTM3NSBMMjAwNi4zMTI1LDU2LjkzNzUgTDIwMDYuMzEyNSw1NS4xODc1IEwyMDAxLjM3NSw1NS4xODc1IEwyMDAxLjM3NSw1Ni45Mzc1IFogIiBmaWxsPSIjMDAwMDAwIi8+PHRleHQgZmlsbD0iIzAwMDAwMCIgZm9udC1mYW1pbHk9InNhbnMtc2VyaWYiIGZvbnQtc2l6ZT0iMTQiIGxlbmd0aEFkanVzdD0ic3BhY2luZyIgdGV4dExlbmd0aD0iMjgiIHg9IjIwMjQuMjUiIHk9IjY2LjI0MjIiPlRhc2s8L3RleHQ+PGxpbmUgc3R5bGU9InN0cm9rZTojMTgxODE4O3N0cm9rZS13aWR0aDowLjU7IiB4MT0iMTc4Ni41IiB4Mj0iMjI1Ny41IiB5MT0iNzYuNSIgeTI9Ijc2LjUiLz48cmVjdCBmaWxsPSJub25lIiBoZWlnaHQ9IjYiIHN0eWxlPSJzdHJva2U6I0M4MjkzMDtzdHJva2Utd2lkdGg6MS4wOyIgd2lkdGg9IjYiIHg9IjE3OTMuNSIgeT0iODYuNDkyMiIvPjx0ZXh0IGZpbGw9IiMwMDAwMDAiIGZvbnQtZmFtaWx5PSJzYW5zLXNlcmlmIiBmb250LXNpemU9IjE0IiBsZW5ndGhBZGp1c3Q9InNwYWNpbmciIHRleHRMZW5ndGg9IjExMyIgeD0iMTgwNS41IiB5PSI5My43MzQ0Ij50YXNrTmFtZTogU3RyaW5nPC90ZXh0PjxyZWN0IGZpbGw9Im5vbmUiIGhlaWdodD0iNiIgc3R5bGU9InN0cm9rZTojQzgyOTMwO3N0cm9rZS13aWR0aDoxLjA7IiB3aWR0aD0iNiIgeD0iMTc5My41IiB5PSIxMDEuNDc2NiIvPjx0ZXh0IGZpbGw9IiMwMDAwMDAiIGZvbnQtZmFtaWx5PSJzYW5zLXNlcmlmIiBmb250LXNpemU9IjE0IiBsZW5ndGhBZGp1c3Q9InNwYWNpbmciIHRleHRMZW5ndGg9IjEzNSIgeD0iMTgwNS41IiB5PSIxMDguNzE4OCI+bW9uZXlSZXdhcmQ6IGRvdWJsZTwvdGV4dD48cmVjdCBmaWxsPSJub25lIiBoZWlnaHQ9IjYiIHN0eWxlPSJzdHJva2U6I0M4MjkzMDtzdHJva2Utd2lkdGg6MS4wOyIgd2lkdGg9IjYiIHg9IjE3OTMuNSIgeT0iMTE2LjQ2MDkiLz48dGV4dCBmaWxsPSIjMDAwMDAwIiBmb250LWZhbWlseT0ic2Fucy1zZXJpZiIgZm9udC1zaXplPSIxNCIgbGVuZ3RoQWRqdXN0PSJzcGFjaW5nIiB0ZXh0TGVuZ3RoPSIxMjciIHg9IjE4MDUuNSIgeT0iMTIzLjcwMzEiPnBhcmVudE5hbWU6IFN0cmluZzwvdGV4dD48bGluZSBzdHlsZT0ic3Ryb2tlOiMxODE4MTg7c3Ryb2tlLXdpZHRoOjAuNTsiIHgxPSIxNzg2LjUiIHgyPSIyMjU3LjUiIHkxPSIxMjkuNDUzMSIgeTI9IjEyOS40NTMxIi8+PGVsbGlwc2UgY3g9IjE3OTYuNSIgY3k9IjE0Mi40NDUzIiBmaWxsPSIjODRCRTg0IiByeD0iMyIgcnk9IjMiIHN0eWxlPSJzdHJva2U6IzAzODA0ODtzdHJva2Utd2lkdGg6MS4wOyIvPjx0ZXh0IGZpbGw9IiMwMDAwMDAiIGZvbnQtZmFtaWx5PSJzYW5zLXNlcmlmIiBmb250LXNpemU9IjE0IiBsZW5ndGhBZGp1c3Q9InNwYWNpbmciIHRleHRMZW5ndGg9IjQ0NyIgeD0iMTgwNS41IiB5PSIxNDYuNjg3NSI+VGFzayh0YXNrTmFtZTogU3RyaW5nLCBtb25leVJld2FyZDogZG91YmxlLCBwYXJlbnROYW1lOiBTdHJpbmcpPC90ZXh0PjxlbGxpcHNlIGN4PSIxNzk2LjUiIGN5PSIxNTcuNDI5NyIgZmlsbD0iIzg0QkU4NCIgcng9IjMiIHJ5PSIzIiBzdHlsZT0ic3Ryb2tlOiMwMzgwNDg7c3Ryb2tlLXdpZHRoOjEuMDsiLz48dGV4dCBmaWxsPSIjMDAwMDAwIiBmb250LWZhbWlseT0ic2Fucy1zZXJpZiIgZm9udC1zaXplPSIxNCIgbGVuZ3RoQWRqdXN0PSJzcGFjaW5nIiB0ZXh0TGVuZ3RoPSIxNTAiIHg9IjE4MDUuNSIgeT0iMTYxLjY3MTkiPmdldFRhc2tOYW1lKCk6IFN0cmluZzwvdGV4dD48ZWxsaXBzZSBjeD0iMTc5Ni41IiBjeT0iMTcyLjQxNDEiIGZpbGw9IiM4NEJFODQiIHJ4PSIzIiByeT0iMyIgc3R5bGU9InN0cm9rZTojMDM4MDQ4O3N0cm9rZS13aWR0aDoxLjA7Ii8+PHRleHQgZmlsbD0iIzAwMDAwMCIgZm9udC1mYW1pbHk9InNhbnMtc2VyaWYiIGZvbnQtc2l6ZT0iMTQiIGxlbmd0aEFkanVzdD0ic3BhY2luZyIgdGV4dExlbmd0aD0iMjQ5IiB4PSIxODA1LjUiIHk9IjE3Ni42NTYzIj5zZXRUYXNrTmFtZSh0YXNrTmFtZTogU3RyaW5nKTogdm9pZDwvdGV4dD48ZWxsaXBzZSBjeD0iMTc5Ni41IiBjeT0iMTg3LjM5ODQiIGZpbGw9IiM4NEJFODQiIHJ4PSIzIiByeT0iMyIgc3R5bGU9InN0cm9rZTojMDM4MDQ4O3N0cm9rZS13aWR0aDoxLjA7Ii8+PHRleHQgZmlsbD0iIzAwMDAwMCIgZm9udC1mYW1pbHk9InNhbnMtc2VyaWYiIGZvbnQtc2l6ZT0iMTQiIGxlbmd0aEFkanVzdD0ic3BhY2luZyIgdGV4dExlbmd0aD0iMTcxIiB4PSIxODA1LjUiIHk9IjE5MS42NDA2Ij5nZXRNb25leVJld2FyZCgpOiBkb3VibGU8L3RleHQ+PGVsbGlwc2UgY3g9IjE3OTYuNSIgY3k9IjIwMi4zODI4IiBmaWxsPSIjODRCRTg0IiByeD0iMyIgcnk9IjMiIHN0eWxlPSJzdHJva2U6IzAzODA0ODtzdHJva2Utd2lkdGg6MS4wOyIvPjx0ZXh0IGZpbGw9IiMwMDAwMDAiIGZvbnQtZmFtaWx5PSJzYW5zLXNlcmlmIiBmb250LXNpemU9IjE0IiBsZW5ndGhBZGp1c3Q9InNwYWNpbmciIHRleHRMZW5ndGg9IjI5MiIgeD0iMTgwNS41IiB5PSIyMDYuNjI1Ij5zZXRNb25leVJld2FyZChtb25leVJld2FyZDogZG91YmxlKTogdm9pZDwvdGV4dD48ZWxsaXBzZSBjeD0iMTc5Ni41IiBjeT0iMjE3LjM2NzIiIGZpbGw9IiM4NEJFODQiIHJ4PSIzIiByeT0iMyIgc3R5bGU9InN0cm9rZTojMDM4MDQ4O3N0cm9rZS13aWR0aDoxLjA7Ii8+PHRleHQgZmlsbD0iIzAwMDAwMCIgZm9udC1mYW1pbHk9InNhbnMtc2VyaWYiIGZvbnQtc2l6ZT0iMTQiIGxlbmd0aEFkanVzdD0ic3BhY2luZyIgdGV4dExlbmd0aD0iMTY0IiB4PSIxODA1LjUiIHk9IjIyMS42MDk0Ij5nZXRQYXJlbnROYW1lKCk6IFN0cmluZzwvdGV4dD48ZWxsaXBzZSBjeD0iMTc5Ni41IiBjeT0iMjMyLjM1MTYiIGZpbGw9IiM4NEJFODQiIHJ4PSIzIiByeT0iMyIgc3R5bGU9InN0cm9rZTojMDM4MDQ4O3N0cm9rZS13aWR0aDoxLjA7Ii8+PHRleHQgZmlsbD0iIzAwMDAwMCIgZm9udC1mYW1pbHk9InNhbnMtc2VyaWYiIGZvbnQtc2l6ZT0iMTQiIGxlbmd0aEFkanVzdD0ic3BhY2luZyIgdGV4dExlbmd0aD0iMjc3IiB4PSIxODA1LjUiIHk9IjIzNi41OTM4Ij5zZXRQYXJlbnROYW1lKHBhcmVudE5hbWU6IFN0cmluZyk6IHZvaWQ8L3RleHQ+PC9nPjwhLS1jbGFzcyBUYXNrV29ya0xvZy0tPjxnIGlkPSJlbGVtX1Rhc2tXb3JrTG9nIj48cmVjdCBjb2RlTGluZT0iNTciIGZpbGw9IiNGMUYxRjEiIGhlaWdodD0iMjQyLjc5NjkiIGlkPSJUYXNrV29ya0xvZyIgcng9IjIuNSIgcnk9IjIuNSIgc3R5bGU9InN0cm9rZTojMTgxODE4O3N0cm9rZS13aWR0aDowLjU7IiB3aWR0aD0iNTc3IiB4PSIyMjkzLjUiIHk9IjIyIi8+PGVsbGlwc2UgY3g9IjI1MzkuMjUiIGN5PSIzOCIgZmlsbD0iI0FERDFCMiIgcng9IjExIiByeT0iMTEiIHN0eWxlPSJzdHJva2U6IzE4MTgxODtzdHJva2Utd2lkdGg6MS4wOyIvPjxwYXRoIGQ9Ik0yNTM2Ljg3NSw0Mi4yNSBMMjUzNi44NzUsNDQgTDI1NDEuODEyNSw0NCBMMjU0MS44MTI1LDQyLjI1IEwyNTM2Ljg3NSw0Mi4yNSBaIE0yNTM3LjU2MjUsNDIuOTM3NSBRMjUzNy41NjI1LDQyLjkzNzUgMjUzNy41NjI1LDMzLjc1IEwyNTM1LjgxMjUsMzMuNzUgUTI1MzUuODEyNSwzMy43NSAyNTM1LjgxMjUsNDIuOTM3NSBMMjUzNy41NjI1LDQyLjkzNzUgWiBNMjU0MS4xMjUsNDIuOTM3NSBMMjU0Mi44NzUsNDIuOTM3NSBRMjU0Mi44NzUsNDIuOTM3NSAyNTQyLjg3NSw0MC4xMjUgTDI1NDEuMTI1LDQwLjEyNSBRMjU0MS4xMjUsNDAuMTI1IDI1NDEuMTI1LDQyLjkzNzUgWiBNMjU0MS4xMjUsMzMuNzUgUTI1NDEuMTI1LDMzLjc1IDI1NDEuMTI1LDM2LjU2MjUgTDI1NDIuODc1LDM2LjU2MjUgUTI1NDIuODc1LDM2LjU2MjUgMjU0Mi44NzUsMzMuNzUgTDI1NDEuMTI1LDMzLjc1IFogTTI1MzYuODc1LDM0LjQzNzUgTDI1NDEuODEyNSwzNC40Mzc1IEwyNTQxLjgxMjUsMzIuNjg3NSBMMjUzNi44NzUsMzIuNjg3NSBMMjUzNi44NzUsMzQuNDM3NSBaICIgZmlsbD0iIzAwMDAwMCIvPjx0ZXh0IGZpbGw9IiMwMDAwMDAiIGZvbnQtZmFtaWx5PSJzYW5zLXNlcmlmIiBmb250LXNpemU9IjE0IiBsZW5ndGhBZGp1c3Q9InNwYWNpbmciIHRleHRMZW5ndGg9Ijc3IiB4PSIyNTU5Ljc1IiB5PSI0My43NDIyIj5UYXNrV29ya0xvZzwvdGV4dD48bGluZSBzdHlsZT0ic3Ryb2tlOiMxODE4MTg7c3Ryb2tlLXdpZHRoOjAuNTsiIHgxPSIyMjk0LjUiIHgyPSIyODY5LjUiIHkxPSI1NCIgeTI9IjU0Ii8+PHJlY3QgZmlsbD0ibm9uZSIgaGVpZ2h0PSI2IiBzdHlsZT0ic3Ryb2tlOiNDODI5MzA7c3Ryb2tlLXdpZHRoOjEuMDsiIHdpZHRoPSI2IiB4PSIyMzAxLjUiIHk9IjYzLjk5MjIiLz48dGV4dCBmaWxsPSIjMDAwMDAwIiBmb250LWZhbWlseT0ic2Fucy1zZXJpZiIgZm9udC1zaXplPSIxNCIgbGVuZ3RoQWRqdXN0PSJzcGFjaW5nIiB0ZXh0TGVuZ3RoPSIxMTMiIHg9IjIzMTMuNSIgeT0iNzEuMjM0NCI+dGFza05hbWU6IFN0cmluZzwvdGV4dD48cmVjdCBmaWxsPSJub25lIiBoZWlnaHQ9IjYiIHN0eWxlPSJzdHJva2U6I0M4MjkzMDtzdHJva2Utd2lkdGg6MS4wOyIgd2lkdGg9IjYiIHg9IjIzMDEuNSIgeT0iNzguOTc2NiIvPjx0ZXh0IGZpbGw9IiMwMDAwMDAiIGZvbnQtZmFtaWx5PSJzYW5zLXNlcmlmIiBmb250LXNpemU9IjE0IiBsZW5ndGhBZGp1c3Q9InNwYWNpbmciIHRleHRMZW5ndGg9IjEyMCIgeD0iMjMxMy41IiB5PSI4Ni4yMTg4Ij5jaGlsZE5hbWU6IFN0cmluZzwvdGV4dD48cmVjdCBmaWxsPSJub25lIiBoZWlnaHQ9IjYiIHN0eWxlPSJzdHJva2U6I0M4MjkzMDtzdHJva2Utd2lkdGg6MS4wOyIgd2lkdGg9IjYiIHg9IjIzMDEuNSIgeT0iOTMuOTYwOSIvPjx0ZXh0IGZpbGw9IiMwMDAwMDAiIGZvbnQtZmFtaWx5PSJzYW5zLXNlcmlmIiBmb250LXNpemU9IjE0IiBsZW5ndGhBZGp1c3Q9InNwYWNpbmciIHRleHRMZW5ndGg9Ijk4IiB4PSIyMzEzLjUiIHk9IjEwMS4yMDMxIj5zdGF0dXM6IFN0cmluZzwvdGV4dD48cmVjdCBmaWxsPSJub25lIiBoZWlnaHQ9IjYiIHN0eWxlPSJzdHJva2U6I0M4MjkzMDtzdHJva2Utd2lkdGg6MS4wOyIgd2lkdGg9IjYiIHg9IjIzMDEuNSIgeT0iMTA4Ljk0NTMiLz48dGV4dCBmaWxsPSIjMDAwMDAwIiBmb250LWZhbWlseT0ic2Fucy1zZXJpZiIgZm9udC1zaXplPSIxNCIgbGVuZ3RoQWRqdXN0PSJzcGFjaW5nIiB0ZXh0TGVuZ3RoPSI4NSIgeD0iMjMxMy41IiB5PSIxMTYuMTg3NSI+dGltZTogU3RyaW5nPC90ZXh0PjxsaW5lIHN0eWxlPSJzdHJva2U6IzE4MTgxODtzdHJva2Utd2lkdGg6MC41OyIgeDE9IjIyOTQuNSIgeDI9IjI4NjkuNSIgeTE9IjEyMS45Mzc1IiB5Mj0iMTIxLjkzNzUiLz48ZWxsaXBzZSBjeD0iMjMwNC41IiBjeT0iMTM0LjkyOTciIGZpbGw9IiM4NEJFODQiIHJ4PSIzIiByeT0iMyIgc3R5bGU9InN0cm9rZTojMDM4MDQ4O3N0cm9rZS13aWR0aDoxLjA7Ii8+PHRleHQgZmlsbD0iIzAwMDAwMCIgZm9udC1mYW1pbHk9InNhbnMtc2VyaWYiIGZvbnQtc2l6ZT0iMTQiIGxlbmd0aEFkanVzdD0ic3BhY2luZyIgdGV4dExlbmd0aD0iNTUxIiB4PSIyMzEzLjUiIHk9IjEzOS4xNzE5Ij5UYXNrV29ya0xvZyh0YXNrTmFtZTogU3RyaW5nLCBjaGlsZE5hbWU6IFN0cmluZywgc3RhdHVzOiBTdHJpbmcsIHRpbWU6IFN0cmluZyk8L3RleHQ+PGVsbGlwc2UgY3g9IjIzMDQuNSIgY3k9IjE0OS45MTQxIiBmaWxsPSIjODRCRTg0IiByeD0iMyIgcnk9IjMiIHN0eWxlPSJzdHJva2U6IzAzODA0ODtzdHJva2Utd2lkdGg6MS4wOyIvPjx0ZXh0IGZpbGw9IiMwMDAwMDAiIGZvbnQtZmFtaWx5PSJzYW5zLXNlcmlmIiBmb250LXNpemU9IjE0IiBsZW5ndGhBZGp1c3Q9InNwYWNpbmciIHRleHRMZW5ndGg9IjE1MCIgeD0iMjMxMy41IiB5PSIxNTQuMTU2MyI+Z2V0VGFza05hbWUoKTogU3RyaW5nPC90ZXh0PjxlbGxpcHNlIGN4PSIyMzA0LjUiIGN5PSIxNjQuODk4NCIgZmlsbD0iIzg0QkU4NCIgcng9IjMiIHJ5PSIzIiBzdHlsZT0ic3Ryb2tlOiMwMzgwNDg7c3Ryb2tlLXdpZHRoOjEuMDsiLz48dGV4dCBmaWxsPSIjMDAwMDAwIiBmb250LWZhbWlseT0ic2Fucy1zZXJpZiIgZm9udC1zaXplPSIxNCIgbGVuZ3RoQWRqdXN0PSJzcGFjaW5nIiB0ZXh0TGVuZ3RoPSIyNDkiIHg9IjIzMTMuNSIgeT0iMTY5LjE0MDYiPnNldFRhc2tOYW1lKHRhc2tOYW1lOiBTdHJpbmcpOiB2b2lkPC90ZXh0PjxlbGxpcHNlIGN4PSIyMzA0LjUiIGN5PSIxNzkuODgyOCIgZmlsbD0iIzg0QkU4NCIgcng9IjMiIHJ5PSIzIiBzdHlsZT0ic3Ryb2tlOiMwMzgwNDg7c3Ryb2tlLXdpZHRoOjEuMDsiLz48dGV4dCBmaWxsPSIjMDAwMDAwIiBmb250LWZhbWlseT0ic2Fucy1zZXJpZiIgZm9udC1zaXplPSIxNCIgbGVuZ3RoQWRqdXN0PSJzcGFjaW5nIiB0ZXh0TGVuZ3RoPSIxNTciIHg9IjIzMTMuNSIgeT0iMTg0LjEyNSI+Z2V0Q2hpbGROYW1lKCk6IFN0cmluZzwvdGV4dD48ZWxsaXBzZSBjeD0iMjMwNC41IiBjeT0iMTk0Ljg2NzIiIGZpbGw9IiM4NEJFODQiIHJ4PSIzIiByeT0iMyIgc3R5bGU9InN0cm9rZTojMDM4MDQ4O3N0cm9rZS13aWR0aDoxLjA7Ii8+PHRleHQgZmlsbD0iIzAwMDAwMCIgZm9udC1mYW1pbHk9InNhbnMtc2VyaWYiIGZvbnQtc2l6ZT0iMTQiIGxlbmd0aEFkanVzdD0ic3BhY2luZyIgdGV4dExlbmd0aD0iMjYzIiB4PSIyMzEzLjUiIHk9IjE5OS4xMDk0Ij5zZXRDaGlsZE5hbWUoY2hpbGROYW1lOiBTdHJpbmcpOiB2b2lkPC90ZXh0PjxlbGxpcHNlIGN4PSIyMzA0LjUiIGN5PSIyMDkuODUxNiIgZmlsbD0iIzg0QkU4NCIgcng9IjMiIHJ5PSIzIiBzdHlsZT0ic3Ryb2tlOiMwMzgwNDg7c3Ryb2tlLXdpZHRoOjEuMDsiLz48dGV4dCBmaWxsPSIjMDAwMDAwIiBmb250LWZhbWlseT0ic2Fucy1zZXJpZiIgZm9udC1zaXplPSIxNCIgbGVuZ3RoQWRqdXN0PSJzcGFjaW5nIiB0ZXh0TGVuZ3RoPSIxMzUiIHg9IjIzMTMuNSIgeT0iMjE0LjA5MzgiPmdldFN0YXR1cygpOiBTdHJpbmc8L3RleHQ+PGVsbGlwc2UgY3g9IjIzMDQuNSIgY3k9IjIyNC44MzU5IiBmaWxsPSIjODRCRTg0IiByeD0iMyIgcnk9IjMiIHN0eWxlPSJzdHJva2U6IzAzODA0ODtzdHJva2Utd2lkdGg6MS4wOyIvPjx0ZXh0IGZpbGw9IiMwMDAwMDAiIGZvbnQtZmFtaWx5PSJzYW5zLXNlcmlmIiBmb250LXNpemU9IjE0IiBsZW5ndGhBZGp1c3Q9InNwYWNpbmciIHRleHRMZW5ndGg9IjIxOSIgeD0iMjMxMy41IiB5PSIyMjkuMDc4MSI+c2V0U3RhdHVzKHN0YXR1czogU3RyaW5nKTogdm9pZDwvdGV4dD48ZWxsaXBzZSBjeD0iMjMwNC41IiBjeT0iMjM5LjgyMDMiIGZpbGw9IiM4NEJFODQiIHJ4PSIzIiByeT0iMyIgc3R5bGU9InN0cm9rZTojMDM4MDQ4O3N0cm9rZS13aWR0aDoxLjA7Ii8+PHRleHQgZmlsbD0iIzAwMDAwMCIgZm9udC1mYW1pbHk9InNhbnMtc2VyaWYiIGZvbnQtc2l6ZT0iMTQiIGxlbmd0aEFkanVzdD0ic3BhY2luZyIgdGV4dExlbmd0aD0iMTIyIiB4PSIyMzEzLjUiIHk9IjI0NC4wNjI1Ij5nZXRUaW1lKCk6IFN0cmluZzwvdGV4dD48ZWxsaXBzZSBjeD0iMjMwNC41IiBjeT0iMjU0LjgwNDciIGZpbGw9IiM4NEJFODQiIHJ4PSIzIiByeT0iMyIgc3R5bGU9InN0cm9rZTojMDM4MDQ4O3N0cm9rZS13aWR0aDoxLjA7Ii8+PHRleHQgZmlsbD0iIzAwMDAwMCIgZm9udC1mYW1pbHk9InNhbnMtc2VyaWYiIGZvbnQtc2l6ZT0iMTQiIGxlbmd0aEFkanVzdD0ic3BhY2luZyIgdGV4dExlbmd0aD0iMTkzIiB4PSIyMzEzLjUiIHk9IjI1OS4wNDY5Ij5zZXRUaW1lKHRpbWU6IFN0cmluZyk6IHZvaWQ8L3RleHQ+PC9nPjwhLS1jbGFzcyBDaGlsZHJlbkFjY291bnRHVUktLT48ZyBpZD0iZWxlbV9DaGlsZHJlbkFjY291bnRHVUkiPjxyZWN0IGNvZGVMaW5lPSI3MyIgZmlsbD0iI0YxRjFGMSIgaGVpZ2h0PSI3Ny45Njg4IiBpZD0iQ2hpbGRyZW5BY2NvdW50R1VJIiByeD0iMi41IiByeT0iMi41IiBzdHlsZT0ic3Ryb2tlOiMxODE4MTg7c3Ryb2tlLXdpZHRoOjAuNTsiIHdpZHRoPSIyODgiIHg9IjI5MDYiIHk9IjEwNC41Ii8+PGVsbGlwc2UgY3g9IjI5ODIuNzUiIGN5PSIxMjAuNSIgZmlsbD0iI0FERDFCMiIgcng9IjExIiByeT0iMTEiIHN0eWxlPSJzdHJva2U6IzE4MTgxODtzdHJva2Utd2lkdGg6MS4wOyIvPjxwYXRoIGQ9Ik0yOTgwLjM3NSwxMjQuNzUgTDI5ODAuMzc1LDEyNi41IEwyOTg1LjMxMjUsMTI2LjUgTDI5ODUuMzEyNSwxMjQuNzUgTDI5ODAuMzc1LDEyNC43NSBaIE0yOTgxLjA2MjUsMTI1LjQzNzUgUTI5ODEuMDYyNSwxMjUuNDM3NSAyOTgxLjA2MjUsMTE2LjI1IEwyOTc5LjMxMjUsMTE2LjI1IFEyOTc5LjMxMjUsMTE2LjI1IDI5NzkuMzEyNSwxMjUuNDM3NSBMMjk4MS4wNjI1LDEyNS40Mzc1IFogTTI5ODQuNjI1LDEyNS40Mzc1IEwyOTg2LjM3NSwxMjUuNDM3NSBRMjk4Ni4zNzUsMTI1LjQzNzUgMjk4Ni4zNzUsMTIyLjYyNSBMMjk4NC42MjUsMTIyLjYyNSBRMjk4NC42MjUsMTIyLjYyNSAyOTg0LjYyNSwxMjUuNDM3NSBaIE0yOTg0LjYyNSwxMTYuMjUgUTI5ODQuNjI1LDExNi4yNSAyOTg0LjYyNSwxMTkuMDYyNSBMMjk4Ni4zNzUsMTE5LjA2MjUgUTI5ODYuMzc1LDExOS4wNjI1IDI5ODYuMzc1LDExNi4yNSBMMjk4NC42MjUsMTE2LjI1IFogTTI5ODAuMzc1LDExNi45Mzc1IEwyOTg1LjMxMjUsMTE2LjkzNzUgTDI5ODUuMzEyNSwxMTUuMTg3NSBMMjk4MC4zNzUsMTE1LjE4NzUgTDI5ODAuMzc1LDExNi45Mzc1IFogIiBmaWxsPSIjMDAwMDAwIi8+PHRleHQgZmlsbD0iIzAwMDAwMCIgZm9udC1mYW1pbHk9InNhbnMtc2VyaWYiIGZvbnQtc2l6ZT0iMTQiIGxlbmd0aEFkanVzdD0ic3BhY2luZyIgdGV4dExlbmd0aD0iMTI2IiB4PSIzMDAzLjI1IiB5PSIxMjYuMjQyMiI+Q2hpbGRyZW5BY2NvdW50R1VJPC90ZXh0PjxsaW5lIHN0eWxlPSJzdHJva2U6IzE4MTgxODtzdHJva2Utd2lkdGg6MC41OyIgeDE9IjI5MDciIHgyPSIzMTkzIiB5MT0iMTM2LjUiIHkyPSIxMzYuNSIvPjxsaW5lIHN0eWxlPSJzdHJva2U6IzE4MTgxODtzdHJva2Utd2lkdGg6MC41OyIgeDE9IjI5MDciIHgyPSIzMTkzIiB5MT0iMTQ0LjUiIHkyPSIxNDQuNSIvPjxlbGxpcHNlIGN4PSIyOTE3IiBjeT0iMTU3LjQ5MjIiIGZpbGw9IiM4NEJFODQiIHJ4PSIzIiByeT0iMyIgc3R5bGU9InN0cm9rZTojMDM4MDQ4O3N0cm9rZS13aWR0aDoxLjA7Ii8+PHRleHQgZmlsbD0iIzAwMDAwMCIgZm9udC1mYW1pbHk9InNhbnMtc2VyaWYiIGZvbnQtc2l6ZT0iMTQiIGxlbmd0aEFkanVzdD0ic3BhY2luZyIgdGV4dExlbmd0aD0iMTI4IiB4PSIyOTI2IiB5PSIxNjEuNzM0NCI+aW5pdGlhbGl6ZSgpOiB2b2lkPC90ZXh0PjxlbGxpcHNlIGN4PSIyOTE3IiBjeT0iMTcyLjQ3NjYiIGZpbGw9IiM4NEJFODQiIHJ4PSIzIiByeT0iMyIgc3R5bGU9InN0cm9rZTojMDM4MDQ4O3N0cm9rZS13aWR0aDoxLjA7Ii8+PHRleHQgZmlsbD0iIzAwMDAwMCIgZm9udC1mYW1pbHk9InNhbnMtc2VyaWYiIGZvbnQtc2l6ZT0iMTQiIGxlbmd0aEFkanVzdD0ic3BhY2luZyIgdGV4dExlbmd0aD0iMjYyIiB4PSIyOTI2IiB5PSIxNzYuNzE4OCI+YWN0aW9uUGVyZm9ybWVkKGU6IEFjdGlvbkV2ZW50KTogdm9pZDwvdGV4dD48L2c+PCEtLWNsYXNzIENoaWxkQmFsYW5jZUxvZ0xpc3RQYW5lbC0tPjxnIGlkPSJlbGVtX0NoaWxkQmFsYW5jZUxvZ0xpc3RQYW5lbCI+PHJlY3QgY29kZUxpbmU9Ijc4IiBmaWxsPSIjRjFGMUYxIiBoZWlnaHQ9Ijc3Ljk2ODgiIGlkPSJDaGlsZEJhbGFuY2VMb2dMaXN0UGFuZWwiIHJ4PSIyLjUiIHJ5PSIyLjUiIHN0eWxlPSJzdHJva2U6IzE4MTgxODtzdHJva2Utd2lkdGg6MC41OyIgd2lkdGg9IjM1MiIgeD0iNDI0MCIgeT0iMTA0LjUiLz48ZWxsaXBzZSBjeD0iNDMyNy43NSIgY3k9IjEyMC41IiBmaWxsPSIjQUREMUIyIiByeD0iMTEiIHJ5PSIxMSIgc3R5bGU9InN0cm9rZTojMTgxODE4O3N0cm9rZS13aWR0aDoxLjA7Ii8+PHBhdGggZD0iTTQzMjUuMzc1LDEyNC43NSBMNDMyNS4zNzUsMTI2LjUgTDQzMzAuMzEyNSwxMjYuNSBMNDMzMC4zMTI1LDEyNC43NSBMNDMyNS4zNzUsMTI0Ljc1IFogTTQzMjYuMDYyNSwxMjUuNDM3NSBRNDMyNi4wNjI1LDEyNS40Mzc1IDQzMjYuMDYyNSwxMTYuMjUgTDQzMjQuMzEyNSwxMTYuMjUgUTQzMjQuMzEyNSwxMTYuMjUgNDMyNC4zMTI1LDEyNS40Mzc1IEw0MzI2LjA2MjUsMTI1LjQzNzUgWiBNNDMyOS42MjUsMTI1LjQzNzUgTDQzMzEuMzc1LDEyNS40Mzc1IFE0MzMxLjM3NSwxMjUuNDM3NSA0MzMxLjM3NSwxMjIuNjI1IEw0MzI5LjYyNSwxMjIuNjI1IFE0MzI5LjYyNSwxMjIuNjI1IDQzMjkuNjI1LDEyNS40Mzc1IFogTTQzMjkuNjI1LDExNi4yNSBRNDMyOS42MjUsMTE2LjI1IDQzMjkuNjI1LDExOS4wNjI1IEw0MzMxLjM3NSwxMTkuMDYyNSBRNDMzMS4zNzUsMTE5LjA2MjUgNDMzMS4zNzUsMTE2LjI1IEw0MzI5LjYyNSwxMTYuMjUgWiBNNDMyNS4zNzUsMTE2LjkzNzUgTDQzMzAuMzEyNSwxMTYuOTM3NSBMNDMzMC4zMTI1LDExNS4xODc1IEw0MzI1LjM3NSwxMTUuMTg3NSBMNDMyNS4zNzUsMTE2LjkzNzUgWiAiIGZpbGw9IiMwMDAwMDAiLz48dGV4dCBmaWxsPSIjMDAwMDAwIiBmb250LWZhbWlseT0ic2Fucy1zZXJpZiIgZm9udC1zaXplPSIxNCIgbGVuZ3RoQWRqdXN0PSJzcGFjaW5nIiB0ZXh0TGVuZ3RoPSIxNjgiIHg9IjQzNDguMjUiIHk9IjEyNi4yNDIyIj5DaGlsZEJhbGFuY2VMb2dMaXN0UGFuZWw8L3RleHQ+PGxpbmUgc3R5bGU9InN0cm9rZTojMTgxODE4O3N0cm9rZS13aWR0aDowLjU7IiB4MT0iNDI0MSIgeDI9IjQ1OTEiIHkxPSIxMzYuNSIgeTI9IjEzNi41Ii8+PGxpbmUgc3R5bGU9InN0cm9rZTojMTgxODE4O3N0cm9rZS13aWR0aDowLjU7IiB4MT0iNDI0MSIgeDI9IjQ1OTEiIHkxPSIxNDQuNSIgeTI9IjE0NC41Ii8+PGVsbGlwc2UgY3g9IjQyNTEiIGN5PSIxNTcuNDkyMiIgZmlsbD0iIzg0QkU4NCIgcng9IjMiIHJ5PSIzIiBzdHlsZT0ic3Ryb2tlOiMwMzgwNDg7c3Ryb2tlLXdpZHRoOjEuMDsiLz48dGV4dCBmaWxsPSIjMDAwMDAwIiBmb250LWZhbWlseT0ic2Fucy1zZXJpZiIgZm9udC1zaXplPSIxNCIgbGVuZ3RoQWRqdXN0PSJzcGFjaW5nIiB0ZXh0TGVuZ3RoPSIyNjgiIHg9IjQyNjAiIHk9IjE2MS43MzQ0Ij5DaGlsZEJhbGFuY2VMb2dMaXN0UGFuZWwoY2hpbGQ6IENoaWxkKTwvdGV4dD48cmVjdCBmaWxsPSIjRjI0RDVDIiBoZWlnaHQ9IjYiIHN0eWxlPSJzdHJva2U6I0M4MjkzMDtzdHJva2Utd2lkdGg6MS4wOyIgd2lkdGg9IjYiIHg9IjQyNDgiIHk9IjE2OS40NzY2Ii8+PHRleHQgZmlsbD0iIzAwMDAwMCIgZm9udC1mYW1pbHk9InNhbnMtc2VyaWYiIGZvbnQtc2l6ZT0iMTQiIGxlbmd0aEFkanVzdD0ic3BhY2luZyIgdGV4dExlbmd0aD0iMzI2IiB4PSI0MjYwIiB5PSIxNzYuNzE4OCI+aXNDZWxsRWRpdGFibGUocm93OiBpbnQsIGNvbHVtbjogaW50KTogYm9vbGVhbjwvdGV4dD48L2c+PCEtLWNsYXNzIENoaWxkTWVudVVJLS0+PGcgaWQ9ImVsZW1fQ2hpbGRNZW51VUkiPjxyZWN0IGNvZGVMaW5lPSI4MyIgZmlsbD0iI0YxRjFGMSIgaGVpZ2h0PSI3Ny45Njg4IiBpZD0iQ2hpbGRNZW51VUkiIHJ4PSIyLjUiIHJ5PSIyLjUiIHN0eWxlPSJzdHJva2U6IzE4MTgxODtzdHJva2Utd2lkdGg6MC41OyIgd2lkdGg9IjI4OCIgeD0iMzIyOSIgeT0iMTA0LjUiLz48ZWxsaXBzZSBjeD0iMzMzMC4yNSIgY3k9IjEyMC41IiBmaWxsPSIjQUREMUIyIiByeD0iMTEiIHJ5PSIxMSIgc3R5bGU9InN0cm9rZTojMTgxODE4O3N0cm9rZS13aWR0aDoxLjA7Ii8+PHBhdGggZD0iTTMzMjcuODc1LDEyNC43NSBMMzMyNy44NzUsMTI2LjUgTDMzMzIuODEyNSwxMjYuNSBMMzMzMi44MTI1LDEyNC43NSBMMzMyNy44NzUsMTI0Ljc1IFogTTMzMjguNTYyNSwxMjUuNDM3NSBRMzMyOC41NjI1LDEyNS40Mzc1IDMzMjguNTYyNSwxMTYuMjUgTDMzMjYuODEyNSwxMTYuMjUgUTMzMjYuODEyNSwxMTYuMjUgMzMyNi44MTI1LDEyNS40Mzc1IEwzMzI4LjU2MjUsMTI1LjQzNzUgWiBNMzMzMi4xMjUsMTI1LjQzNzUgTDMzMzMuODc1LDEyNS40Mzc1IFEzMzMzLjg3NSwxMjUuNDM3NSAzMzMzLjg3NSwxMjIuNjI1IEwzMzMyLjEyNSwxMjIuNjI1IFEzMzMyLjEyNSwxMjIuNjI1IDMzMzIuMTI1LDEyNS40Mzc1IFogTTMzMzIuMTI1LDExNi4yNSBRMzMzMi4xMjUsMTE2LjI1IDMzMzIuMTI1LDExOS4wNjI1IEwzMzMzLjg3NSwxMTkuMDYyNSBRMzMzMy44NzUsMTE5LjA2MjUgMzMzMy44NzUsMTE2LjI1IEwzMzMyLjEyNSwxMTYuMjUgWiBNMzMyNy44NzUsMTE2LjkzNzUgTDMzMzIuODEyNSwxMTYuOTM3NSBMMzMzMi44MTI1LDExNS4xODc1IEwzMzI3Ljg3NSwxMTUuMTg3NSBMMzMyNy44NzUsMTE2LjkzNzUgWiAiIGZpbGw9IiMwMDAwMDAiLz48dGV4dCBmaWxsPSIjMDAwMDAwIiBmb250LWZhbWlseT0ic2Fucy1zZXJpZiIgZm9udC1zaXplPSIxNCIgbGVuZ3RoQWRqdXN0PSJzcGFjaW5nIiB0ZXh0TGVuZ3RoPSI3NyIgeD0iMzM1MC43NSIgeT0iMTI2LjI0MjIiPkNoaWxkTWVudVVJPC90ZXh0PjxsaW5lIHN0eWxlPSJzdHJva2U6IzE4MTgxODtzdHJva2Utd2lkdGg6MC41OyIgeDE9IjMyMzAiIHgyPSIzNTE2IiB5MT0iMTM2LjUiIHkyPSIxMzYuNSIvPjxsaW5lIHN0eWxlPSJzdHJva2U6IzE4MTgxODtzdHJva2Utd2lkdGg6MC41OyIgeDE9IjMyMzAiIHgyPSIzNTE2IiB5MT0iMTQ0LjUiIHkyPSIxNDQuNSIvPjxlbGxpcHNlIGN4PSIzMjQwIiBjeT0iMTU3LjQ5MjIiIGZpbGw9IiM4NEJFODQiIHJ4PSIzIiByeT0iMyIgc3R5bGU9InN0cm9rZTojMDM4MDQ4O3N0cm9rZS13aWR0aDoxLjA7Ii8+PHRleHQgZmlsbD0iIzAwMDAwMCIgZm9udC1mYW1pbHk9InNhbnMtc2VyaWYiIGZvbnQtc2l6ZT0iMTQiIGxlbmd0aEFkanVzdD0ic3BhY2luZyIgdGV4dExlbmd0aD0iMTc3IiB4PSIzMjQ5IiB5PSIxNjEuNzM0NCI+Q2hpbGRNZW51VUkoY2hpbGQ6IENoaWxkKTwvdGV4dD48ZWxsaXBzZSBjeD0iMzI0MCIgY3k9IjE3Mi40NzY2IiBmaWxsPSIjODRCRTg0IiByeD0iMyIgcnk9IjMiIHN0eWxlPSJzdHJva2U6IzAzODA0ODtzdHJva2Utd2lkdGg6MS4wOyIvPjx0ZXh0IGZpbGw9IiMwMDAwMDAiIGZvbnQtZmFtaWx5PSJzYW5zLXNlcmlmIiBmb250LXNpemU9IjE0IiBsZW5ndGhBZGp1c3Q9InNwYWNpbmciIHRleHRMZW5ndGg9IjI2MiIgeD0iMzI0OSIgeT0iMTc2LjcxODgiPmFjdGlvblBlcmZvcm1lZChlOiBBY3Rpb25FdmVudCk6IHZvaWQ8L3RleHQ+PC9nPjwhLS1jbGFzcyBDaGlsZFBhbmVsLS0+PGcgaWQ9ImVsZW1fQ2hpbGRQYW5lbCI+PHJlY3QgY29kZUxpbmU9Ijg4IiBmaWxsPSIjRjFGMUYxIiBoZWlnaHQ9Ijc3Ljk2ODgiIGlkPSJDaGlsZFBhbmVsIiByeD0iMi41IiByeT0iMi41IiBzdHlsZT0ic3Ryb2tlOiMxODE4MTg7c3Ryb2tlLXdpZHRoOjAuNTsiIHdpZHRoPSIyODgiIHg9IjQ2MjciIHk9IjEwNC41Ii8+PGVsbGlwc2UgY3g9IjQ3MzEuNzUiIGN5PSIxMjAuNSIgZmlsbD0iI0FERDFCMiIgcng9IjExIiByeT0iMTEiIHN0eWxlPSJzdHJva2U6IzE4MTgxODtzdHJva2Utd2lkdGg6MS4wOyIvPjxwYXRoIGQ9Ik00NzI5LjM3NSwxMjQuNzUgTDQ3MjkuMzc1LDEyNi41IEw0NzM0LjMxMjUsMTI2LjUgTDQ3MzQuMzEyNSwxMjQuNzUgTDQ3MjkuMzc1LDEyNC43NSBaIE00NzMwLjA2MjUsMTI1LjQzNzUgUTQ3MzAuMDYyNSwxMjUuNDM3NSA0NzMwLjA2MjUsMTE2LjI1IEw0NzI4LjMxMjUsMTE2LjI1IFE0NzI4LjMxMjUsMTE2LjI1IDQ3MjguMzEyNSwxMjUuNDM3NSBMNDczMC4wNjI1LDEyNS40Mzc1IFogTTQ3MzMuNjI1LDEyNS40Mzc1IEw0NzM1LjM3NSwxMjUuNDM3NSBRNDczNS4zNzUsMTI1LjQzNzUgNDczNS4zNzUsMTIyLjYyNSBMNDczMy42MjUsMTIyLjYyNSBRNDczMy42MjUsMTIyLjYyNSA0NzMzLjYyNSwxMjUuNDM3NSBaIE00NzMzLjYyNSwxMTYuMjUgUTQ3MzMuNjI1LDExNi4yNSA0NzMzLjYyNSwxMTkuMDYyNSBMNDczNS4zNzUsMTE5LjA2MjUgUTQ3MzUuMzc1LDExOS4wNjI1IDQ3MzUuMzc1LDExNi4yNSBMNDczMy42MjUsMTE2LjI1IFogTTQ3MjkuMzc1LDExNi45Mzc1IEw0NzM0LjMxMjUsMTE2LjkzNzUgTDQ3MzQuMzEyNSwxMTUuMTg3NSBMNDcyOS4zNzUsMTE1LjE4NzUgTDQ3MjkuMzc1LDExNi45Mzc1IFogIiBmaWxsPSIjMDAwMDAwIi8+PHRleHQgZmlsbD0iIzAwMDAwMCIgZm9udC1mYW1pbHk9InNhbnMtc2VyaWYiIGZvbnQtc2l6ZT0iMTQiIGxlbmd0aEFkanVzdD0ic3BhY2luZyIgdGV4dExlbmd0aD0iNzAiIHg9IjQ3NTIuMjUiIHk9IjEyNi4yNDIyIj5DaGlsZFBhbmVsPC90ZXh0PjxsaW5lIHN0eWxlPSJzdHJva2U6IzE4MTgxODtzdHJva2Utd2lkdGg6MC41OyIgeDE9IjQ2MjgiIHgyPSI0OTE0IiB5MT0iMTM2LjUiIHkyPSIxMzYuNSIvPjxsaW5lIHN0eWxlPSJzdHJva2U6IzE4MTgxODtzdHJva2Utd2lkdGg6MC41OyIgeDE9IjQ2MjgiIHgyPSI0OTE0IiB5MT0iMTQ0LjUiIHkyPSIxNDQuNSIvPjxlbGxpcHNlIGN4PSI0NjM4IiBjeT0iMTU3LjQ5MjIiIGZpbGw9IiM4NEJFODQiIHJ4PSIzIiByeT0iMyIgc3R5bGU9InN0cm9rZTojMDM4MDQ4O3N0cm9rZS13aWR0aDoxLjA7Ii8+PHRleHQgZmlsbD0iIzAwMDAwMCIgZm9udC1mYW1pbHk9InNhbnMtc2VyaWYiIGZvbnQtc2l6ZT0iMTQiIGxlbmd0aEFkanVzdD0ic3BhY2luZyIgdGV4dExlbmd0aD0iMTcwIiB4PSI0NjQ3IiB5PSIxNjEuNzM0NCI+Q2hpbGRQYW5lbChjaGlsZDogQ2hpbGQpPC90ZXh0PjxlbGxpcHNlIGN4PSI0NjM4IiBjeT0iMTcyLjQ3NjYiIGZpbGw9IiM4NEJFODQiIHJ4PSIzIiByeT0iMyIgc3R5bGU9InN0cm9rZTojMDM4MDQ4O3N0cm9rZS13aWR0aDoxLjA7Ii8+PHRleHQgZmlsbD0iIzAwMDAwMCIgZm9udC1mYW1pbHk9InNhbnMtc2VyaWYiIGZvbnQtc2l6ZT0iMTQiIGxlbmd0aEFkanVzdD0ic3BhY2luZyIgdGV4dExlbmd0aD0iMjYyIiB4PSI0NjQ3IiB5PSIxNzYuNzE4OCI+YWN0aW9uUGVyZm9ybWVkKGU6IEFjdGlvbkV2ZW50KTogdm9pZDwvdGV4dD48L2c+PCEtLWNsYXNzIENoaWxkVGFza0xpc3RQYW5lbC0tPjxnIGlkPSJlbGVtX0NoaWxkVGFza0xpc3RQYW5lbCI+PHJlY3QgY29kZUxpbmU9IjkzIiBmaWxsPSIjRjFGMUYxIiBoZWlnaHQ9Ijc3Ljk2ODgiIGlkPSJDaGlsZFRhc2tMaXN0UGFuZWwiIHJ4PSIyLjUiIHJ5PSIyLjUiIHN0eWxlPSJzdHJva2U6IzE4MTgxODtzdHJva2Utd2lkdGg6MC41OyIgd2lkdGg9IjI4OCIgeD0iNDk1MCIgeT0iMTA0LjUiLz48ZWxsaXBzZSBjeD0iNTAyNi43NSIgY3k9IjEyMC41IiBmaWxsPSIjQUREMUIyIiByeD0iMTEiIHJ5PSIxMSIgc3R5bGU9InN0cm9rZTojMTgxODE4O3N0cm9rZS13aWR0aDoxLjA7Ii8+PHBhdGggZD0iTTUwMjQuMzc1LDEyNC43NSBMNTAyNC4zNzUsMTI2LjUgTDUwMjkuMzEyNSwxMjYuNSBMNTAyOS4zMTI1LDEyNC43NSBMNTAyNC4zNzUsMTI0Ljc1IFogTTUwMjUuMDYyNSwxMjUuNDM3NSBRNTAyNS4wNjI1LDEyNS40Mzc1IDUwMjUuMDYyNSwxMTYuMjUgTDUwMjMuMzEyNSwxMTYuMjUgUTUwMjMuMzEyNSwxMTYuMjUgNTAyMy4zMTI1LDEyNS40Mzc1IEw1MDI1LjA2MjUsMTI1LjQzNzUgWiBNNTAyOC42MjUsMTI1LjQzNzUgTDUwMzAuMzc1LDEyNS40Mzc1IFE1MDMwLjM3NSwxMjUuNDM3NSA1MDMwLjM3NSwxMjIuNjI1IEw1MDI4LjYyNSwxMjIuNjI1IFE1MDI4LjYyNSwxMjIuNjI1IDUwMjguNjI1LDEyNS40Mzc1IFogTTUwMjguNjI1LDExNi4yNSBRNTAyOC42MjUsMTE2LjI1IDUwMjguNjI1LDExOS4wNjI1IEw1MDMwLjM3NSwxMTkuMDYyNSBRNTAzMC4zNzUsMTE5LjA2MjUgNTAzMC4zNzUsMTE2LjI1IEw1MDI4LjYyNSwxMTYuMjUgWiBNNTAyNC4zNzUsMTE2LjkzNzUgTDUwMjkuMzEyNSwxMTYuOTM3NSBMNTAyOS4zMTI1LDExNS4xODc1IEw1MDI0LjM3NSwxMTUuMTg3NSBMNTAyNC4zNzUsMTE2LjkzNzUgWiAiIGZpbGw9IiMwMDAwMDAiLz48dGV4dCBmaWxsPSIjMDAwMDAwIiBmb250LWZhbWlseT0ic2Fucy1zZXJpZiIgZm9udC1zaXplPSIxNCIgbGVuZ3RoQWRqdXN0PSJzcGFjaW5nIiB0ZXh0TGVuZ3RoPSIxMjYiIHg9IjUwNDcuMjUiIHk9IjEyNi4yNDIyIj5DaGlsZFRhc2tMaXN0UGFuZWw8L3RleHQ+PGxpbmUgc3R5bGU9InN0cm9rZTojMTgxODE4O3N0cm9rZS13aWR0aDowLjU7IiB4MT0iNDk1MSIgeDI9IjUyMzciIHkxPSIxMzYuNSIgeTI9IjEzNi41Ii8+PGxpbmUgc3R5bGU9InN0cm9rZTojMTgxODE4O3N0cm9rZS13aWR0aDowLjU7IiB4MT0iNDk1MSIgeDI9IjUyMzciIHkxPSIxNDQuNSIgeTI9IjE0NC41Ii8+PGVsbGlwc2UgY3g9IjQ5NjEiIGN5PSIxNTcuNDkyMiIgZmlsbD0iIzg0QkU4NCIgcng9IjMiIHJ5PSIzIiBzdHlsZT0ic3Ryb2tlOiMwMzgwNDg7c3Ryb2tlLXdpZHRoOjEuMDsiLz48dGV4dCBmaWxsPSIjMDAwMDAwIiBmb250LWZhbWlseT0ic2Fucy1zZXJpZiIgZm9udC1zaXplPSIxNCIgbGVuZ3RoQWRqdXN0PSJzcGFjaW5nIiB0ZXh0TGVuZ3RoPSIyMjYiIHg9IjQ5NzAiIHk9IjE2MS43MzQ0Ij5DaGlsZFRhc2tMaXN0UGFuZWwoY2hpbGQ6IENoaWxkKTwvdGV4dD48ZWxsaXBzZSBjeD0iNDk2MSIgY3k9IjE3Mi40NzY2IiBmaWxsPSIjODRCRTg0IiByeD0iMyIgcnk9IjMiIHN0eWxlPSJzdHJva2U6IzAzODA0ODtzdHJva2Utd2lkdGg6MS4wOyIvPjx0ZXh0IGZpbGw9IiMwMDAwMDAiIGZvbnQtZmFtaWx5PSJzYW5zLXNlcmlmIiBmb250LXNpemU9IjE0IiBsZW5ndGhBZGp1c3Q9InNwYWNpbmciIHRleHRMZW5ndGg9IjI2MiIgeD0iNDk3MCIgeT0iMTc2LjcxODgiPmFjdGlvblBlcmZvcm1lZChlOiBBY3Rpb25FdmVudCk6IHZvaWQ8L3RleHQ+PC9nPjwhLS1jbGFzcyBDaGlsZFRhc2tXb3JrTG9nTGlzdFBhbmVsLS0+PGcgaWQ9ImVsZW1fQ2hpbGRUYXNrV29ya0xvZ0xpc3RQYW5lbCI+PHJlY3QgY29kZUxpbmU9Ijk4IiBmaWxsPSIjRjFGMUYxIiBoZWlnaHQ9Ijc3Ljk2ODgiIGlkPSJDaGlsZFRhc2tXb3JrTG9nTGlzdFBhbmVsIiByeD0iMi41IiByeT0iMi41IiBzdHlsZT0ic3Ryb2tlOiMxODE4MTg7c3Ryb2tlLXdpZHRoOjAuNTsiIHdpZHRoPSIzMDEiIHg9IjUyNzMuNSIgeT0iMTA0LjUiLz48ZWxsaXBzZSBjeD0iNTMzMi4yNSIgY3k9IjEyMC41IiBmaWxsPSIjQUREMUIyIiByeD0iMTEiIHJ5PSIxMSIgc3R5bGU9InN0cm9rZTojMTgxODE4O3N0cm9rZS13aWR0aDoxLjA7Ii8+PHBhdGggZD0iTTUzMjkuODc1LDEyNC43NSBMNTMyOS44NzUsMTI2LjUgTDUzMzQuODEyNSwxMjYuNSBMNTMzNC44MTI1LDEyNC43NSBMNTMyOS44NzUsMTI0Ljc1IFogTTUzMzAuNTYyNSwxMjUuNDM3NSBRNTMzMC41NjI1LDEyNS40Mzc1IDUzMzAuNTYyNSwxMTYuMjUgTDUzMjguODEyNSwxMTYuMjUgUTUzMjguODEyNSwxMTYuMjUgNTMyOC44MTI1LDEyNS40Mzc1IEw1MzMwLjU2MjUsMTI1LjQzNzUgWiBNNTMzNC4xMjUsMTI1LjQzNzUgTDUzMzUuODc1LDEyNS40Mzc1IFE1MzM1Ljg3NSwxMjUuNDM3NSA1MzM1Ljg3NSwxMjIuNjI1IEw1MzM0LjEyNSwxMjIuNjI1IFE1MzM0LjEyNSwxMjIuNjI1IDUzMzQuMTI1LDEyNS40Mzc1IFogTTUzMzQuMTI1LDExNi4yNSBRNTMzNC4xMjUsMTE2LjI1IDUzMzQuMTI1LDExOS4wNjI1IEw1MzM1Ljg3NSwxMTkuMDYyNSBRNTMzNS44NzUsMTE5LjA2MjUgNTMzNS44NzUsMTE2LjI1IEw1MzM0LjEyNSwxMTYuMjUgWiBNNTMyOS44NzUsMTE2LjkzNzUgTDUzMzQuODEyNSwxMTYuOTM3NSBMNTMzNC44MTI1LDExNS4xODc1IEw1MzI5Ljg3NSwxMTUuMTg3NSBMNTMyOS44NzUsMTE2LjkzNzUgWiAiIGZpbGw9IiMwMDAwMDAiLz48dGV4dCBmaWxsPSIjMDAwMDAwIiBmb250LWZhbWlseT0ic2Fucy1zZXJpZiIgZm9udC1zaXplPSIxNCIgbGVuZ3RoQWRqdXN0PSJzcGFjaW5nIiB0ZXh0TGVuZ3RoPSIxNzUiIHg9IjUzNTIuNzUiIHk9IjEyNi4yNDIyIj5DaGlsZFRhc2tXb3JrTG9nTGlzdFBhbmVsPC90ZXh0PjxsaW5lIHN0eWxlPSJzdHJva2U6IzE4MTgxODtzdHJva2Utd2lkdGg6MC41OyIgeDE9IjUyNzQuNSIgeDI9IjU1NzMuNSIgeTE9IjEzNi41IiB5Mj0iMTM2LjUiLz48bGluZSBzdHlsZT0ic3Ryb2tlOiMxODE4MTg7c3Ryb2tlLXdpZHRoOjAuNTsiIHgxPSI1Mjc0LjUiIHgyPSI1NTczLjUiIHkxPSIxNDQuNSIgeTI9IjE0NC41Ii8+PGVsbGlwc2UgY3g9IjUyODQuNSIgY3k9IjE1Ny40OTIyIiBmaWxsPSIjODRCRTg0IiByeD0iMyIgcnk9IjMiIHN0eWxlPSJzdHJva2U6IzAzODA0ODtzdHJva2Utd2lkdGg6MS4wOyIvPjx0ZXh0IGZpbGw9IiMwMDAwMDAiIGZvbnQtZmFtaWx5PSJzYW5zLXNlcmlmIiBmb250LXNpemU9IjE0IiBsZW5ndGhBZGp1c3Q9InNwYWNpbmciIHRleHRMZW5ndGg9IjI3NSIgeD0iNTI5My41IiB5PSIxNjEuNzM0NCI+Q2hpbGRUYXNrV29ya0xvZ0xpc3RQYW5lbChjaGlsZDogQ2hpbGQpPC90ZXh0PjxlbGxpcHNlIGN4PSI1Mjg0LjUiIGN5PSIxNzIuNDc2NiIgZmlsbD0iIzg0QkU4NCIgcng9IjMiIHJ5PSIzIiBzdHlsZT0ic3Ryb2tlOiMwMzgwNDg7c3Ryb2tlLXdpZHRoOjEuMDsiLz48dGV4dCBmaWxsPSIjMDAwMDAwIiBmb250LWZhbWlseT0ic2Fucy1zZXJpZiIgZm9udC1zaXplPSIxNCIgbGVuZ3RoQWRqdXN0PSJzcGFjaW5nIiB0ZXh0TGVuZ3RoPSIyNjIiIHg9IjUyOTMuNSIgeT0iMTc2LjcxODgiPmFjdGlvblBlcmZvcm1lZChlOiBBY3Rpb25FdmVudCk6IHZvaWQ8L3RleHQ+PC9nPjwhLS1jbGFzcyBDaGlsZExpc3RQYW5lbC0tPjxnIGlkPSJlbGVtX0NoaWxkTGlzdFBhbmVsIj48cmVjdCBjb2RlTGluZT0iMTAzIiBmaWxsPSIjRjFGMUYxIiBoZWlnaHQ9Ijc3Ljk2ODgiIGlkPSJDaGlsZExpc3RQYW5lbCIgcng9IjIuNSIgcnk9IjIuNSIgc3R5bGU9InN0cm9rZTojMTgxODE4O3N0cm9rZS13aWR0aDowLjU7IiB3aWR0aD0iMjMyIiB4PSI1NjEwIiB5PSIxMDQuNSIvPjxlbGxpcHNlIGN4PSI1NjcyLjc1IiBjeT0iMTIwLjUiIGZpbGw9IiNBREQxQjIiIHJ4PSIxMSIgcnk9IjExIiBzdHlsZT0ic3Ryb2tlOiMxODE4MTg7c3Ryb2tlLXdpZHRoOjEuMDsiLz48cGF0aCBkPSJNNTY3MC4zNzUsMTI0Ljc1IEw1NjcwLjM3NSwxMjYuNSBMNTY3NS4zMTI1LDEyNi41IEw1Njc1LjMxMjUsMTI0Ljc1IEw1NjcwLjM3NSwxMjQuNzUgWiBNNTY3MS4wNjI1LDEyNS40Mzc1IFE1NjcxLjA2MjUsMTI1LjQzNzUgNTY3MS4wNjI1LDExNi4yNSBMNTY2OS4zMTI1LDExNi4yNSBRNTY2OS4zMTI1LDExNi4yNSA1NjY5LjMxMjUsMTI1LjQzNzUgTDU2NzEuMDYyNSwxMjUuNDM3NSBaIE01Njc0LjYyNSwxMjUuNDM3NSBMNTY3Ni4zNzUsMTI1LjQzNzUgUTU2NzYuMzc1LDEyNS40Mzc1IDU2NzYuMzc1LDEyMi42MjUgTDU2NzQuNjI1LDEyMi42MjUgUTU2NzQuNjI1LDEyMi42MjUgNTY3NC42MjUsMTI1LjQzNzUgWiBNNTY3NC42MjUsMTE2LjI1IFE1Njc0LjYyNSwxMTYuMjUgNTY3NC42MjUsMTE5LjA2MjUgTDU2NzYuMzc1LDExOS4wNjI1IFE1Njc2LjM3NSwxMTkuMDYyNSA1Njc2LjM3NSwxMTYuMjUgTDU2NzQuNjI1LDExNi4yNSBaIE01NjcwLjM3NSwxMTYuOTM3NSBMNTY3NS4zMTI1LDExNi45Mzc1IEw1Njc1LjMxMjUsMTE1LjE4NzUgTDU2NzAuMzc1LDExNS4xODc1IEw1NjcwLjM3NSwxMTYuOTM3NSBaICIgZmlsbD0iIzAwMDAwMCIvPjx0ZXh0IGZpbGw9IiMwMDAwMDAiIGZvbnQtZmFtaWx5PSJzYW5zLXNlcmlmIiBmb250LXNpemU9IjE0IiBsZW5ndGhBZGp1c3Q9InNwYWNpbmciIHRleHRMZW5ndGg9Ijk4IiB4PSI1NjkzLjI1IiB5PSIxMjYuMjQyMiI+Q2hpbGRMaXN0UGFuZWw8L3RleHQ+PGxpbmUgc3R5bGU9InN0cm9rZTojMTgxODE4O3N0cm9rZS13aWR0aDowLjU7IiB4MT0iNTYxMSIgeDI9IjU4NDEiIHkxPSIxMzYuNSIgeTI9IjEzNi41Ii8+PGxpbmUgc3R5bGU9InN0cm9rZTojMTgxODE4O3N0cm9rZS13aWR0aDowLjU7IiB4MT0iNTYxMSIgeDI9IjU4NDEiIHkxPSIxNDQuNSIgeTI9IjE0NC41Ii8+PGVsbGlwc2UgY3g9IjU2MjEiIGN5PSIxNTcuNDkyMiIgZmlsbD0iIzg0QkU4NCIgcng9IjMiIHJ5PSIzIiBzdHlsZT0ic3Ryb2tlOiMwMzgwNDg7c3Ryb2tlLXdpZHRoOjEuMDsiLz48dGV4dCBmaWxsPSIjMDAwMDAwIiBmb250LWZhbWlseT0ic2Fucy1zZXJpZiIgZm9udC1zaXplPSIxNCIgbGVuZ3RoQWRqdXN0PSJzcGFjaW5nIiB0ZXh0TGVuZ3RoPSIxMTQiIHg9IjU2MzAiIHk9IjE2MS43MzQ0Ij5DaGlsZExpc3RQYW5lbCgpPC90ZXh0PjxlbGxpcHNlIGN4PSI1NjIxIiBjeT0iMTcyLjQ3NjYiIGZpbGw9IiM4NEJFODQiIHJ4PSIzIiByeT0iMyIgc3R5bGU9InN0cm9rZTojMDM4MDQ4O3N0cm9rZS13aWR0aDoxLjA7Ii8+PHRleHQgZmlsbD0iIzAwMDAwMCIgZm9udC1mYW1pbHk9InNhbnMtc2VyaWYiIGZvbnQtc2l6ZT0iMTQiIGxlbmd0aEFkanVzdD0ic3BhY2luZyIgdGV4dExlbmd0aD0iMjA2IiB4PSI1NjMwIiB5PSIxNzYuNzE4OCI+QnV0dG9ucyhjaGlsZDogQ2hpbGQpOiBKUGFuZWw8L3RleHQ+PC9nPjwhLS1jbGFzcyBMb2dpbkdVSS0tPjxnIGlkPSJlbGVtX0xvZ2luR1VJIj48cmVjdCBjb2RlTGluZT0iMTA4IiBmaWxsPSIjRjFGMUYxIiBoZWlnaHQ9Ijc3Ljk2ODgiIGlkPSJMb2dpbkdVSSIgcng9IjIuNSIgcnk9IjIuNSIgc3R5bGU9InN0cm9rZTojMTgxODE4O3N0cm9rZS13aWR0aDowLjU7IiB3aWR0aD0iNDM2IiB4PSIzNTUyIiB5PSIxMDQuNSIvPjxlbGxpcHNlIGN4PSIzNzM3Ljc1IiBjeT0iMTIwLjUiIGZpbGw9IiNBREQxQjIiIHJ4PSIxMSIgcnk9IjExIiBzdHlsZT0ic3Ryb2tlOiMxODE4MTg7c3Ryb2tlLXdpZHRoOjEuMDsiLz48cGF0aCBkPSJNMzczNS4zNzUsMTI0Ljc1IEwzNzM1LjM3NSwxMjYuNSBMMzc0MC4zMTI1LDEyNi41IEwzNzQwLjMxMjUsMTI0Ljc1IEwzNzM1LjM3NSwxMjQuNzUgWiBNMzczNi4wNjI1LDEyNS40Mzc1IFEzNzM2LjA2MjUsMTI1LjQzNzUgMzczNi4wNjI1LDExNi4yNSBMMzczNC4zMTI1LDExNi4yNSBRMzczNC4zMTI1LDExNi4yNSAzNzM0LjMxMjUsMTI1LjQzNzUgTDM3MzYuMDYyNSwxMjUuNDM3NSBaIE0zNzM5LjYyNSwxMjUuNDM3NSBMMzc0MS4zNzUsMTI1LjQzNzUgUTM3NDEuMzc1LDEyNS40Mzc1IDM3NDEuMzc1LDEyMi42MjUgTDM3MzkuNjI1LDEyMi42MjUgUTM3MzkuNjI1LDEyMi42MjUgMzczOS42MjUsMTI1LjQzNzUgWiBNMzczOS42MjUsMTE2LjI1IFEzNzM5LjYyNSwxMTYuMjUgMzczOS42MjUsMTE5LjA2MjUgTDM3NDEuMzc1LDExOS4wNjI1IFEzNzQxLjM3NSwxMTkuMDYyNSAzNzQxLjM3NSwxMTYuMjUgTDM3MzkuNjI1LDExNi4yNSBaIE0zNzM1LjM3NSwxMTYuOTM3NSBMMzc0MC4zMTI1LDExNi45Mzc1IEwzNzQwLjMxMjUsMTE1LjE4NzUgTDM3MzUuMzc1LDExNS4xODc1IEwzNzM1LjM3NSwxMTYuOTM3NSBaICIgZmlsbD0iIzAwMDAwMCIvPjx0ZXh0IGZpbGw9IiMwMDAwMDAiIGZvbnQtZmFtaWx5PSJzYW5zLXNlcmlmIiBmb250LXNpemU9IjE0IiBsZW5ndGhBZGp1c3Q9InNwYWNpbmciIHRleHRMZW5ndGg9IjU2IiB4PSIzNzU4LjI1IiB5PSIxMjYuMjQyMiI+TG9naW5HVUk8L3RleHQ+PGxpbmUgc3R5bGU9InN0cm9rZTojMTgxODE4O3N0cm9rZS13aWR0aDowLjU7IiB4MT0iMzU1MyIgeDI9IjM5ODciIHkxPSIxMzYuNSIgeTI9IjEzNi41Ii8+PGxpbmUgc3R5bGU9InN0cm9rZTojMTgxODE4O3N0cm9rZS13aWR0aDowLjU7IiB4MT0iMzU1MyIgeDI9IjM5ODciIHkxPSIxNDQuNSIgeTI9IjE0NC41Ii8+PGVsbGlwc2UgY3g9IjM1NjMiIGN5PSIxNTcuNDkyMiIgZmlsbD0iIzg0QkU4NCIgcng9IjMiIHJ5PSIzIiBzdHlsZT0ic3Ryb2tlOiMwMzgwNDg7c3Ryb2tlLXdpZHRoOjEuMDsiLz48dGV4dCBmaWxsPSIjMDAwMDAwIiBmb250LWZhbWlseT0ic2Fucy1zZXJpZiIgZm9udC1zaXplPSIxNCIgbGVuZ3RoQWRqdXN0PSJzcGFjaW5nIiB0ZXh0TGVuZ3RoPSI3MiIgeD0iMzU3MiIgeT0iMTYxLjczNDQiPkxvZ2luR1VJKCk8L3RleHQ+PHJlY3QgZmlsbD0iI0YyNEQ1QyIgaGVpZ2h0PSI2IiBzdHlsZT0ic3Ryb2tlOiNDODI5MzA7c3Ryb2tlLXdpZHRoOjEuMDsiIHdpZHRoPSI2IiB4PSIzNTYwIiB5PSIxNjkuNDc2NiIvPjx0ZXh0IGZpbGw9IiMwMDAwMDAiIGZvbnQtZmFtaWx5PSJzYW5zLXNlcmlmIiBmb250LXNpemU9IjE0IiBsZW5ndGhBZGp1c3Q9InNwYWNpbmciIHRleHRMZW5ndGg9IjQxMCIgeD0iMzU3MiIgeT0iMTc2LjcxODgiPnZhbGlkYXRlTG9naW4odXNlcm5hbWU6IFN0cmluZywgcGFzc3dvcmQ6IFN0cmluZyk6IGJvb2xlYW48L3RleHQ+PC9nPjwhLS1jbGFzcyBNZW51VUktLT48ZyBpZD0iZWxlbV9NZW51VUkiPjxyZWN0IGNvZGVMaW5lPSIxMTMiIGZpbGw9IiNGMUYxRjEiIGhlaWdodD0iNjIuOTg0NCIgaWQ9Ik1lbnVVSSIgcng9IjIuNSIgcnk9IjIuNSIgc3R5bGU9InN0cm9rZTojMTgxODE4O3N0cm9rZS13aWR0aDowLjU7IiB3aWR0aD0iMTgyIiB4PSI0MDIzIiB5PSIxMTIiLz48ZWxsaXBzZSBjeD0iNDA4OC43NSIgY3k9IjEyOCIgZmlsbD0iI0FERDFCMiIgcng9IjExIiByeT0iMTEiIHN0eWxlPSJzdHJva2U6IzE4MTgxODtzdHJva2Utd2lkdGg6MS4wOyIvPjxwYXRoIGQ9Ik00MDg2LjM3NSwxMzIuMjUgTDQwODYuMzc1LDEzNCBMNDA5MS4zMTI1LDEzNCBMNDA5MS4zMTI1LDEzMi4yNSBMNDA4Ni4zNzUsMTMyLjI1IFogTTQwODcuMDYyNSwxMzIuOTM3NSBRNDA4Ny4wNjI1LDEzMi45Mzc1IDQwODcuMDYyNSwxMjMuNzUgTDQwODUuMzEyNSwxMjMuNzUgUTQwODUuMzEyNSwxMjMuNzUgNDA4NS4zMTI1LDEzMi45Mzc1IEw0MDg3LjA2MjUsMTMyLjkzNzUgWiBNNDA5MC42MjUsMTMyLjkzNzUgTDQwOTIuMzc1LDEzMi45Mzc1IFE0MDkyLjM3NSwxMzIuOTM3NSA0MDkyLjM3NSwxMzAuMTI1IEw0MDkwLjYyNSwxMzAuMTI1IFE0MDkwLjYyNSwxMzAuMTI1IDQwOTAuNjI1LDEzMi45Mzc1IFogTTQwOTAuNjI1LDEyMy43NSBRNDA5MC42MjUsMTIzLjc1IDQwOTAuNjI1LDEyNi41NjI1IEw0MDkyLjM3NSwxMjYuNTYyNSBRNDA5Mi4zNzUsMTI2LjU2MjUgNDA5Mi4zNzUsMTIzLjc1IEw0MDkwLjYyNSwxMjMuNzUgWiBNNDA4Ni4zNzUsMTI0LjQzNzUgTDQwOTEuMzEyNSwxMjQuNDM3NSBMNDA5MS4zMTI1LDEyMi42ODc1IEw0MDg2LjM3NSwxMjIuNjg3NSBMNDA4Ni4zNzUsMTI0LjQzNzUgWiAiIGZpbGw9IiMwMDAwMDAiLz48dGV4dCBmaWxsPSIjMDAwMDAwIiBmb250LWZhbWlseT0ic2Fucy1zZXJpZiIgZm9udC1zaXplPSIxNCIgbGVuZ3RoQWRqdXN0PSJzcGFjaW5nIiB0ZXh0TGVuZ3RoPSI0MiIgeD0iNDEwOS4yNSIgeT0iMTMzLjc0MjIiPk1lbnVVSTwvdGV4dD48bGluZSBzdHlsZT0ic3Ryb2tlOiMxODE4MTg7c3Ryb2tlLXdpZHRoOjAuNTsiIHgxPSI0MDI0IiB4Mj0iNDIwNCIgeTE9IjE0NCIgeTI9IjE0NCIvPjxsaW5lIHN0eWxlPSJzdHJva2U6IzE4MTgxODtzdHJva2Utd2lkdGg6MC41OyIgeDE9IjQwMjQiIHgyPSI0MjA0IiB5MT0iMTUyIiB5Mj0iMTUyIi8+PGVsbGlwc2UgY3g9IjQwMzQiIGN5PSIxNjQuOTkyMiIgZmlsbD0iIzg0QkU4NCIgcng9IjMiIHJ5PSIzIiBzdHlsZT0ic3Ryb2tlOiMwMzgwNDg7c3Ryb2tlLXdpZHRoOjEuMDsiLz48dGV4dCBmaWxsPSIjMDAwMDAwIiBmb250LWZhbWlseT0ic2Fucy1zZXJpZiIgZm9udC1zaXplPSIxNCIgbGVuZ3RoQWRqdXN0PSJzcGFjaW5nIiB0ZXh0TGVuZ3RoPSIxNTYiIHg9IjQwNDMiIHk9IjE2OS4yMzQ0Ij5NZW51VUkocGFyZW50OiBQYXJlbnQpPC90ZXh0PjwvZz48IS0tY2xhc3MgVGFza0lucHV0UGFuZWwtLT48ZyBpZD0iZWxlbV9UYXNrSW5wdXRQYW5lbCI+PHJlY3QgY29kZUxpbmU9IjExNyIgZmlsbD0iI0YxRjFGMSIgaGVpZ2h0PSI2Mi45ODQ0IiBpZD0iVGFza0lucHV0UGFuZWwiIHJ4PSIyLjUiIHJ5PSIyLjUiIHN0eWxlPSJzdHJva2U6IzE4MTgxODtzdHJva2Utd2lkdGg6MC41OyIgd2lkdGg9IjIzOCIgeD0iNTg3NyIgeT0iMTEyIi8+PGVsbGlwc2UgY3g9IjU5NDIuNzUiIGN5PSIxMjgiIGZpbGw9IiNBREQxQjIiIHJ4PSIxMSIgcnk9IjExIiBzdHlsZT0ic3Ryb2tlOiMxODE4MTg7c3Ryb2tlLXdpZHRoOjEuMDsiLz48cGF0aCBkPSJNNTk0MC4zNzUsMTMyLjI1IEw1OTQwLjM3NSwxMzQgTDU5NDUuMzEyNSwxMzQgTDU5NDUuMzEyNSwxMzIuMjUgTDU5NDAuMzc1LDEzMi4yNSBaIE01OTQxLjA2MjUsMTMyLjkzNzUgUTU5NDEuMDYyNSwxMzIuOTM3NSA1OTQxLjA2MjUsMTIzLjc1IEw1OTM5LjMxMjUsMTIzLjc1IFE1OTM5LjMxMjUsMTIzLjc1IDU5MzkuMzEyNSwxMzIuOTM3NSBMNTk0MS4wNjI1LDEzMi45Mzc1IFogTTU5NDQuNjI1LDEzMi45Mzc1IEw1OTQ2LjM3NSwxMzIuOTM3NSBRNTk0Ni4zNzUsMTMyLjkzNzUgNTk0Ni4zNzUsMTMwLjEyNSBMNTk0NC42MjUsMTMwLjEyNSBRNTk0NC42MjUsMTMwLjEyNSA1OTQ0LjYyNSwxMzIuOTM3NSBaIE01OTQ0LjYyNSwxMjMuNzUgUTU5NDQuNjI1LDEyMy43NSA1OTQ0LjYyNSwxMjYuNTYyNSBMNTk0Ni4zNzUsMTI2LjU2MjUgUTU5NDYuMzc1LDEyNi41NjI1IDU5NDYuMzc1LDEyMy43NSBMNTk0NC42MjUsMTIzLjc1IFogTTU5NDAuMzc1LDEyNC40Mzc1IEw1OTQ1LjMxMjUsMTI0LjQzNzUgTDU5NDUuMzEyNSwxMjIuNjg3NSBMNTk0MC4zNzUsMTIyLjY4NzUgTDU5NDAuMzc1LDEyNC40Mzc1IFogIiBmaWxsPSIjMDAwMDAwIi8+PHRleHQgZmlsbD0iIzAwMDAwMCIgZm9udC1mYW1pbHk9InNhbnMtc2VyaWYiIGZvbnQtc2l6ZT0iMTQiIGxlbmd0aEFkanVzdD0ic3BhY2luZyIgdGV4dExlbmd0aD0iOTgiIHg9IjU5NjMuMjUiIHk9IjEzMy43NDIyIj5UYXNrSW5wdXRQYW5lbDwvdGV4dD48bGluZSBzdHlsZT0ic3Ryb2tlOiMxODE4MTg7c3Ryb2tlLXdpZHRoOjAuNTsiIHgxPSI1ODc4IiB4Mj0iNjExNCIgeTE9IjE0NCIgeTI9IjE0NCIvPjxsaW5lIHN0eWxlPSJzdHJva2U6IzE4MTgxODtzdHJva2Utd2lkdGg6MC41OyIgeDE9IjU4NzgiIHgyPSI2MTE0IiB5MT0iMTUyIiB5Mj0iMTUyIi8+PGVsbGlwc2UgY3g9IjU4ODgiIGN5PSIxNjQuOTkyMiIgZmlsbD0iIzg0QkU4NCIgcng9IjMiIHJ5PSIzIiBzdHlsZT0ic3Ryb2tlOiMwMzgwNDg7c3Ryb2tlLXdpZHRoOjEuMDsiLz48dGV4dCBmaWxsPSIjMDAwMDAwIiBmb250LWZhbWlseT0ic2Fucy1zZXJpZiIgZm9udC1zaXplPSIxNCIgbGVuZ3RoQWRqdXN0PSJzcGFjaW5nIiB0ZXh0TGVuZ3RoPSIyMTIiIHg9IjU4OTciIHk9IjE2OS4yMzQ0Ij5UYXNrSW5wdXRQYW5lbChwYXJlbnQ6IFBhcmVudCk8L3RleHQ+PC9nPjwhLS1jbGFzcyBUYXNrTGlzdFBhbmVsLS0+PGcgaWQ9ImVsZW1fVGFza0xpc3RQYW5lbCI+PHJlY3QgY29kZUxpbmU9IjEyMSIgZmlsbD0iI0YxRjFGMSIgaGVpZ2h0PSI2Mi45ODQ0IiBpZD0iVGFza0xpc3RQYW5lbCIgcng9IjIuNSIgcnk9IjIuNSIgc3R5bGU9InN0cm9rZTojMTgxODE4O3N0cm9rZS13aWR0aDowLjU7IiB3aWR0aD0iMjMxIiB4PSI2MTUwLjUiIHk9IjExMiIvPjxlbGxpcHNlIGN4PSI2MjE2LjI1IiBjeT0iMTI4IiBmaWxsPSIjQUREMUIyIiByeD0iMTEiIHJ5PSIxMSIgc3R5bGU9InN0cm9rZTojMTgxODE4O3N0cm9rZS13aWR0aDoxLjA7Ii8+PHBhdGggZD0iTTYyMTMuODc1LDEzMi4yNSBMNjIxMy44NzUsMTM0IEw2MjE4LjgxMjUsMTM0IEw2MjE4LjgxMjUsMTMyLjI1IEw2MjEzLjg3NSwxMzIuMjUgWiBNNjIxNC41NjI1LDEzMi45Mzc1IFE2MjE0LjU2MjUsMTMyLjkzNzUgNjIxNC41NjI1LDEyMy43NSBMNjIxMi44MTI1LDEyMy43NSBRNjIxMi44MTI1LDEyMy43NSA2MjEyLjgxMjUsMTMyLjkzNzUgTDYyMTQuNTYyNSwxMzIuOTM3NSBaIE02MjE4LjEyNSwxMzIuOTM3NSBMNjIxOS44NzUsMTMyLjkzNzUgUTYyMTkuODc1LDEzMi45Mzc1IDYyMTkuODc1LDEzMC4xMjUgTDYyMTguMTI1LDEzMC4xMjUgUTYyMTguMTI1LDEzMC4xMjUgNjIxOC4xMjUsMTMyLjkzNzUgWiBNNjIxOC4xMjUsMTIzLjc1IFE2MjE4LjEyNSwxMjMuNzUgNjIxOC4xMjUsMTI2LjU2MjUgTDYyMTkuODc1LDEyNi41NjI1IFE2MjE5Ljg3NSwxMjYuNTYyNSA2MjE5Ljg3NSwxMjMuNzUgTDYyMTguMTI1LDEyMy43NSBaIE02MjEzLjg3NSwxMjQuNDM3NSBMNjIxOC44MTI1LDEyNC40Mzc1IEw2MjE4LjgxMjUsMTIyLjY4NzUgTDYyMTMuODc1LDEyMi42ODc1IEw2MjEzLjg3NSwxMjQuNDM3NSBaICIgZmlsbD0iIzAwMDAwMCIvPjx0ZXh0IGZpbGw9IiMwMDAwMDAiIGZvbnQtZmFtaWx5PSJzYW5zLXNlcmlmIiBmb250LXNpemU9IjE0IiBsZW5ndGhBZGp1c3Q9InNwYWNpbmciIHRleHRMZW5ndGg9IjkxIiB4PSI2MjM2Ljc1IiB5PSIxMzMuNzQyMiI+VGFza0xpc3RQYW5lbDwvdGV4dD48bGluZSBzdHlsZT0ic3Ryb2tlOiMxODE4MTg7c3Ryb2tlLXdpZHRoOjAuNTsiIHgxPSI2MTUxLjUiIHgyPSI2MzgwLjUiIHkxPSIxNDQiIHkyPSIxNDQiLz48bGluZSBzdHlsZT0ic3Ryb2tlOiMxODE4MTg7c3Ryb2tlLXdpZHRoOjAuNTsiIHgxPSI2MTUxLjUiIHgyPSI2MzgwLjUiIHkxPSIxNTIiIHkyPSIxNTIiLz48ZWxsaXBzZSBjeD0iNjE2MS41IiBjeT0iMTY0Ljk5MjIiIGZpbGw9IiM4NEJFODQiIHJ4PSIzIiByeT0iMyIgc3R5bGU9InN0cm9rZTojMDM4MDQ4O3N0cm9rZS13aWR0aDoxLjA7Ii8+PHRleHQgZmlsbD0iIzAwMDAwMCIgZm9udC1mYW1pbHk9InNhbnMtc2VyaWYiIGZvbnQtc2l6ZT0iMTQiIGxlbmd0aEFkanVzdD0ic3BhY2luZyIgdGV4dExlbmd0aD0iMjA1IiB4PSI2MTcwLjUiIHk9IjE2OS4yMzQ0Ij5UYXNrTGlzdFBhbmVsKHBhcmVudDogUGFyZW50KTwvdGV4dD48L2c+PCEtLWNsYXNzIEpGcmFtZS0tPjxnIGlkPSJlbGVtX0pGcmFtZSI+PHJlY3QgZmlsbD0iI0YxRjFGMSIgaGVpZ2h0PSI0OCIgaWQ9IkpGcmFtZSIgcng9IjIuNSIgcnk9IjIuNSIgc3R5bGU9InN0cm9rZTojMTgxODE4O3N0cm9rZS13aWR0aDowLjU7IiB3aWR0aD0iNzYiIHg9IjM1MzMiIHk9IjM0MCIvPjxlbGxpcHNlIGN4PSIzNTQ4IiBjeT0iMzU2IiBmaWxsPSIjQUREMUIyIiByeD0iMTEiIHJ5PSIxMSIgc3R5bGU9InN0cm9rZTojMTgxODE4O3N0cm9rZS13aWR0aDoxLjA7Ii8+PHBhdGggZD0iTTM1NDUuNjI1LDM2MC4yNSBMMzU0NS42MjUsMzYyIEwzNTUwLjU2MjUsMzYyIEwzNTUwLjU2MjUsMzYwLjI1IEwzNTQ1LjYyNSwzNjAuMjUgWiBNMzU0Ni4zMTI1LDM2MC45Mzc1IFEzNTQ2LjMxMjUsMzYwLjkzNzUgMzU0Ni4zMTI1LDM1MS43NSBMMzU0NC41NjI1LDM1MS43NSBRMzU0NC41NjI1LDM1MS43NSAzNTQ0LjU2MjUsMzYwLjkzNzUgTDM1NDYuMzEyNSwzNjAuOTM3NSBaIE0zNTQ5Ljg3NSwzNjAuOTM3NSBMMzU1MS42MjUsMzYwLjkzNzUgUTM1NTEuNjI1LDM2MC45Mzc1IDM1NTEuNjI1LDM1OC4xMjUgTDM1NDkuODc1LDM1OC4xMjUgUTM1NDkuODc1LDM1OC4xMjUgMzU0OS44NzUsMzYwLjkzNzUgWiBNMzU0OS44NzUsMzUxLjc1IFEzNTQ5Ljg3NSwzNTEuNzUgMzU0OS44NzUsMzU0LjU2MjUgTDM1NTEuNjI1LDM1NC41NjI1IFEzNTUxLjYyNSwzNTQuNTYyNSAzNTUxLjYyNSwzNTEuNzUgTDM1NDkuODc1LDM1MS43NSBaIE0zNTQ1LjYyNSwzNTIuNDM3NSBMMzU1MC41NjI1LDM1Mi40Mzc1IEwzNTUwLjU2MjUsMzUwLjY4NzUgTDM1NDUuNjI1LDM1MC42ODc1IEwzNTQ1LjYyNSwzNTIuNDM3NSBaICIgZmlsbD0iIzAwMDAwMCIvPjx0ZXh0IGZpbGw9IiMwMDAwMDAiIGZvbnQtZmFtaWx5PSJzYW5zLXNlcmlmIiBmb250LXNpemU9IjE0IiBsZW5ndGhBZGp1c3Q9InNwYWNpbmciIHRleHRMZW5ndGg9IjQ0IiB4PSIzNTYyIiB5PSIzNjEuNzQyMiI+SkZyYW1lPC90ZXh0PjxsaW5lIHN0eWxlPSJzdHJva2U6IzE4MTgxODtzdHJva2Utd2lkdGg6MC41OyIgeDE9IjM1MzQiIHgyPSIzNjA4IiB5MT0iMzcyIiB5Mj0iMzcyIi8+PGxpbmUgc3R5bGU9InN0cm9rZTojMTgxODE4O3N0cm9rZS13aWR0aDowLjU7IiB4MT0iMzUzNCIgeDI9IjM2MDgiIHkxPSIzODAiIHkyPSIzODAiLz48L2c+PCEtLWNsYXNzIEpQYW5lbC0tPjxnIGlkPSJlbGVtX0pQYW5lbCI+PHJlY3QgZmlsbD0iI0YxRjFGMSIgaGVpZ2h0PSI0OCIgaWQ9IkpQYW5lbCIgcng9IjIuNSIgcnk9IjIuNSIgc3R5bGU9InN0cm9rZTojMTgxODE4O3N0cm9rZS13aWR0aDowLjU7IiB3aWR0aD0iNzUiIHg9IjUzODYuNSIgeT0iMzQwIi8+PGVsbGlwc2UgY3g9IjU0MDEuNSIgY3k9IjM1NiIgZmlsbD0iI0FERDFCMiIgcng9IjExIiByeT0iMTEiIHN0eWxlPSJzdHJva2U6IzE4MTgxODtzdHJva2Utd2lkdGg6MS4wOyIvPjxwYXRoIGQ9Ik01Mzk5LjEyNSwzNjAuMjUgTDUzOTkuMTI1LDM2MiBMNTQwNC4wNjI1LDM2MiBMNTQwNC4wNjI1LDM2MC4yNSBMNTM5OS4xMjUsMzYwLjI1IFogTTUzOTkuODEyNSwzNjAuOTM3NSBRNTM5OS44MTI1LDM2MC45Mzc1IDUzOTkuODEyNSwzNTEuNzUgTDUzOTguMDYyNSwzNTEuNzUgUTUzOTguMDYyNSwzNTEuNzUgNTM5OC4wNjI1LDM2MC45Mzc1IEw1Mzk5LjgxMjUsMzYwLjkzNzUgWiBNNTQwMy4zNzUsMzYwLjkzNzUgTDU0MDUuMTI1LDM2MC45Mzc1IFE1NDA1LjEyNSwzNjAuOTM3NSA1NDA1LjEyNSwzNTguMTI1IEw1NDAzLjM3NSwzNTguMTI1IFE1NDAzLjM3NSwzNTguMTI1IDU0MDMuMzc1LDM2MC45Mzc1IFogTTU0MDMuMzc1LDM1MS43NSBRNTQwMy4zNzUsMzUxLjc1IDU0MDMuMzc1LDM1NC41NjI1IEw1NDA1LjEyNSwzNTQuNTYyNSBRNTQwNS4xMjUsMzU0LjU2MjUgNTQwNS4xMjUsMzUxLjc1IEw1NDAzLjM3NSwzNTEuNzUgWiBNNTM5OS4xMjUsMzUyLjQzNzUgTDU0MDQuMDYyNSwzNTIuNDM3NSBMNTQwNC4wNjI1LDM1MC42ODc1IEw1Mzk5LjEyNSwzNTAuNjg3NSBMNTM5OS4xMjUsMzUyLjQzNzUgWiAiIGZpbGw9IiMwMDAwMDAiLz48dGV4dCBmaWxsPSIjMDAwMDAwIiBmb250LWZhbWlseT0ic2Fucy1zZXJpZiIgZm9udC1zaXplPSIxNCIgbGVuZ3RoQWRqdXN0PSJzcGFjaW5nIiB0ZXh0TGVuZ3RoPSI0MyIgeD0iNTQxNS41IiB5PSIzNjEuNzQyMiI+SlBhbmVsPC90ZXh0PjxsaW5lIHN0eWxlPSJzdHJva2U6IzE4MTgxODtzdHJva2Utd2lkdGg6MC41OyIgeDE9IjUzODcuNSIgeDI9IjU0NjAuNSIgeTE9IjM3MiIgeTI9IjM3MiIvPjxsaW5lIHN0eWxlPSJzdHJva2U6IzE4MTgxODtzdHJva2Utd2lkdGg6MC41OyIgeDE9IjUzODcuNSIgeDI9IjU0NjAuNSIgeTE9IjM4MCIgeTI9IjM4MCIvPjwvZz48IS0tY2xhc3MgT2JqZWN0LS0+PGcgaWQ9ImVsZW1fT2JqZWN0Ij48cmVjdCBmaWxsPSIjRjFGMUYxIiBoZWlnaHQ9IjQ4IiBpZD0iT2JqZWN0IiByeD0iMi41IiByeT0iMi41IiBzdHlsZT0ic3Ryb2tlOiMxODE4MTg7c3Ryb2tlLXdpZHRoOjAuNTsiIHdpZHRoPSI3NCIgeD0iMTU0NSIgeT0iMzQwIi8+PGVsbGlwc2UgY3g9IjE1NjAiIGN5PSIzNTYiIGZpbGw9IiNBREQxQjIiIHJ4PSIxMSIgcnk9IjExIiBzdHlsZT0ic3Ryb2tlOiMxODE4MTg7c3Ryb2tlLXdpZHRoOjEuMDsiLz48cGF0aCBkPSJNMTU1Ny42MjUsMzYwLjI1IEwxNTU3LjYyNSwzNjIgTDE1NjIuNTYyNSwzNjIgTDE1NjIuNTYyNSwzNjAuMjUgTDE1NTcuNjI1LDM2MC4yNSBaIE0xNTU4LjMxMjUsMzYwLjkzNzUgUTE1NTguMzEyNSwzNjAuOTM3NSAxNTU4LjMxMjUsMzUxLjc1IEwxNTU2LjU2MjUsMzUxLjc1IFExNTU2LjU2MjUsMzUxLjc1IDE1NTYuNTYyNSwzNjAuOTM3NSBMMTU1OC4zMTI1LDM2MC45Mzc1IFogTTE1NjEuODc1LDM2MC45Mzc1IEwxNTYzLjYyNSwzNjAuOTM3NSBRMTU2My42MjUsMzYwLjkzNzUgMTU2My42MjUsMzU4LjEyNSBMMTU2MS44NzUsMzU4LjEyNSBRMTU2MS44NzUsMzU4LjEyNSAxNTYxLjg3NSwzNjAuOTM3NSBaIE0xNTYxLjg3NSwzNTEuNzUgUTE1NjEuODc1LDM1MS43NSAxNTYxLjg3NSwzNTQuNTYyNSBMMTU2My42MjUsMzU0LjU2MjUgUTE1NjMuNjI1LDM1NC41NjI1IDE1NjMuNjI1LDM1MS43NSBMMTU2MS44NzUsMzUxLjc1IFogTTE1NTcuNjI1LDM1Mi40Mzc1IEwxNTYyLjU2MjUsMzUyLjQzNzUgTDE1NjIuNTYyNSwzNTAuNjg3NSBMMTU1Ny42MjUsMzUwLjY4NzUgTDE1NTcuNjI1LDM1Mi40Mzc1IFogIiBmaWxsPSIjMDAwMDAwIi8+PHRleHQgZmlsbD0iIzAwMDAwMCIgZm9udC1mYW1pbHk9InNhbnMtc2VyaWYiIGZvbnQtc2l6ZT0iMTQiIGxlbmd0aEFkanVzdD0ic3BhY2luZyIgdGV4dExlbmd0aD0iNDIiIHg9IjE1NzQiIHk9IjM2MS43NDIyIj5PYmplY3Q8L3RleHQ+PGxpbmUgc3R5bGU9InN0cm9rZTojMTgxODE4O3N0cm9rZS13aWR0aDowLjU7IiB4MT0iMTU0NiIgeDI9IjE2MTgiIHkxPSIzNzIiIHkyPSIzNzIiLz48bGluZSBzdHlsZT0ic3Ryb2tlOiMxODE4MTg7c3Ryb2tlLXdpZHRoOjAuNTsiIHgxPSIxNTQ2IiB4Mj0iMTYxOCIgeTE9IjM4MCIgeTI9IjM4MCIvPjwvZz48IS0tbGluayBDaGlsZHJlbkFjY291bnRHVUkgdG8gSkZyYW1lLS0+PGcgaWQ9ImxpbmtfQ2hpbGRyZW5BY2NvdW50R1VJX0pGcmFtZSI+PHBhdGggY29kZUxpbmU9IjEyNSIgZD0iTTMwODUuMDQsMTgyLjY3IEMzMTE1LjQ0LDIxMy40OSAzMTYyLjE0LDI1NS42IDMyMTEsMjgwIEMzMzE5Ljc0LDMzNC4zIDM0NDYuODM5NCwzNTIuMDAwNyAzNTE0LjgzOTQsMzU4LjQxMDcgIiBmaWxsPSJub25lIiBpZD0iQ2hpbGRyZW5BY2NvdW50R1VJLXRvLUpGcmFtZSIgc3R5bGU9InN0cm9rZTojMTgxODE4O3N0cm9rZS13aWR0aDoxLjA7Ii8+PHBvbHlnb24gZmlsbD0ibm9uZSIgcG9pbnRzPSIzNTMyLjc2LDM2MC4xLDM1MTUuNDAyNSwzNTIuNDM3MiwzNTE0LjI3NjQsMzY0LjM4NDIsMzUzMi43NiwzNjAuMSIgc3R5bGU9InN0cm9rZTojMTgxODE4O3N0cm9rZS13aWR0aDoxLjA7Ii8+PC9nPjwhLS1saW5rIENoaWxkQmFsYW5jZUxvZ0xpc3RQYW5lbCB0byBKUGFuZWwtLT48ZyBpZD0ibGlua19DaGlsZEJhbGFuY2VMb2dMaXN0UGFuZWxfSlBhbmVsIj48cGF0aCBjb2RlTGluZT0iMTI2IiBkPSJNNDQ1Ni44MSwxODIuNjYgQzQ0OTMuNTgsMjE0LjU3IDQ1NTAuNjksMjU4LjI2IDQ2MDksMjgwIEM0NzU0LjU5LDMzNC4yNyA1MjI3LjM4MjgsMzU1LjY4MSA1MzY4LjA0MjgsMzYwLjk5MSAiIGZpbGw9Im5vbmUiIGlkPSJDaGlsZEJhbGFuY2VMb2dMaXN0UGFuZWwtdG8tSlBhbmVsIiBzdHlsZT0ic3Ryb2tlOiMxODE4MTg7c3Ryb2tlLXdpZHRoOjEuMDsiLz48cG9seWdvbiBmaWxsPSJub25lIiBwb2ludHM9IjUzODYuMDMsMzYxLjY3LDUzNjguMjY5MiwzNTQuOTk1Miw1MzY3LjgxNjUsMzY2Ljk4NjcsNTM4Ni4wMywzNjEuNjciIHN0eWxlPSJzdHJva2U6IzE4MTgxODtzdHJva2Utd2lkdGg6MS4wOyIvPjwvZz48IS0tbGluayBDaGlsZE1lbnVVSSB0byBKRnJhbWUtLT48ZyBpZD0ibGlua19DaGlsZE1lbnVVSV9KRnJhbWUiPjxwYXRoIGNvZGVMaW5lPSIxMjciIGQ9Ik0zNDA3LjQ5LDE4Mi41NiBDMzQ0OC41OSwyMjcuOTIgMzUwMy44OTE0LDI4OC45NTM0IDM1MzcuODkxNCwzMjYuNDYzNCAiIGZpbGw9Im5vbmUiIGlkPSJDaGlsZE1lbnVVSS10by1KRnJhbWUiIHN0eWxlPSJzdHJva2U6IzE4MTgxODtzdHJva2Utd2lkdGg6MS4wOyIvPjxwb2x5Z29uIGZpbGw9Im5vbmUiIHBvaW50cz0iMzU0OS45OCwzMzkuOCwzNTQyLjMzNjksMzIyLjQzMzksMzUzMy40NDU4LDMzMC40OTI5LDM1NDkuOTgsMzM5LjgiIHN0eWxlPSJzdHJva2U6IzE4MTgxODtzdHJva2Utd2lkdGg6MS4wOyIvPjwvZz48IS0tbGluayBDaGlsZFBhbmVsIHRvIEpQYW5lbC0tPjxnIGlkPSJsaW5rX0NoaWxkUGFuZWxfSlBhbmVsIj48cGF0aCBjb2RlTGluZT0iMTI4IiBkPSJNNDgwNS4wNywxODIuODEgQzQ4MzUuMjMsMjE0LjE0IDQ4ODIuMSwyNTYuOTEgNDkzMiwyODAgQzUwODkuMjMsMzUyLjc1IDUyODMuMDgwOCwzNjIuMzI1MSA1MzY4LjI0MDgsMzYzLjEwNTEgIiBmaWxsPSJub25lIiBpZD0iQ2hpbGRQYW5lbC10by1KUGFuZWwiIHN0eWxlPSJzdHJva2U6IzE4MTgxODtzdHJva2Utd2lkdGg6MS4wOyIvPjxwb2x5Z29uIGZpbGw9Im5vbmUiIHBvaW50cz0iNTM4Ni4yNCwzNjMuMjcsNTM2OC4yOTU3LDM1Ny4xMDU0LDUzNjguMTg1OCwzNjkuMTA0OSw1Mzg2LjI0LDM2My4yNyIgc3R5bGU9InN0cm9rZTojMTgxODE4O3N0cm9rZS13aWR0aDoxLjA7Ii8+PC9nPjwhLS1saW5rIENoaWxkVGFza0xpc3RQYW5lbCB0byBKUGFuZWwtLT48ZyBpZD0ibGlua19DaGlsZFRhc2tMaXN0UGFuZWxfSlBhbmVsIj48cGF0aCBjb2RlTGluZT0iMTI5IiBkPSJNNTEzNC4xNywxODIuNzYgQzUxNjUuNzIsMjExLjYyIDUyMTEuNjIsMjUxLjA3IDUyNTYsMjgwIEM1Mjk4LjM4LDMwNy42MyA1MzM0LjczODQsMzI1LjE2NTkgNTM2OS43Mjg0LDM0MC4yOTU5ICIgZmlsbD0ibm9uZSIgaWQ9IkNoaWxkVGFza0xpc3RQYW5lbC10by1KUGFuZWwiIHN0eWxlPSJzdHJva2U6IzE4MTgxODtzdHJva2Utd2lkdGg6MS4wOyIvPjxwb2x5Z29uIGZpbGw9Im5vbmUiIHBvaW50cz0iNTM4Ni4yNSwzNDcuNDQsNTM3Mi4xMDk4LDMzNC43ODg3LDUzNjcuMzQ3MSwzNDUuODAzMSw1Mzg2LjI1LDM0Ny40NCIgc3R5bGU9InN0cm9rZTojMTgxODE4O3N0cm9rZS13aWR0aDoxLjA7Ii8+PC9nPjwhLS1saW5rIENoaWxkVGFza1dvcmtMb2dMaXN0UGFuZWwgdG8gSlBhbmVsLS0+PGcgaWQ9ImxpbmtfQ2hpbGRUYXNrV29ya0xvZ0xpc3RQYW5lbF9KUGFuZWwiPjxwYXRoIGNvZGVMaW5lPSIxMzAiIGQ9Ik01NDI0LDE4Mi41NiBDNTQyNCwyMjcuOTIgNTQyNCwyODQuMjkgNTQyNCwzMjEuOCAiIGZpbGw9Im5vbmUiIGlkPSJDaGlsZFRhc2tXb3JrTG9nTGlzdFBhbmVsLXRvLUpQYW5lbCIgc3R5bGU9InN0cm9rZTojMTgxODE4O3N0cm9rZS13aWR0aDoxLjA7Ii8+PHBvbHlnb24gZmlsbD0ibm9uZSIgcG9pbnRzPSI1NDI0LDMzOS44LDU0MzAsMzIxLjgsNTQxOCwzMjEuOCw1NDI0LDMzOS44IiBzdHlsZT0ic3Ryb2tlOiMxODE4MTg7c3Ryb2tlLXdpZHRoOjEuMDsiLz48L2c+PCEtLWxpbmsgQ2hpbGRMaXN0UGFuZWwgdG8gSlBhbmVsLS0+PGcgaWQ9ImxpbmtfQ2hpbGRMaXN0UGFuZWxfSlBhbmVsIj48cGF0aCBjb2RlTGluZT0iMTMxIiBkPSJNNTY5NC40OCwxODIuNyBDNTY2OC45OSwyMTEuOTIgNTYzMS4wNCwyNTEuODQgNTU5MiwyODAgQzU1NTAuNzEsMzA5Ljc5IDU1MTMuNzg0OCwzMjcuMzY2NyA1NDc4LjM2NDgsMzQxLjgyNjcgIiBmaWxsPSJub25lIiBpZD0iQ2hpbGRMaXN0UGFuZWwtdG8tSlBhbmVsIiBzdHlsZT0ic3Ryb2tlOiMxODE4MTg7c3Ryb2tlLXdpZHRoOjEuMDsiLz48cG9seWdvbiBmaWxsPSJub25lIiBwb2ludHM9IjU0NjEuNywzNDguNjMsNTQ4MC42MzI2LDM0Ny4zODE2LDU0NzYuMDk3LDMzNi4yNzE4LDU0NjEuNywzNDguNjMiIHN0eWxlPSJzdHJva2U6IzE4MTgxODtzdHJva2Utd2lkdGg6MS4wOyIvPjwvZz48IS0tbGluayBMb2dpbkdVSSB0byBKRnJhbWUtLT48ZyBpZD0ibGlua19Mb2dpbkdVSV9KRnJhbWUiPjxwYXRoIGNvZGVMaW5lPSIxMzIiIGQ9Ik0zNzM1LjM0LDE4Mi41NiBDMzY5NC4wMiwyMjcuOTIgMzYzOC40MjE3LDI4OC45ODM0IDM2MDQuMjUxNywzMjYuNDkzNCAiIGZpbGw9Im5vbmUiIGlkPSJMb2dpbkdVSS10by1KRnJhbWUiIHN0eWxlPSJzdHJva2U6IzE4MTgxODtzdHJva2Utd2lkdGg6MS4wOyIvPjxwb2x5Z29uIGZpbGw9Im5vbmUiIHBvaW50cz0iMzU5Mi4xMywzMzkuOCwzNjA4LjY4NzIsMzMwLjUzNCwzNTk5LjgxNjIsMzIyLjQ1MjksMzU5Mi4xMywzMzkuOCIgc3R5bGU9InN0cm9rZTojMTgxODE4O3N0cm9rZS13aWR0aDoxLjA7Ii8+PC9nPjwhLS1saW5rIE1lbnVVSSB0byBKRnJhbWUtLT48ZyBpZD0ibGlua19NZW51VUlfSkZyYW1lIj48cGF0aCBjb2RlTGluZT0iMTMzIiBkPSJNNDA5OCwxNzUuMTIgQzQwNzkuODQsMjA2LjY1IDQwNDcuMTgsMjU0LjY1IDQwMDUsMjgwIEMzOTM3LjkzLDMyMC4zMSAzNzIwLjA1NjMsMzQ3LjE1MDMgMzYyNy4wMzYzLDM1Ny4xODAzICIgZmlsbD0ibm9uZSIgaWQ9Ik1lbnVVSS10by1KRnJhbWUiIHN0eWxlPSJzdHJva2U6IzE4MTgxODtzdHJva2Utd2lkdGg6MS4wOyIvPjxwb2x5Z29uIGZpbGw9Im5vbmUiIHBvaW50cz0iMzYwOS4xNCwzNTkuMTEsMzYyNy42Nzk1LDM2My4xNDU3LDM2MjYuMzkzLDM1MS4yMTQ5LDM2MDkuMTQsMzU5LjExIiBzdHlsZT0ic3Ryb2tlOiMxODE4MTg7c3Ryb2tlLXdpZHRoOjEuMDsiLz48L2c+PCEtLWxpbmsgVGFza0lucHV0UGFuZWwgdG8gSlBhbmVsLS0+PGcgaWQ9ImxpbmtfVGFza0lucHV0UGFuZWxfSlBhbmVsIj48cGF0aCBjb2RlTGluZT0iMTM0IiBkPSJNNTk3NC4yMiwxNzUuMTEgQzU5NTAuMDQsMjA2LjY0IDU5MDguMDQsMjU0LjYzIDU4NjAsMjgwIEM1NzI1Ljk0LDM1MC43OSA1NTU4LjQwNzUsMzYxLjQ5MDQgNTQ3OS43MDc1LDM2Mi44MDA0ICIgZmlsbD0ibm9uZSIgaWQ9IlRhc2tJbnB1dFBhbmVsLXRvLUpQYW5lbCIgc3R5bGU9InN0cm9rZTojMTgxODE4O3N0cm9rZS13aWR0aDoxLjA7Ii8+PHBvbHlnb24gZmlsbD0ibm9uZSIgcG9pbnRzPSI1NDYxLjcxLDM2My4xLDU0NzkuODA3NCwzNjguNzk5Niw1NDc5LjYwNzYsMzU2LjgwMTMsNTQ2MS43MSwzNjMuMSIgc3R5bGU9InN0cm9rZTojMTgxODE4O3N0cm9rZS13aWR0aDoxLjA7Ii8+PC9nPjwhLS1saW5rIFRhc2tMaXN0UGFuZWwgdG8gSlBhbmVsLS0+PGcgaWQ9ImxpbmtfVGFza0xpc3RQYW5lbF9KUGFuZWwiPjxwYXRoIGNvZGVMaW5lPSIxMzUiIGQ9Ik02MjQ1LjYyLDE3NS4yMSBDNjIyMi40NywyMDcuMjkgNjE4MS41NCwyNTYuMjEgNjEzMywyODAgQzYwMTIuODEsMzM4Ljg5IDU2MDguNjc5NiwzNTYuODc5IDU0NzkuNzA5NiwzNjEuMjU5ICIgZmlsbD0ibm9uZSIgaWQ9IlRhc2tMaXN0UGFuZWwtdG8tSlBhbmVsIiBzdHlsZT0ic3Ryb2tlOiMxODE4MTg7c3Ryb2tlLXdpZHRoOjEuMDsiLz48cG9seWdvbiBmaWxsPSJub25lIiBwb2ludHM9IjU0NjEuNzIsMzYxLjg3LDU0NzkuOTEzMywzNjcuMjU1Niw1NDc5LjUwNiwzNTUuMjYyNSw1NDYxLjcyLDM2MS44NyIgc3R5bGU9InN0cm9rZTojMTgxODE4O3N0cm9rZS13aWR0aDoxLjA7Ii8+PC9nPjwhLS1saW5rIEJhbGFuY2VMb2cgdG8gT2JqZWN0LS0+PGcgaWQ9ImxpbmtfQmFsYW5jZUxvZ19PYmplY3QiPjxwYXRoIGNvZGVMaW5lPSIxMzciIGQ9Ik00OTcuODgsMjU3LjU2IEM1MjAuNDksMjY2LjI2IDU0My40NCwyNzMuOTggNTY2LDI4MCBDNzU2LjU2LDMzMC44MiAxMzY3LjQxMTQsMzU1LjQxOTYgMTUyNi45NTE0LDM2MS4wOTk2ICIgZmlsbD0ibm9uZSIgaWQ9IkJhbGFuY2VMb2ctdG8tT2JqZWN0IiBzdHlsZT0ic3Ryb2tlOiMxODE4MTg7c3Ryb2tlLXdpZHRoOjEuMDsiLz48cG9seWdvbiBmaWxsPSJub25lIiBwb2ludHM9IjE1NDQuOTQsMzYxLjc0LDE1MjcuMTY0OSwzNTUuMTAzNCwxNTI2LjczNzksMzY3LjA5NTgsMTU0NC45NCwzNjEuNzQiIHN0eWxlPSJzdHJva2U6IzE4MTgxODtzdHJva2Utd2lkdGg6MS4wOyIvPjwvZz48IS0tbGluayBDaGlsZCB0byBPYmplY3QtLT48ZyBpZD0ibGlua19DaGlsZF9PYmplY3QiPjxwYXRoIGNvZGVMaW5lPSIxMzgiIGQ9Ik0xMzUzLjkzLDI4MC4wOCBDMTQzMi4yMiwzMDguNTUgMTQ4Ni42MjQ4LDMyOC4zMTU3IDE1MjcuOTM0OCwzNDMuMzQ1NyAiIGZpbGw9Im5vbmUiIGlkPSJDaGlsZC10by1PYmplY3QiIHN0eWxlPSJzdHJva2U6IzE4MTgxODtzdHJva2Utd2lkdGg6MS4wOyIvPjxwb2x5Z29uIGZpbGw9Im5vbmUiIHBvaW50cz0iMTU0NC44NSwzNDkuNSwxNTI5Ljk4NjIsMzM3LjcwNzMsMTUyNS44ODMzLDM0OC45ODQxLDE1NDQuODUsMzQ5LjUiIHN0eWxlPSJzdHJva2U6IzE4MTgxODtzdHJva2Utd2lkdGg6MS4wOyIvPjwvZz48IS0tbGluayBQYXJlbnQgdG8gT2JqZWN0LS0+PGcgaWQ9ImxpbmtfUGFyZW50X09iamVjdCI+PHBhdGggY29kZUxpbmU9IjEzOSIgZD0iTTE1ODIsMjIwIEMxNTgyLDI2MS45NCAxNTgyLDI5My4yNCAxNTgyLDMyMS42MyAiIGZpbGw9Im5vbmUiIGlkPSJQYXJlbnQtdG8tT2JqZWN0IiBzdHlsZT0ic3Ryb2tlOiMxODE4MTg7c3Ryb2tlLXdpZHRoOjEuMDsiLz48cG9seWdvbiBmaWxsPSJub25lIiBwb2ludHM9IjE1ODIsMzM5LjYzLDE1ODgsMzIxLjYzLDE1NzYsMzIxLjYzLDE1ODIsMzM5LjYzIiBzdHlsZT0ic3Ryb2tlOiMxODE4MTg7c3Ryb2tlLXdpZHRoOjEuMDsiLz48L2c+PCEtLWxpbmsgVGFzayB0byBPYmplY3QtLT48ZyBpZD0ibGlua19UYXNrX09iamVjdCI+PHBhdGggY29kZUxpbmU9IjE0MCIgZD0iTTE4NDEuNzMsMjQyLjY3IEMxODE3LjA5LDI1NS41IDE3OTIuMDIsMjY4LjI1IDE3NjgsMjgwIEMxNzE3LjAyLDMwNC45NCAxNjczLjQwMTksMzI0LjE1NjQgMTYzNS42MTE5LDM0MC4zMDY0ICIgZmlsbD0ibm9uZSIgaWQ9IlRhc2stdG8tT2JqZWN0IiBzdHlsZT0ic3Ryb2tlOiMxODE4MTg7c3Ryb2tlLXdpZHRoOjEuMDsiLz48cG9seWdvbiBmaWxsPSJub25lIiBwb2ludHM9IjE2MTkuMDYsMzQ3LjM4LDE2MzcuOTY5NywzNDUuODIzNywxNjMzLjI1NCwzMzQuNzg5MSwxNjE5LjA2LDM0Ny4zOCIgc3R5bGU9InN0cm9rZTojMTgxODE4O3N0cm9rZS13aWR0aDoxLjA7Ii8+PC9nPjwhLS1saW5rIFRhc2tXb3JrTG9nIHRvIE9iamVjdC0tPjxnIGlkPSJsaW5rX1Rhc2tXb3JrTG9nX09iamVjdCI+PHBhdGggY29kZUxpbmU9IjE0MSIgZD0iTTIzMjMuOTQsMjY1LjEgQzIzMDcuODksMjcwLjYyIDIyOTEuODMsMjc1LjY1IDIyNzYsMjgwIEMyMDMxLjczLDM0Ny4wNiAxNzQyLjM2NSwzNTkuNTE1NSAxNjM3LjIyNSwzNjEuOTk1NSAiIGZpbGw9Im5vbmUiIGlkPSJUYXNrV29ya0xvZy10by1PYmplY3QiIHN0eWxlPSJzdHJva2U6IzE4MTgxODtzdHJva2Utd2lkdGg6MS4wOyIvPjxwb2x5Z29uIGZpbGw9Im5vbmUiIHBvaW50cz0iMTYxOS4yMywzNjIuNDIsMTYzNy4zNjY1LDM2Ny45OTM5LDE2MzcuMDgzNSwzNTUuOTk3MiwxNjE5LjIzLDM2Mi40MiIgc3R5bGU9InN0cm9rZTojMTgxODE4O3N0cm9rZS13aWR0aDoxLjA7Ii8+PC9nPjwhLS1TUkM9W2hMVkJaamVtNUR0cDVMdVEwSi1HSElNNkpnaVBwUkllR3pNcklMcGdKaDFIeDgyY1p0LWxPcGs5N3BVMThiWjFWUG5weFlEc280aVk5UmVaOVU0dlZIOHh6N2syejZVSF9zMWJ5T2RpUU9QVUxDTnVwZmhMc282b2FCc2VrU2ZHOFVmaklMcUtZXzljRkc1RWFFVjhIdnNaNDU1eEZSSWZYVGpIak1mWHkzSWFhYkhqRDF4c0dOTjhLUjJZSXBPMVFUeElDRURHRzlwaFdnUDFvT1BMd3lJMXM5WUwxTWhfSllRdndSdWZ2S3BaM3BobTlBZVlqRVByTEw2a3RqRTNhMm1RV1lINzdHVXczZ0o5SWFYY0hXV3FlOVh6WmMzY0VHOVA2dTJPeVI5OWhYcW5aWE40bFVxMkt1bkw4MU4zb2NFeUEyY1R6ZWpWQTBSQlpaNzNiMUhvdEpLOTBfckEya3cyV1BNb3RkUWQxa09EQnpOQ3ZXOElxWnNPWmlrdmloMzFJUHhUWGd4LTNQNmxSVkxBVnF6aHRtakV0eHhHNHNiR0JkYXU2YVdTT3lxSFczRS14WGk3MFByUmhJa2NZTmxxdDlDMlUtSHgwTmFOUlQ5X1pJdmUtcFRIbE5lTjJUcHpXTERFQWc5ZzZMcXYzOWc0T200NjBYblY4VXBHWk5BQm1Pb1RQUnFsYVBZUzU0T21XRTRTT0s1ZHhmY3B6ckR1NFVhWEJfRXlrVUMtVmRybUt2bW5wWEdaOVZqYlc3aXNhWWljLTlmTXRxTXJmbU5NczRqWmtaX2dOTzQ5LWRVMTlvUnJXZDVRalpIM1Zqa25wRVJSWUlzT05ENm9sMi1POGRnZlNJTEU2TTlTd0dLR1BSdGR2ZVNNaTFNWWY4SDc2ZnVmaF9sZ0YxRjBUNU1IUUxiM1hMbTV0b21hdEJ0MFNxaXd6eUdEaXlPMWpvQTc2TmlRMXRyTkFvTXUzNWFwejZZMlVhWWphNzVsaXpsVjNjUG5yNWpVNDRNRDdUVUlMZHB5MldITUJEbWtqclpzLUNwU3JKbUQzeXE3VmdaMzhhRmhVN1JJZU4wOVc1cFdJTHlpX2huM1pueWdOVXJheTNjckdSUWJfZUVLOTAtNFhzZjFUeDlkSUhKaXdXUmhRbTdhSFV0czhPUkxKUm5fSUNSLVVWa0p2aWhnMklwa3BTaXRjUFVIc0QxVWF2eHo3bTAwXS0tPjwvZz48L3N2Zz4=;" vertex="1" parent="1">
            <mxGeometry x="-4050" y="-1090" width="6388" height="395" as="geometry" />
          </mxCell>
        </UserObject>
        <UserObject label="" plantUmlData="{&#xa;  &quot;data&quot;: &quot;@startuml\n\nclass BalanceLog {\n    -childName: String\n    -type: String\n    -amount: double\n    -time: String\n    +BalanceLog(childName: String, type: String, amount: double, time: String)\n    +getChildName(): String\n    +setType(type: String): void\n    +getType(): String\n    +setAmount(amount: double): void\n    +getAmount(): double\n    +setTime(time: String): void\n    +getTime(): String\n}\n\nclass Child {\n    -childName: String\n    -password: String\n    -currentDeposit: double\n    -savingDeposit: double\n    -parentName: String\n    +Child(childName: String, password: String, currentDeposit: double, savingDeposit: double, parentName: String)\n    +getChildName(): String\n    +setPassword(password: String): void\n    +getPassword(): String\n    +setCurrentDeposit(currentDeposit: double): void\n    +getCurrentDeposit(): double\n    +setSavingDeposit(savingDeposit: double): void\n    +getSavingDeposit(): double\n    +setParentName(parentName: String): void\n    +getParentName(): String\n}\n\nclass Parent {\n    -parentName: String\n    -password: String\n    +Parent(parentName: String, password: String)\n    +getParentName(): String\n    +setParentName(parentName: String): void\n    +getPassword(): String\n    +setPassword(password: String): void\n}\n\nclass Task {\n    -taskName: String\n    -moneyReward: double\n    -parentName: String\n    +Task(taskName: String, moneyReward: double, parentName: String)\n    +getTaskName(): String\n    +setTaskName(taskName: String): void\n    +getMoneyReward(): double\n    +setMoneyReward(moneyReward: double): void\n    +getParentName(): String\n    +setParentName(parentName: String): void\n}\n\nclass TaskWorkLog {\n    -taskName: String\n    -childName: String\n    -status: String\n    -time: String\n    +TaskWorkLog(taskName: String, childName: String, status: String, time: String)\n    +getTaskName(): String\n    +setTaskName(taskName: String): void\n    +getChildName(): String\n    +setChildName(childName: String): void\n    +getStatus(): String\n    +setStatus(status: String): void\n    +getTime(): String\n    +setTime(time: String): void\n}\n\nclass ChildrenAccountGUI {\n    +initialize(): void\n    +actionPerformed(e: ActionEvent): void\n}\n\nclass ChildBalanceLogListPanel {\n    +ChildBalanceLogListPanel(child: Child)\n    -isCellEditable(row: int, column: int): boolean\n}\n\nclass ChildMenuUI {\n    +ChildMenuUI(child: Child)\n    +actionPerformed(e: ActionEvent): void\n}\n\nclass ChildPanel {\n    +ChildPanel(child: Child)\n    +actionPerformed(e: ActionEvent): void\n}\n\nclass ChildTaskListPanel {\n    +ChildTaskListPanel(child: Child)\n    +actionPerformed(e: ActionEvent): void\n}\n\nclass ChildTaskWorkLogListPanel {\n    +ChildTaskWorkLogListPanel(child: Child)\n    +actionPerformed(e: ActionEvent): void\n}\n\nclass ChildListPanel {\n    +ChildListPanel()\n    +Buttons(child: Child): JPanel\n}\n\nclass LoginGUI {\n    +LoginGUI()\n    -validateLogin(username: String, password: String): boolean\n}\n\nclass MenuUI {\n    +MenuUI(parent: Parent)\n}\n\nclass TaskInputPanel {\n    +TaskInputPanel(parent: Parent)\n}\n\nclass TaskListPanel {\n    +TaskListPanel(parent: Parent)\n}\n\nBalanceLog --|&gt; Object\nChild --|&gt; Object\nParent --|&gt; Object\nTask --|&gt; Object\nTaskWorkLog --|&gt; Object\n\nChildrenAccountGUI --|&gt; JFrame\nChildBalanceLogListPanel --|&gt; JPanel\nChildMenuUI --|&gt; JFrame\nChildPanel --|&gt; JPanel\nChildTaskListPanel --|&gt; JPanel\nChildTaskWorkLogListPanel --|&gt; JPanel\nChildListPanel --|&gt; JPanel\nLoginGUI --|&gt; JFrame\nMenuUI --|&gt; JFrame\nTaskInputPanel --|&gt; JPanel\nTaskListPanel --|&gt; JPanel\n\n@enduml\n&quot;,&#xa;  &quot;format&quot;: &quot;svg&quot;&#xa;}" id="guqCjP4RtGkK8ISFuLmI-5">
          <mxCell style="shape=image;noLabel=1;verticalAlign=top;aspect=fixed;imageAspect=0;image=data:image/svg+xml,PD94bWwgdmVyc2lvbj0iMS4wIiBlbmNvZGluZz0idXMtYXNjaWkiIHN0YW5kYWxvbmU9Im5vIj8+PHN2ZyB4bWxucz0iaHR0cDovL3d3dy53My5vcmcvMjAwMC9zdmciIHhtbG5zOnhsaW5rPSJodHRwOi8vd3d3LnczLm9yZy8xOTk5L3hsaW5rIiBjb250ZW50U3R5bGVUeXBlPSJ0ZXh0L2NzcyIgaGVpZ2h0PSIzOTVweCIgcHJlc2VydmVBc3BlY3RSYXRpbz0ibm9uZSIgc3R5bGU9IndpZHRoOjYzODhweDtoZWlnaHQ6Mzk1cHg7YmFja2dyb3VuZDojRkZGRkZGOyIgdmVyc2lvbj0iMS4xIiB2aWV3Qm94PSIwIDAgNjM4OCAzOTUiIHdpZHRoPSI2Mzg4cHgiIHpvb21BbmRQYW49Im1hZ25pZnkiPjxkZWZzLz48Zz48IS0tY2xhc3MgQmFsYW5jZUxvZy0tPjxnIGlkPSJlbGVtX0JhbGFuY2VMb2ciPjxyZWN0IGNvZGVMaW5lPSIxIiBmaWxsPSIjRjFGMUYxIiBoZWlnaHQ9IjIyNy44MTI1IiBpZD0iQmFsYW5jZUxvZyIgcng9IjIuNSIgcnk9IjIuNSIgc3R5bGU9InN0cm9rZTojMTgxODE4O3N0cm9rZS13aWR0aDowLjU7IiB3aWR0aD0iNTQyIiB4PSI3IiB5PSIyOS41Ii8+PGVsbGlwc2UgY3g9IjIzOC43NSIgY3k9IjQ1LjUiIGZpbGw9IiNBREQxQjIiIHJ4PSIxMSIgcnk9IjExIiBzdHlsZT0ic3Ryb2tlOiMxODE4MTg7c3Ryb2tlLXdpZHRoOjEuMDsiLz48cGF0aCBkPSJNMjM2LjM3NSw0OS43NSBMMjM2LjM3NSw1MS41IEwyNDEuMzEyNSw1MS41IEwyNDEuMzEyNSw0OS43NSBMMjM2LjM3NSw0OS43NSBaIE0yMzcuMDYyNSw1MC40Mzc1IFEyMzcuMDYyNSw1MC40Mzc1IDIzNy4wNjI1LDQxLjI1IEwyMzUuMzEyNSw0MS4yNSBRMjM1LjMxMjUsNDEuMjUgMjM1LjMxMjUsNTAuNDM3NSBMMjM3LjA2MjUsNTAuNDM3NSBaIE0yNDAuNjI1LDUwLjQzNzUgTDI0Mi4zNzUsNTAuNDM3NSBRMjQyLjM3NSw1MC40Mzc1IDI0Mi4zNzUsNDcuNjI1IEwyNDAuNjI1LDQ3LjYyNSBRMjQwLjYyNSw0Ny42MjUgMjQwLjYyNSw1MC40Mzc1IFogTTI0MC42MjUsNDEuMjUgUTI0MC42MjUsNDEuMjUgMjQwLjYyNSw0NC4wNjI1IEwyNDIuMzc1LDQ0LjA2MjUgUTI0Mi4zNzUsNDQuMDYyNSAyNDIuMzc1LDQxLjI1IEwyNDAuNjI1LDQxLjI1IFogTTIzNi4zNzUsNDEuOTM3NSBMMjQxLjMxMjUsNDEuOTM3NSBMMjQxLjMxMjUsNDAuMTg3NSBMMjM2LjM3NSw0MC4xODc1IEwyMzYuMzc1LDQxLjkzNzUgWiAiIGZpbGw9IiMwMDAwMDAiLz48dGV4dCBmaWxsPSIjMDAwMDAwIiBmb250LWZhbWlseT0ic2Fucy1zZXJpZiIgZm9udC1zaXplPSIxNCIgbGVuZ3RoQWRqdXN0PSJzcGFjaW5nIiB0ZXh0TGVuZ3RoPSI3MCIgeD0iMjU5LjI1IiB5PSI1MS4yNDIyIj5CYWxhbmNlTG9nPC90ZXh0PjxsaW5lIHN0eWxlPSJzdHJva2U6IzE4MTgxODtzdHJva2Utd2lkdGg6MC41OyIgeDE9IjgiIHgyPSI1NDgiIHkxPSI2MS41IiB5Mj0iNjEuNSIvPjxyZWN0IGZpbGw9Im5vbmUiIGhlaWdodD0iNiIgc3R5bGU9InN0cm9rZTojQzgyOTMwO3N0cm9rZS13aWR0aDoxLjA7IiB3aWR0aD0iNiIgeD0iMTUiIHk9IjcxLjQ5MjIiLz48dGV4dCBmaWxsPSIjMDAwMDAwIiBmb250LWZhbWlseT0ic2Fucy1zZXJpZiIgZm9udC1zaXplPSIxNCIgbGVuZ3RoQWRqdXN0PSJzcGFjaW5nIiB0ZXh0TGVuZ3RoPSIxMjAiIHg9IjI3IiB5PSI3OC43MzQ0Ij5jaGlsZE5hbWU6IFN0cmluZzwvdGV4dD48cmVjdCBmaWxsPSJub25lIiBoZWlnaHQ9IjYiIHN0eWxlPSJzdHJva2U6I0M4MjkzMDtzdHJva2Utd2lkdGg6MS4wOyIgd2lkdGg9IjYiIHg9IjE1IiB5PSI4Ni40NzY2Ii8+PHRleHQgZmlsbD0iIzAwMDAwMCIgZm9udC1mYW1pbHk9InNhbnMtc2VyaWYiIGZvbnQtc2l6ZT0iMTQiIGxlbmd0aEFkanVzdD0ic3BhY2luZyIgdGV4dExlbmd0aD0iODQiIHg9IjI3IiB5PSI5My43MTg4Ij50eXBlOiBTdHJpbmc8L3RleHQ+PHJlY3QgZmlsbD0ibm9uZSIgaGVpZ2h0PSI2IiBzdHlsZT0ic3Ryb2tlOiNDODI5MzA7c3Ryb2tlLXdpZHRoOjEuMDsiIHdpZHRoPSI2IiB4PSIxNSIgeT0iMTAxLjQ2MDkiLz48dGV4dCBmaWxsPSIjMDAwMDAwIiBmb250LWZhbWlseT0ic2Fucy1zZXJpZiIgZm9udC1zaXplPSIxNCIgbGVuZ3RoQWRqdXN0PSJzcGFjaW5nIiB0ZXh0TGVuZ3RoPSI5OSIgeD0iMjciIHk9IjEwOC43MDMxIj5hbW91bnQ6IGRvdWJsZTwvdGV4dD48cmVjdCBmaWxsPSJub25lIiBoZWlnaHQ9IjYiIHN0eWxlPSJzdHJva2U6I0M4MjkzMDtzdHJva2Utd2lkdGg6MS4wOyIgd2lkdGg9IjYiIHg9IjE1IiB5PSIxMTYuNDQ1MyIvPjx0ZXh0IGZpbGw9IiMwMDAwMDAiIGZvbnQtZmFtaWx5PSJzYW5zLXNlcmlmIiBmb250LXNpemU9IjE0IiBsZW5ndGhBZGp1c3Q9InNwYWNpbmciIHRleHRMZW5ndGg9Ijg1IiB4PSIyNyIgeT0iMTIzLjY4NzUiPnRpbWU6IFN0cmluZzwvdGV4dD48bGluZSBzdHlsZT0ic3Ryb2tlOiMxODE4MTg7c3Ryb2tlLXdpZHRoOjAuNTsiIHgxPSI4IiB4Mj0iNTQ4IiB5MT0iMTI5LjQzNzUiIHkyPSIxMjkuNDM3NSIvPjxlbGxpcHNlIGN4PSIxOCIgY3k9IjE0Mi40Mjk3IiBmaWxsPSIjODRCRTg0IiByeD0iMyIgcnk9IjMiIHN0eWxlPSJzdHJva2U6IzAzODA0ODtzdHJva2Utd2lkdGg6MS4wOyIvPjx0ZXh0IGZpbGw9IiMwMDAwMDAiIGZvbnQtZmFtaWx5PSJzYW5zLXNlcmlmIiBmb250LXNpemU9IjE0IiBsZW5ndGhBZGp1c3Q9InNwYWNpbmciIHRleHRMZW5ndGg9IjUxNiIgeD0iMjciIHk9IjE0Ni42NzE5Ij5CYWxhbmNlTG9nKGNoaWxkTmFtZTogU3RyaW5nLCB0eXBlOiBTdHJpbmcsIGFtb3VudDogZG91YmxlLCB0aW1lOiBTdHJpbmcpPC90ZXh0PjxlbGxpcHNlIGN4PSIxOCIgY3k9IjE1Ny40MTQxIiBmaWxsPSIjODRCRTg0IiByeD0iMyIgcnk9IjMiIHN0eWxlPSJzdHJva2U6IzAzODA0ODtzdHJva2Utd2lkdGg6MS4wOyIvPjx0ZXh0IGZpbGw9IiMwMDAwMDAiIGZvbnQtZmFtaWx5PSJzYW5zLXNlcmlmIiBmb250LXNpemU9IjE0IiBsZW5ndGhBZGp1c3Q9InNwYWNpbmciIHRleHRMZW5ndGg9IjE1NyIgeD0iMjciIHk9IjE2MS42NTYzIj5nZXRDaGlsZE5hbWUoKTogU3RyaW5nPC90ZXh0PjxlbGxpcHNlIGN4PSIxOCIgY3k9IjE3Mi4zOTg0IiBmaWxsPSIjODRCRTg0IiByeD0iMyIgcnk9IjMiIHN0eWxlPSJzdHJva2U6IzAzODA0ODtzdHJva2Utd2lkdGg6MS4wOyIvPjx0ZXh0IGZpbGw9IiMwMDAwMDAiIGZvbnQtZmFtaWx5PSJzYW5zLXNlcmlmIiBmb250LXNpemU9IjE0IiBsZW5ndGhBZGp1c3Q9InNwYWNpbmciIHRleHRMZW5ndGg9IjE5MSIgeD0iMjciIHk9IjE3Ni42NDA2Ij5zZXRUeXBlKHR5cGU6IFN0cmluZyk6IHZvaWQ8L3RleHQ+PGVsbGlwc2UgY3g9IjE4IiBjeT0iMTg3LjM4MjgiIGZpbGw9IiM4NEJFODQiIHJ4PSIzIiByeT0iMyIgc3R5bGU9InN0cm9rZTojMDM4MDQ4O3N0cm9rZS13aWR0aDoxLjA7Ii8+PHRleHQgZmlsbD0iIzAwMDAwMCIgZm9udC1mYW1pbHk9InNhbnMtc2VyaWYiIGZvbnQtc2l6ZT0iMTQiIGxlbmd0aEFkanVzdD0ic3BhY2luZyIgdGV4dExlbmd0aD0iMTIxIiB4PSIyNyIgeT0iMTkxLjYyNSI+Z2V0VHlwZSgpOiBTdHJpbmc8L3RleHQ+PGVsbGlwc2UgY3g9IjE4IiBjeT0iMjAyLjM2NzIiIGZpbGw9IiM4NEJFODQiIHJ4PSIzIiByeT0iMyIgc3R5bGU9InN0cm9rZTojMDM4MDQ4O3N0cm9rZS13aWR0aDoxLjA7Ii8+PHRleHQgZmlsbD0iIzAwMDAwMCIgZm9udC1mYW1pbHk9InNhbnMtc2VyaWYiIGZvbnQtc2l6ZT0iMTQiIGxlbmd0aEFkanVzdD0ic3BhY2luZyIgdGV4dExlbmd0aD0iMjIxIiB4PSIyNyIgeT0iMjA2LjYwOTQiPnNldEFtb3VudChhbW91bnQ6IGRvdWJsZSk6IHZvaWQ8L3RleHQ+PGVsbGlwc2UgY3g9IjE4IiBjeT0iMjE3LjM1MTYiIGZpbGw9IiM4NEJFODQiIHJ4PSIzIiByeT0iMyIgc3R5bGU9InN0cm9rZTojMDM4MDQ4O3N0cm9rZS13aWR0aDoxLjA7Ii8+PHRleHQgZmlsbD0iIzAwMDAwMCIgZm9udC1mYW1pbHk9InNhbnMtc2VyaWYiIGZvbnQtc2l6ZT0iMTQiIGxlbmd0aEFkanVzdD0ic3BhY2luZyIgdGV4dExlbmd0aD0iMTM2IiB4PSIyNyIgeT0iMjIxLjU5MzgiPmdldEFtb3VudCgpOiBkb3VibGU8L3RleHQ+PGVsbGlwc2UgY3g9IjE4IiBjeT0iMjMyLjMzNTkiIGZpbGw9IiM4NEJFODQiIHJ4PSIzIiByeT0iMyIgc3R5bGU9InN0cm9rZTojMDM4MDQ4O3N0cm9rZS13aWR0aDoxLjA7Ii8+PHRleHQgZmlsbD0iIzAwMDAwMCIgZm9udC1mYW1pbHk9InNhbnMtc2VyaWYiIGZvbnQtc2l6ZT0iMTQiIGxlbmd0aEFkanVzdD0ic3BhY2luZyIgdGV4dExlbmd0aD0iMTkzIiB4PSIyNyIgeT0iMjM2LjU3ODEiPnNldFRpbWUodGltZTogU3RyaW5nKTogdm9pZDwvdGV4dD48ZWxsaXBzZSBjeD0iMTgiIGN5PSIyNDcuMzIwMyIgZmlsbD0iIzg0QkU4NCIgcng9IjMiIHJ5PSIzIiBzdHlsZT0ic3Ryb2tlOiMwMzgwNDg7c3Ryb2tlLXdpZHRoOjEuMDsiLz48dGV4dCBmaWxsPSIjMDAwMDAwIiBmb250LWZhbWlseT0ic2Fucy1zZXJpZiIgZm9udC1zaXplPSIxNCIgbGVuZ3RoQWRqdXN0PSJzcGFjaW5nIiB0ZXh0TGVuZ3RoPSIxMjIiIHg9IjI3IiB5PSIyNTEuNTYyNSI+Z2V0VGltZSgpOiBTdHJpbmc8L3RleHQ+PC9nPjwhLS1jbGFzcyBDaGlsZC0tPjxnIGlkPSJlbGVtX0NoaWxkIj48cmVjdCBjb2RlTGluZT0iMTYiIGZpbGw9IiNGMUYxRjEiIGhlaWdodD0iMjcyLjc2NTYiIGlkPSJDaGlsZCIgcng9IjIuNSIgcnk9IjIuNSIgc3R5bGU9InN0cm9rZTojMTgxODE4O3N0cm9rZS13aWR0aDowLjU7IiB3aWR0aD0iNzk0IiB4PSI1ODQiIHk9IjciLz48ZWxsaXBzZSBjeD0iOTU5LjI1IiBjeT0iMjMiIGZpbGw9IiNBREQxQjIiIHJ4PSIxMSIgcnk9IjExIiBzdHlsZT0ic3Ryb2tlOiMxODE4MTg7c3Ryb2tlLXdpZHRoOjEuMDsiLz48cGF0aCBkPSJNOTU2Ljg3NSwyNy4yNSBMOTU2Ljg3NSwyOSBMOTYxLjgxMjUsMjkgTDk2MS44MTI1LDI3LjI1IEw5NTYuODc1LDI3LjI1IFogTTk1Ny41NjI1LDI3LjkzNzUgUTk1Ny41NjI1LDI3LjkzNzUgOTU3LjU2MjUsMTguNzUgTDk1NS44MTI1LDE4Ljc1IFE5NTUuODEyNSwxOC43NSA5NTUuODEyNSwyNy45Mzc1IEw5NTcuNTYyNSwyNy45Mzc1IFogTTk2MS4xMjUsMjcuOTM3NSBMOTYyLjg3NSwyNy45Mzc1IFE5NjIuODc1LDI3LjkzNzUgOTYyLjg3NSwyNS4xMjUgTDk2MS4xMjUsMjUuMTI1IFE5NjEuMTI1LDI1LjEyNSA5NjEuMTI1LDI3LjkzNzUgWiBNOTYxLjEyNSwxOC43NSBROTYxLjEyNSwxOC43NSA5NjEuMTI1LDIxLjU2MjUgTDk2Mi44NzUsMjEuNTYyNSBROTYyLjg3NSwyMS41NjI1IDk2Mi44NzUsMTguNzUgTDk2MS4xMjUsMTguNzUgWiBNOTU2Ljg3NSwxOS40Mzc1IEw5NjEuODEyNSwxOS40Mzc1IEw5NjEuODEyNSwxNy42ODc1IEw5NTYuODc1LDE3LjY4NzUgTDk1Ni44NzUsMTkuNDM3NSBaICIgZmlsbD0iIzAwMDAwMCIvPjx0ZXh0IGZpbGw9IiMwMDAwMDAiIGZvbnQtZmFtaWx5PSJzYW5zLXNlcmlmIiBmb250LXNpemU9IjE0IiBsZW5ndGhBZGp1c3Q9InNwYWNpbmciIHRleHRMZW5ndGg9IjM1IiB4PSI5NzkuNzUiIHk9IjI4Ljc0MjIiPkNoaWxkPC90ZXh0PjxsaW5lIHN0eWxlPSJzdHJva2U6IzE4MTgxODtzdHJva2Utd2lkdGg6MC41OyIgeDE9IjU4NSIgeDI9IjEzNzciIHkxPSIzOSIgeTI9IjM5Ii8+PHJlY3QgZmlsbD0ibm9uZSIgaGVpZ2h0PSI2IiBzdHlsZT0ic3Ryb2tlOiNDODI5MzA7c3Ryb2tlLXdpZHRoOjEuMDsiIHdpZHRoPSI2IiB4PSI1OTIiIHk9IjQ4Ljk5MjIiLz48dGV4dCBmaWxsPSIjMDAwMDAwIiBmb250LWZhbWlseT0ic2Fucy1zZXJpZiIgZm9udC1zaXplPSIxNCIgbGVuZ3RoQWRqdXN0PSJzcGFjaW5nIiB0ZXh0TGVuZ3RoPSIxMjAiIHg9IjYwNCIgeT0iNTYuMjM0NCI+Y2hpbGROYW1lOiBTdHJpbmc8L3RleHQ+PHJlY3QgZmlsbD0ibm9uZSIgaGVpZ2h0PSI2IiBzdHlsZT0ic3Ryb2tlOiNDODI5MzA7c3Ryb2tlLXdpZHRoOjEuMDsiIHdpZHRoPSI2IiB4PSI1OTIiIHk9IjYzLjk3NjYiLz48dGV4dCBmaWxsPSIjMDAwMDAwIiBmb250LWZhbWlseT0ic2Fucy1zZXJpZiIgZm9udC1zaXplPSIxNCIgbGVuZ3RoQWRqdXN0PSJzcGFjaW5nIiB0ZXh0TGVuZ3RoPSIxMTMiIHg9IjYwNCIgeT0iNzEuMjE4OCI+cGFzc3dvcmQ6IFN0cmluZzwvdGV4dD48cmVjdCBmaWxsPSJub25lIiBoZWlnaHQ9IjYiIHN0eWxlPSJzdHJva2U6I0M4MjkzMDtzdHJva2Utd2lkdGg6MS4wOyIgd2lkdGg9IjYiIHg9IjU5MiIgeT0iNzguOTYwOSIvPjx0ZXh0IGZpbGw9IiMwMDAwMDAiIGZvbnQtZmFtaWx5PSJzYW5zLXNlcmlmIiBmb250LXNpemU9IjE0IiBsZW5ndGhBZGp1c3Q9InNwYWNpbmciIHRleHRMZW5ndGg9IjE1NCIgeD0iNjA0IiB5PSI4Ni4yMDMxIj5jdXJyZW50RGVwb3NpdDogZG91YmxlPC90ZXh0PjxyZWN0IGZpbGw9Im5vbmUiIGhlaWdodD0iNiIgc3R5bGU9InN0cm9rZTojQzgyOTMwO3N0cm9rZS13aWR0aDoxLjA7IiB3aWR0aD0iNiIgeD0iNTkyIiB5PSI5My45NDUzIi8+PHRleHQgZmlsbD0iIzAwMDAwMCIgZm9udC1mYW1pbHk9InNhbnMtc2VyaWYiIGZvbnQtc2l6ZT0iMTQiIGxlbmd0aEFkanVzdD0ic3BhY2luZyIgdGV4dExlbmd0aD0iMTQ3IiB4PSI2MDQiIHk9IjEwMS4xODc1Ij5zYXZpbmdEZXBvc2l0OiBkb3VibGU8L3RleHQ+PHJlY3QgZmlsbD0ibm9uZSIgaGVpZ2h0PSI2IiBzdHlsZT0ic3Ryb2tlOiNDODI5MzA7c3Ryb2tlLXdpZHRoOjEuMDsiIHdpZHRoPSI2IiB4PSI1OTIiIHk9IjEwOC45Mjk3Ii8+PHRleHQgZmlsbD0iIzAwMDAwMCIgZm9udC1mYW1pbHk9InNhbnMtc2VyaWYiIGZvbnQtc2l6ZT0iMTQiIGxlbmd0aEFkanVzdD0ic3BhY2luZyIgdGV4dExlbmd0aD0iMTI3IiB4PSI2MDQiIHk9IjExNi4xNzE5Ij5wYXJlbnROYW1lOiBTdHJpbmc8L3RleHQ+PGxpbmUgc3R5bGU9InN0cm9rZTojMTgxODE4O3N0cm9rZS13aWR0aDowLjU7IiB4MT0iNTg1IiB4Mj0iMTM3NyIgeTE9IjEyMS45MjE5IiB5Mj0iMTIxLjkyMTkiLz48ZWxsaXBzZSBjeD0iNTk1IiBjeT0iMTM0LjkxNDEiIGZpbGw9IiM4NEJFODQiIHJ4PSIzIiByeT0iMyIgc3R5bGU9InN0cm9rZTojMDM4MDQ4O3N0cm9rZS13aWR0aDoxLjA7Ii8+PHRleHQgZmlsbD0iIzAwMDAwMCIgZm9udC1mYW1pbHk9InNhbnMtc2VyaWYiIGZvbnQtc2l6ZT0iMTQiIGxlbmd0aEFkanVzdD0ic3BhY2luZyIgdGV4dExlbmd0aD0iNzY4IiB4PSI2MDQiIHk9IjEzOS4xNTYzIj5DaGlsZChjaGlsZE5hbWU6IFN0cmluZywgcGFzc3dvcmQ6IFN0cmluZywgY3VycmVudERlcG9zaXQ6IGRvdWJsZSwgc2F2aW5nRGVwb3NpdDogZG91YmxlLCBwYXJlbnROYW1lOiBTdHJpbmcpPC90ZXh0PjxlbGxpcHNlIGN4PSI1OTUiIGN5PSIxNDkuODk4NCIgZmlsbD0iIzg0QkU4NCIgcng9IjMiIHJ5PSIzIiBzdHlsZT0ic3Ryb2tlOiMwMzgwNDg7c3Ryb2tlLXdpZHRoOjEuMDsiLz48dGV4dCBmaWxsPSIjMDAwMDAwIiBmb250LWZhbWlseT0ic2Fucy1zZXJpZiIgZm9udC1zaXplPSIxNCIgbGVuZ3RoQWRqdXN0PSJzcGFjaW5nIiB0ZXh0TGVuZ3RoPSIxNTciIHg9IjYwNCIgeT0iMTU0LjE0MDYiPmdldENoaWxkTmFtZSgpOiBTdHJpbmc8L3RleHQ+PGVsbGlwc2UgY3g9IjU5NSIgY3k9IjE2NC44ODI4IiBmaWxsPSIjODRCRTg0IiByeD0iMyIgcnk9IjMiIHN0eWxlPSJzdHJva2U6IzAzODA0ODtzdHJva2Utd2lkdGg6MS4wOyIvPjx0ZXh0IGZpbGw9IiMwMDAwMDAiIGZvbnQtZmFtaWx5PSJzYW5zLXNlcmlmIiBmb250LXNpemU9IjE0IiBsZW5ndGhBZGp1c3Q9InNwYWNpbmciIHRleHRMZW5ndGg9IjI0OSIgeD0iNjA0IiB5PSIxNjkuMTI1Ij5zZXRQYXNzd29yZChwYXNzd29yZDogU3RyaW5nKTogdm9pZDwvdGV4dD48ZWxsaXBzZSBjeD0iNTk1IiBjeT0iMTc5Ljg2NzIiIGZpbGw9IiM4NEJFODQiIHJ4PSIzIiByeT0iMyIgc3R5bGU9InN0cm9rZTojMDM4MDQ4O3N0cm9rZS13aWR0aDoxLjA7Ii8+PHRleHQgZmlsbD0iIzAwMDAwMCIgZm9udC1mYW1pbHk9InNhbnMtc2VyaWYiIGZvbnQtc2l6ZT0iMTQiIGxlbmd0aEFkanVzdD0ic3BhY2luZyIgdGV4dExlbmd0aD0iMTUwIiB4PSI2MDQiIHk9IjE4NC4xMDk0Ij5nZXRQYXNzd29yZCgpOiBTdHJpbmc8L3RleHQ+PGVsbGlwc2UgY3g9IjU5NSIgY3k9IjE5NC44NTE2IiBmaWxsPSIjODRCRTg0IiByeD0iMyIgcnk9IjMiIHN0eWxlPSJzdHJva2U6IzAzODA0ODtzdHJva2Utd2lkdGg6MS4wOyIvPjx0ZXh0IGZpbGw9IiMwMDAwMDAiIGZvbnQtZmFtaWx5PSJzYW5zLXNlcmlmIiBmb250LXNpemU9IjE0IiBsZW5ndGhBZGp1c3Q9InNwYWNpbmciIHRleHRMZW5ndGg9IjMzMSIgeD0iNjA0IiB5PSIxOTkuMDkzOCI+c2V0Q3VycmVudERlcG9zaXQoY3VycmVudERlcG9zaXQ6IGRvdWJsZSk6IHZvaWQ8L3RleHQ+PGVsbGlwc2UgY3g9IjU5NSIgY3k9IjIwOS44MzU5IiBmaWxsPSIjODRCRTg0IiByeD0iMyIgcnk9IjMiIHN0eWxlPSJzdHJva2U6IzAzODA0ODtzdHJva2Utd2lkdGg6MS4wOyIvPjx0ZXh0IGZpbGw9IiMwMDAwMDAiIGZvbnQtZmFtaWx5PSJzYW5zLXNlcmlmIiBmb250LXNpemU9IjE0IiBsZW5ndGhBZGp1c3Q9InNwYWNpbmciIHRleHRMZW5ndGg9IjE5MSIgeD0iNjA0IiB5PSIyMTQuMDc4MSI+Z2V0Q3VycmVudERlcG9zaXQoKTogZG91YmxlPC90ZXh0PjxlbGxpcHNlIGN4PSI1OTUiIGN5PSIyMjQuODIwMyIgZmlsbD0iIzg0QkU4NCIgcng9IjMiIHJ5PSIzIiBzdHlsZT0ic3Ryb2tlOiMwMzgwNDg7c3Ryb2tlLXdpZHRoOjEuMDsiLz48dGV4dCBmaWxsPSIjMDAwMDAwIiBmb250LWZhbWlseT0ic2Fucy1zZXJpZiIgZm9udC1zaXplPSIxNCIgbGVuZ3RoQWRqdXN0PSJzcGFjaW5nIiB0ZXh0TGVuZ3RoPSIzMTciIHg9IjYwNCIgeT0iMjI5LjA2MjUiPnNldFNhdmluZ0RlcG9zaXQoc2F2aW5nRGVwb3NpdDogZG91YmxlKTogdm9pZDwvdGV4dD48ZWxsaXBzZSBjeD0iNTk1IiBjeT0iMjM5LjgwNDciIGZpbGw9IiM4NEJFODQiIHJ4PSIzIiByeT0iMyIgc3R5bGU9InN0cm9rZTojMDM4MDQ4O3N0cm9rZS13aWR0aDoxLjA7Ii8+PHRleHQgZmlsbD0iIzAwMDAwMCIgZm9udC1mYW1pbHk9InNhbnMtc2VyaWYiIGZvbnQtc2l6ZT0iMTQiIGxlbmd0aEFkanVzdD0ic3BhY2luZyIgdGV4dExlbmd0aD0iMTg0IiB4PSI2MDQiIHk9IjI0NC4wNDY5Ij5nZXRTYXZpbmdEZXBvc2l0KCk6IGRvdWJsZTwvdGV4dD48ZWxsaXBzZSBjeD0iNTk1IiBjeT0iMjU0Ljc4OTEiIGZpbGw9IiM4NEJFODQiIHJ4PSIzIiByeT0iMyIgc3R5bGU9InN0cm9rZTojMDM4MDQ4O3N0cm9rZS13aWR0aDoxLjA7Ii8+PHRleHQgZmlsbD0iIzAwMDAwMCIgZm9udC1mYW1pbHk9InNhbnMtc2VyaWYiIGZvbnQtc2l6ZT0iMTQiIGxlbmd0aEFkanVzdD0ic3BhY2luZyIgdGV4dExlbmd0aD0iMjc3IiB4PSI2MDQiIHk9IjI1OS4wMzEzIj5zZXRQYXJlbnROYW1lKHBhcmVudE5hbWU6IFN0cmluZyk6IHZvaWQ8L3RleHQ+PGVsbGlwc2UgY3g9IjU5NSIgY3k9IjI2OS43NzM0IiBmaWxsPSIjODRCRTg0IiByeD0iMyIgcnk9IjMiIHN0eWxlPSJzdHJva2U6IzAzODA0ODtzdHJva2Utd2lkdGg6MS4wOyIvPjx0ZXh0IGZpbGw9IiMwMDAwMDAiIGZvbnQtZmFtaWx5PSJzYW5zLXNlcmlmIiBmb250LXNpemU9IjE0IiBsZW5ndGhBZGp1c3Q9InNwYWNpbmciIHRleHRMZW5ndGg9IjE2NCIgeD0iNjA0IiB5PSIyNzQuMDE1NiI+Z2V0UGFyZW50TmFtZSgpOiBTdHJpbmc8L3RleHQ+PC9nPjwhLS1jbGFzcyBQYXJlbnQtLT48ZyBpZD0iZWxlbV9QYXJlbnQiPjxyZWN0IGNvZGVMaW5lPSIzNCIgZmlsbD0iI0YxRjFGMSIgaGVpZ2h0PSIxNTIuODkwNiIgaWQ9IlBhcmVudCIgcng9IjIuNSIgcnk9IjIuNSIgc3R5bGU9InN0cm9rZTojMTgxODE4O3N0cm9rZS13aWR0aDowLjU7IiB3aWR0aD0iMzM4IiB4PSIxNDEzIiB5PSI2NyIvPjxlbGxpcHNlIGN4PSIxNTU2Ljc1IiBjeT0iODMiIGZpbGw9IiNBREQxQjIiIHJ4PSIxMSIgcnk9IjExIiBzdHlsZT0ic3Ryb2tlOiMxODE4MTg7c3Ryb2tlLXdpZHRoOjEuMDsiLz48cGF0aCBkPSJNMTU1NC4zNzUsODcuMjUgTDE1NTQuMzc1LDg5IEwxNTU5LjMxMjUsODkgTDE1NTkuMzEyNSw4Ny4yNSBMMTU1NC4zNzUsODcuMjUgWiBNMTU1NS4wNjI1LDg3LjkzNzUgUTE1NTUuMDYyNSw4Ny45Mzc1IDE1NTUuMDYyNSw3OC43NSBMMTU1My4zMTI1LDc4Ljc1IFExNTUzLjMxMjUsNzguNzUgMTU1My4zMTI1LDg3LjkzNzUgTDE1NTUuMDYyNSw4Ny45Mzc1IFogTTE1NTguNjI1LDg3LjkzNzUgTDE1NjAuMzc1LDg3LjkzNzUgUTE1NjAuMzc1LDg3LjkzNzUgMTU2MC4zNzUsODUuMTI1IEwxNTU4LjYyNSw4NS4xMjUgUTE1NTguNjI1LDg1LjEyNSAxNTU4LjYyNSw4Ny45Mzc1IFogTTE1NTguNjI1LDc4Ljc1IFExNTU4LjYyNSw3OC43NSAxNTU4LjYyNSw4MS41NjI1IEwxNTYwLjM3NSw4MS41NjI1IFExNTYwLjM3NSw4MS41NjI1IDE1NjAuMzc1LDc4Ljc1IEwxNTU4LjYyNSw3OC43NSBaIE0xNTU0LjM3NSw3OS40Mzc1IEwxNTU5LjMxMjUsNzkuNDM3NSBMMTU1OS4zMTI1LDc3LjY4NzUgTDE1NTQuMzc1LDc3LjY4NzUgTDE1NTQuMzc1LDc5LjQzNzUgWiAiIGZpbGw9IiMwMDAwMDAiLz48dGV4dCBmaWxsPSIjMDAwMDAwIiBmb250LWZhbWlseT0ic2Fucy1zZXJpZiIgZm9udC1zaXplPSIxNCIgbGVuZ3RoQWRqdXN0PSJzcGFjaW5nIiB0ZXh0TGVuZ3RoPSI0MiIgeD0iMTU3Ny4yNSIgeT0iODguNzQyMiI+UGFyZW50PC90ZXh0PjxsaW5lIHN0eWxlPSJzdHJva2U6IzE4MTgxODtzdHJva2Utd2lkdGg6MC41OyIgeDE9IjE0MTQiIHgyPSIxNzUwIiB5MT0iOTkiIHkyPSI5OSIvPjxyZWN0IGZpbGw9Im5vbmUiIGhlaWdodD0iNiIgc3R5bGU9InN0cm9rZTojQzgyOTMwO3N0cm9rZS13aWR0aDoxLjA7IiB3aWR0aD0iNiIgeD0iMTQyMSIgeT0iMTA4Ljk5MjIiLz48dGV4dCBmaWxsPSIjMDAwMDAwIiBmb250LWZhbWlseT0ic2Fucy1zZXJpZiIgZm9udC1zaXplPSIxNCIgbGVuZ3RoQWRqdXN0PSJzcGFjaW5nIiB0ZXh0TGVuZ3RoPSIxMjciIHg9IjE0MzMiIHk9IjExNi4yMzQ0Ij5wYXJlbnROYW1lOiBTdHJpbmc8L3RleHQ+PHJlY3QgZmlsbD0ibm9uZSIgaGVpZ2h0PSI2IiBzdHlsZT0ic3Ryb2tlOiNDODI5MzA7c3Ryb2tlLXdpZHRoOjEuMDsiIHdpZHRoPSI2IiB4PSIxNDIxIiB5PSIxMjMuOTc2NiIvPjx0ZXh0IGZpbGw9IiMwMDAwMDAiIGZvbnQtZmFtaWx5PSJzYW5zLXNlcmlmIiBmb250LXNpemU9IjE0IiBsZW5ndGhBZGp1c3Q9InNwYWNpbmciIHRleHRMZW5ndGg9IjExMyIgeD0iMTQzMyIgeT0iMTMxLjIxODgiPnBhc3N3b3JkOiBTdHJpbmc8L3RleHQ+PGxpbmUgc3R5bGU9InN0cm9rZTojMTgxODE4O3N0cm9rZS13aWR0aDowLjU7IiB4MT0iMTQxNCIgeDI9IjE3NTAiIHkxPSIxMzYuOTY4OCIgeTI9IjEzNi45Njg4Ii8+PGVsbGlwc2UgY3g9IjE0MjQiIGN5PSIxNDkuOTYwOSIgZmlsbD0iIzg0QkU4NCIgcng9IjMiIHJ5PSIzIiBzdHlsZT0ic3Ryb2tlOiMwMzgwNDg7c3Ryb2tlLXdpZHRoOjEuMDsiLz48dGV4dCBmaWxsPSIjMDAwMDAwIiBmb250LWZhbWlseT0ic2Fucy1zZXJpZiIgZm9udC1zaXplPSIxNCIgbGVuZ3RoQWRqdXN0PSJzcGFjaW5nIiB0ZXh0TGVuZ3RoPSIzMTIiIHg9IjE0MzMiIHk9IjE1NC4yMDMxIj5QYXJlbnQocGFyZW50TmFtZTogU3RyaW5nLCBwYXNzd29yZDogU3RyaW5nKTwvdGV4dD48ZWxsaXBzZSBjeD0iMTQyNCIgY3k9IjE2NC45NDUzIiBmaWxsPSIjODRCRTg0IiByeD0iMyIgcnk9IjMiIHN0eWxlPSJzdHJva2U6IzAzODA0ODtzdHJva2Utd2lkdGg6MS4wOyIvPjx0ZXh0IGZpbGw9IiMwMDAwMDAiIGZvbnQtZmFtaWx5PSJzYW5zLXNlcmlmIiBmb250LXNpemU9IjE0IiBsZW5ndGhBZGp1c3Q9InNwYWNpbmciIHRleHRMZW5ndGg9IjE2NCIgeD0iMTQzMyIgeT0iMTY5LjE4NzUiPmdldFBhcmVudE5hbWUoKTogU3RyaW5nPC90ZXh0PjxlbGxpcHNlIGN4PSIxNDI0IiBjeT0iMTc5LjkyOTciIGZpbGw9IiM4NEJFODQiIHJ4PSIzIiByeT0iMyIgc3R5bGU9InN0cm9rZTojMDM4MDQ4O3N0cm9rZS13aWR0aDoxLjA7Ii8+PHRleHQgZmlsbD0iIzAwMDAwMCIgZm9udC1mYW1pbHk9InNhbnMtc2VyaWYiIGZvbnQtc2l6ZT0iMTQiIGxlbmd0aEFkanVzdD0ic3BhY2luZyIgdGV4dExlbmd0aD0iMjc3IiB4PSIxNDMzIiB5PSIxODQuMTcxOSI+c2V0UGFyZW50TmFtZShwYXJlbnROYW1lOiBTdHJpbmcpOiB2b2lkPC90ZXh0PjxlbGxpcHNlIGN4PSIxNDI0IiBjeT0iMTk0LjkxNDEiIGZpbGw9IiM4NEJFODQiIHJ4PSIzIiByeT0iMyIgc3R5bGU9InN0cm9rZTojMDM4MDQ4O3N0cm9rZS13aWR0aDoxLjA7Ii8+PHRleHQgZmlsbD0iIzAwMDAwMCIgZm9udC1mYW1pbHk9InNhbnMtc2VyaWYiIGZvbnQtc2l6ZT0iMTQiIGxlbmd0aEFkanVzdD0ic3BhY2luZyIgdGV4dExlbmd0aD0iMTUwIiB4PSIxNDMzIiB5PSIxOTkuMTU2MyI+Z2V0UGFzc3dvcmQoKTogU3RyaW5nPC90ZXh0PjxlbGxpcHNlIGN4PSIxNDI0IiBjeT0iMjA5Ljg5ODQiIGZpbGw9IiM4NEJFODQiIHJ4PSIzIiByeT0iMyIgc3R5bGU9InN0cm9rZTojMDM4MDQ4O3N0cm9rZS13aWR0aDoxLjA7Ii8+PHRleHQgZmlsbD0iIzAwMDAwMCIgZm9udC1mYW1pbHk9InNhbnMtc2VyaWYiIGZvbnQtc2l6ZT0iMTQiIGxlbmd0aEFkanVzdD0ic3BhY2luZyIgdGV4dExlbmd0aD0iMjQ5IiB4PSIxNDMzIiB5PSIyMTQuMTQwNiI+c2V0UGFzc3dvcmQocGFzc3dvcmQ6IFN0cmluZyk6IHZvaWQ8L3RleHQ+PC9nPjwhLS1jbGFzcyBUYXNrLS0+PGcgaWQ9ImVsZW1fVGFzayI+PHJlY3QgY29kZUxpbmU9IjQ0IiBmaWxsPSIjRjFGMUYxIiBoZWlnaHQ9IjE5Ny44NDM4IiBpZD0iVGFzayIgcng9IjIuNSIgcnk9IjIuNSIgc3R5bGU9InN0cm9rZTojMTgxODE4O3N0cm9rZS13aWR0aDowLjU7IiB3aWR0aD0iNDczIiB4PSIxNzg1LjUiIHk9IjQ0LjUiLz48ZWxsaXBzZSBjeD0iMjAwMy43NSIgY3k9IjYwLjUiIGZpbGw9IiNBREQxQjIiIHJ4PSIxMSIgcnk9IjExIiBzdHlsZT0ic3Ryb2tlOiMxODE4MTg7c3Ryb2tlLXdpZHRoOjEuMDsiLz48cGF0aCBkPSJNMjAwMS4zNzUsNjQuNzUgTDIwMDEuMzc1LDY2LjUgTDIwMDYuMzEyNSw2Ni41IEwyMDA2LjMxMjUsNjQuNzUgTDIwMDEuMzc1LDY0Ljc1IFogTTIwMDIuMDYyNSw2NS40Mzc1IFEyMDAyLjA2MjUsNjUuNDM3NSAyMDAyLjA2MjUsNTYuMjUgTDIwMDAuMzEyNSw1Ni4yNSBRMjAwMC4zMTI1LDU2LjI1IDIwMDAuMzEyNSw2NS40Mzc1IEwyMDAyLjA2MjUsNjUuNDM3NSBaIE0yMDA1LjYyNSw2NS40Mzc1IEwyMDA3LjM3NSw2NS40Mzc1IFEyMDA3LjM3NSw2NS40Mzc1IDIwMDcuMzc1LDYyLjYyNSBMMjAwNS42MjUsNjIuNjI1IFEyMDA1LjYyNSw2Mi42MjUgMjAwNS42MjUsNjUuNDM3NSBaIE0yMDA1LjYyNSw1Ni4yNSBRMjAwNS42MjUsNTYuMjUgMjAwNS42MjUsNTkuMDYyNSBMMjAwNy4zNzUsNTkuMDYyNSBRMjAwNy4zNzUsNTkuMDYyNSAyMDA3LjM3NSw1Ni4yNSBMMjAwNS42MjUsNTYuMjUgWiBNMjAwMS4zNzUsNTYuOTM3NSBMMjAwNi4zMTI1LDU2LjkzNzUgTDIwMDYuMzEyNSw1NS4xODc1IEwyMDAxLjM3NSw1NS4xODc1IEwyMDAxLjM3NSw1Ni45Mzc1IFogIiBmaWxsPSIjMDAwMDAwIi8+PHRleHQgZmlsbD0iIzAwMDAwMCIgZm9udC1mYW1pbHk9InNhbnMtc2VyaWYiIGZvbnQtc2l6ZT0iMTQiIGxlbmd0aEFkanVzdD0ic3BhY2luZyIgdGV4dExlbmd0aD0iMjgiIHg9IjIwMjQuMjUiIHk9IjY2LjI0MjIiPlRhc2s8L3RleHQ+PGxpbmUgc3R5bGU9InN0cm9rZTojMTgxODE4O3N0cm9rZS13aWR0aDowLjU7IiB4MT0iMTc4Ni41IiB4Mj0iMjI1Ny41IiB5MT0iNzYuNSIgeTI9Ijc2LjUiLz48cmVjdCBmaWxsPSJub25lIiBoZWlnaHQ9IjYiIHN0eWxlPSJzdHJva2U6I0M4MjkzMDtzdHJva2Utd2lkdGg6MS4wOyIgd2lkdGg9IjYiIHg9IjE3OTMuNSIgeT0iODYuNDkyMiIvPjx0ZXh0IGZpbGw9IiMwMDAwMDAiIGZvbnQtZmFtaWx5PSJzYW5zLXNlcmlmIiBmb250LXNpemU9IjE0IiBsZW5ndGhBZGp1c3Q9InNwYWNpbmciIHRleHRMZW5ndGg9IjExMyIgeD0iMTgwNS41IiB5PSI5My43MzQ0Ij50YXNrTmFtZTogU3RyaW5nPC90ZXh0PjxyZWN0IGZpbGw9Im5vbmUiIGhlaWdodD0iNiIgc3R5bGU9InN0cm9rZTojQzgyOTMwO3N0cm9rZS13aWR0aDoxLjA7IiB3aWR0aD0iNiIgeD0iMTc5My41IiB5PSIxMDEuNDc2NiIvPjx0ZXh0IGZpbGw9IiMwMDAwMDAiIGZvbnQtZmFtaWx5PSJzYW5zLXNlcmlmIiBmb250LXNpemU9IjE0IiBsZW5ndGhBZGp1c3Q9InNwYWNpbmciIHRleHRMZW5ndGg9IjEzNSIgeD0iMTgwNS41IiB5PSIxMDguNzE4OCI+bW9uZXlSZXdhcmQ6IGRvdWJsZTwvdGV4dD48cmVjdCBmaWxsPSJub25lIiBoZWlnaHQ9IjYiIHN0eWxlPSJzdHJva2U6I0M4MjkzMDtzdHJva2Utd2lkdGg6MS4wOyIgd2lkdGg9IjYiIHg9IjE3OTMuNSIgeT0iMTE2LjQ2MDkiLz48dGV4dCBmaWxsPSIjMDAwMDAwIiBmb250LWZhbWlseT0ic2Fucy1zZXJpZiIgZm9udC1zaXplPSIxNCIgbGVuZ3RoQWRqdXN0PSJzcGFjaW5nIiB0ZXh0TGVuZ3RoPSIxMjciIHg9IjE4MDUuNSIgeT0iMTIzLjcwMzEiPnBhcmVudE5hbWU6IFN0cmluZzwvdGV4dD48bGluZSBzdHlsZT0ic3Ryb2tlOiMxODE4MTg7c3Ryb2tlLXdpZHRoOjAuNTsiIHgxPSIxNzg2LjUiIHgyPSIyMjU3LjUiIHkxPSIxMjkuNDUzMSIgeTI9IjEyOS40NTMxIi8+PGVsbGlwc2UgY3g9IjE3OTYuNSIgY3k9IjE0Mi40NDUzIiBmaWxsPSIjODRCRTg0IiByeD0iMyIgcnk9IjMiIHN0eWxlPSJzdHJva2U6IzAzODA0ODtzdHJva2Utd2lkdGg6MS4wOyIvPjx0ZXh0IGZpbGw9IiMwMDAwMDAiIGZvbnQtZmFtaWx5PSJzYW5zLXNlcmlmIiBmb250LXNpemU9IjE0IiBsZW5ndGhBZGp1c3Q9InNwYWNpbmciIHRleHRMZW5ndGg9IjQ0NyIgeD0iMTgwNS41IiB5PSIxNDYuNjg3NSI+VGFzayh0YXNrTmFtZTogU3RyaW5nLCBtb25leVJld2FyZDogZG91YmxlLCBwYXJlbnROYW1lOiBTdHJpbmcpPC90ZXh0PjxlbGxpcHNlIGN4PSIxNzk2LjUiIGN5PSIxNTcuNDI5NyIgZmlsbD0iIzg0QkU4NCIgcng9IjMiIHJ5PSIzIiBzdHlsZT0ic3Ryb2tlOiMwMzgwNDg7c3Ryb2tlLXdpZHRoOjEuMDsiLz48dGV4dCBmaWxsPSIjMDAwMDAwIiBmb250LWZhbWlseT0ic2Fucy1zZXJpZiIgZm9udC1zaXplPSIxNCIgbGVuZ3RoQWRqdXN0PSJzcGFjaW5nIiB0ZXh0TGVuZ3RoPSIxNTAiIHg9IjE4MDUuNSIgeT0iMTYxLjY3MTkiPmdldFRhc2tOYW1lKCk6IFN0cmluZzwvdGV4dD48ZWxsaXBzZSBjeD0iMTc5Ni41IiBjeT0iMTcyLjQxNDEiIGZpbGw9IiM4NEJFODQiIHJ4PSIzIiByeT0iMyIgc3R5bGU9InN0cm9rZTojMDM4MDQ4O3N0cm9rZS13aWR0aDoxLjA7Ii8+PHRleHQgZmlsbD0iIzAwMDAwMCIgZm9udC1mYW1pbHk9InNhbnMtc2VyaWYiIGZvbnQtc2l6ZT0iMTQiIGxlbmd0aEFkanVzdD0ic3BhY2luZyIgdGV4dExlbmd0aD0iMjQ5IiB4PSIxODA1LjUiIHk9IjE3Ni42NTYzIj5zZXRUYXNrTmFtZSh0YXNrTmFtZTogU3RyaW5nKTogdm9pZDwvdGV4dD48ZWxsaXBzZSBjeD0iMTc5Ni41IiBjeT0iMTg3LjM5ODQiIGZpbGw9IiM4NEJFODQiIHJ4PSIzIiByeT0iMyIgc3R5bGU9InN0cm9rZTojMDM4MDQ4O3N0cm9rZS13aWR0aDoxLjA7Ii8+PHRleHQgZmlsbD0iIzAwMDAwMCIgZm9udC1mYW1pbHk9InNhbnMtc2VyaWYiIGZvbnQtc2l6ZT0iMTQiIGxlbmd0aEFkanVzdD0ic3BhY2luZyIgdGV4dExlbmd0aD0iMTcxIiB4PSIxODA1LjUiIHk9IjE5MS42NDA2Ij5nZXRNb25leVJld2FyZCgpOiBkb3VibGU8L3RleHQ+PGVsbGlwc2UgY3g9IjE3OTYuNSIgY3k9IjIwMi4zODI4IiBmaWxsPSIjODRCRTg0IiByeD0iMyIgcnk9IjMiIHN0eWxlPSJzdHJva2U6IzAzODA0ODtzdHJva2Utd2lkdGg6MS4wOyIvPjx0ZXh0IGZpbGw9IiMwMDAwMDAiIGZvbnQtZmFtaWx5PSJzYW5zLXNlcmlmIiBmb250LXNpemU9IjE0IiBsZW5ndGhBZGp1c3Q9InNwYWNpbmciIHRleHRMZW5ndGg9IjI5MiIgeD0iMTgwNS41IiB5PSIyMDYuNjI1Ij5zZXRNb25leVJld2FyZChtb25leVJld2FyZDogZG91YmxlKTogdm9pZDwvdGV4dD48ZWxsaXBzZSBjeD0iMTc5Ni41IiBjeT0iMjE3LjM2NzIiIGZpbGw9IiM4NEJFODQiIHJ4PSIzIiByeT0iMyIgc3R5bGU9InN0cm9rZTojMDM4MDQ4O3N0cm9rZS13aWR0aDoxLjA7Ii8+PHRleHQgZmlsbD0iIzAwMDAwMCIgZm9udC1mYW1pbHk9InNhbnMtc2VyaWYiIGZvbnQtc2l6ZT0iMTQiIGxlbmd0aEFkanVzdD0ic3BhY2luZyIgdGV4dExlbmd0aD0iMTY0IiB4PSIxODA1LjUiIHk9IjIyMS42MDk0Ij5nZXRQYXJlbnROYW1lKCk6IFN0cmluZzwvdGV4dD48ZWxsaXBzZSBjeD0iMTc5Ni41IiBjeT0iMjMyLjM1MTYiIGZpbGw9IiM4NEJFODQiIHJ4PSIzIiByeT0iMyIgc3R5bGU9InN0cm9rZTojMDM4MDQ4O3N0cm9rZS13aWR0aDoxLjA7Ii8+PHRleHQgZmlsbD0iIzAwMDAwMCIgZm9udC1mYW1pbHk9InNhbnMtc2VyaWYiIGZvbnQtc2l6ZT0iMTQiIGxlbmd0aEFkanVzdD0ic3BhY2luZyIgdGV4dExlbmd0aD0iMjc3IiB4PSIxODA1LjUiIHk9IjIzNi41OTM4Ij5zZXRQYXJlbnROYW1lKHBhcmVudE5hbWU6IFN0cmluZyk6IHZvaWQ8L3RleHQ+PC9nPjwhLS1jbGFzcyBUYXNrV29ya0xvZy0tPjxnIGlkPSJlbGVtX1Rhc2tXb3JrTG9nIj48cmVjdCBjb2RlTGluZT0iNTciIGZpbGw9IiNGMUYxRjEiIGhlaWdodD0iMjQyLjc5NjkiIGlkPSJUYXNrV29ya0xvZyIgcng9IjIuNSIgcnk9IjIuNSIgc3R5bGU9InN0cm9rZTojMTgxODE4O3N0cm9rZS13aWR0aDowLjU7IiB3aWR0aD0iNTc3IiB4PSIyMjkzLjUiIHk9IjIyIi8+PGVsbGlwc2UgY3g9IjI1MzkuMjUiIGN5PSIzOCIgZmlsbD0iI0FERDFCMiIgcng9IjExIiByeT0iMTEiIHN0eWxlPSJzdHJva2U6IzE4MTgxODtzdHJva2Utd2lkdGg6MS4wOyIvPjxwYXRoIGQ9Ik0yNTM2Ljg3NSw0Mi4yNSBMMjUzNi44NzUsNDQgTDI1NDEuODEyNSw0NCBMMjU0MS44MTI1LDQyLjI1IEwyNTM2Ljg3NSw0Mi4yNSBaIE0yNTM3LjU2MjUsNDIuOTM3NSBRMjUzNy41NjI1LDQyLjkzNzUgMjUzNy41NjI1LDMzLjc1IEwyNTM1LjgxMjUsMzMuNzUgUTI1MzUuODEyNSwzMy43NSAyNTM1LjgxMjUsNDIuOTM3NSBMMjUzNy41NjI1LDQyLjkzNzUgWiBNMjU0MS4xMjUsNDIuOTM3NSBMMjU0Mi44NzUsNDIuOTM3NSBRMjU0Mi44NzUsNDIuOTM3NSAyNTQyLjg3NSw0MC4xMjUgTDI1NDEuMTI1LDQwLjEyNSBRMjU0MS4xMjUsNDAuMTI1IDI1NDEuMTI1LDQyLjkzNzUgWiBNMjU0MS4xMjUsMzMuNzUgUTI1NDEuMTI1LDMzLjc1IDI1NDEuMTI1LDM2LjU2MjUgTDI1NDIuODc1LDM2LjU2MjUgUTI1NDIuODc1LDM2LjU2MjUgMjU0Mi44NzUsMzMuNzUgTDI1NDEuMTI1LDMzLjc1IFogTTI1MzYuODc1LDM0LjQzNzUgTDI1NDEuODEyNSwzNC40Mzc1IEwyNTQxLjgxMjUsMzIuNjg3NSBMMjUzNi44NzUsMzIuNjg3NSBMMjUzNi44NzUsMzQuNDM3NSBaICIgZmlsbD0iIzAwMDAwMCIvPjx0ZXh0IGZpbGw9IiMwMDAwMDAiIGZvbnQtZmFtaWx5PSJzYW5zLXNlcmlmIiBmb250LXNpemU9IjE0IiBsZW5ndGhBZGp1c3Q9InNwYWNpbmciIHRleHRMZW5ndGg9Ijc3IiB4PSIyNTU5Ljc1IiB5PSI0My43NDIyIj5UYXNrV29ya0xvZzwvdGV4dD48bGluZSBzdHlsZT0ic3Ryb2tlOiMxODE4MTg7c3Ryb2tlLXdpZHRoOjAuNTsiIHgxPSIyMjk0LjUiIHgyPSIyODY5LjUiIHkxPSI1NCIgeTI9IjU0Ii8+PHJlY3QgZmlsbD0ibm9uZSIgaGVpZ2h0PSI2IiBzdHlsZT0ic3Ryb2tlOiNDODI5MzA7c3Ryb2tlLXdpZHRoOjEuMDsiIHdpZHRoPSI2IiB4PSIyMzAxLjUiIHk9IjYzLjk5MjIiLz48dGV4dCBmaWxsPSIjMDAwMDAwIiBmb250LWZhbWlseT0ic2Fucy1zZXJpZiIgZm9udC1zaXplPSIxNCIgbGVuZ3RoQWRqdXN0PSJzcGFjaW5nIiB0ZXh0TGVuZ3RoPSIxMTMiIHg9IjIzMTMuNSIgeT0iNzEuMjM0NCI+dGFza05hbWU6IFN0cmluZzwvdGV4dD48cmVjdCBmaWxsPSJub25lIiBoZWlnaHQ9IjYiIHN0eWxlPSJzdHJva2U6I0M4MjkzMDtzdHJva2Utd2lkdGg6MS4wOyIgd2lkdGg9IjYiIHg9IjIzMDEuNSIgeT0iNzguOTc2NiIvPjx0ZXh0IGZpbGw9IiMwMDAwMDAiIGZvbnQtZmFtaWx5PSJzYW5zLXNlcmlmIiBmb250LXNpemU9IjE0IiBsZW5ndGhBZGp1c3Q9InNwYWNpbmciIHRleHRMZW5ndGg9IjEyMCIgeD0iMjMxMy41IiB5PSI4Ni4yMTg4Ij5jaGlsZE5hbWU6IFN0cmluZzwvdGV4dD48cmVjdCBmaWxsPSJub25lIiBoZWlnaHQ9IjYiIHN0eWxlPSJzdHJva2U6I0M4MjkzMDtzdHJva2Utd2lkdGg6MS4wOyIgd2lkdGg9IjYiIHg9IjIzMDEuNSIgeT0iOTMuOTYwOSIvPjx0ZXh0IGZpbGw9IiMwMDAwMDAiIGZvbnQtZmFtaWx5PSJzYW5zLXNlcmlmIiBmb250LXNpemU9IjE0IiBsZW5ndGhBZGp1c3Q9InNwYWNpbmciIHRleHRMZW5ndGg9Ijk4IiB4PSIyMzEzLjUiIHk9IjEwMS4yMDMxIj5zdGF0dXM6IFN0cmluZzwvdGV4dD48cmVjdCBmaWxsPSJub25lIiBoZWlnaHQ9IjYiIHN0eWxlPSJzdHJva2U6I0M4MjkzMDtzdHJva2Utd2lkdGg6MS4wOyIgd2lkdGg9IjYiIHg9IjIzMDEuNSIgeT0iMTA4Ljk0NTMiLz48dGV4dCBmaWxsPSIjMDAwMDAwIiBmb250LWZhbWlseT0ic2Fucy1zZXJpZiIgZm9udC1zaXplPSIxNCIgbGVuZ3RoQWRqdXN0PSJzcGFjaW5nIiB0ZXh0TGVuZ3RoPSI4NSIgeD0iMjMxMy41IiB5PSIxMTYuMTg3NSI+dGltZTogU3RyaW5nPC90ZXh0PjxsaW5lIHN0eWxlPSJzdHJva2U6IzE4MTgxODtzdHJva2Utd2lkdGg6MC41OyIgeDE9IjIyOTQuNSIgeDI9IjI4NjkuNSIgeTE9IjEyMS45Mzc1IiB5Mj0iMTIxLjkzNzUiLz48ZWxsaXBzZSBjeD0iMjMwNC41IiBjeT0iMTM0LjkyOTciIGZpbGw9IiM4NEJFODQiIHJ4PSIzIiByeT0iMyIgc3R5bGU9InN0cm9rZTojMDM4MDQ4O3N0cm9rZS13aWR0aDoxLjA7Ii8+PHRleHQgZmlsbD0iIzAwMDAwMCIgZm9udC1mYW1pbHk9InNhbnMtc2VyaWYiIGZvbnQtc2l6ZT0iMTQiIGxlbmd0aEFkanVzdD0ic3BhY2luZyIgdGV4dExlbmd0aD0iNTUxIiB4PSIyMzEzLjUiIHk9IjEzOS4xNzE5Ij5UYXNrV29ya0xvZyh0YXNrTmFtZTogU3RyaW5nLCBjaGlsZE5hbWU6IFN0cmluZywgc3RhdHVzOiBTdHJpbmcsIHRpbWU6IFN0cmluZyk8L3RleHQ+PGVsbGlwc2UgY3g9IjIzMDQuNSIgY3k9IjE0OS45MTQxIiBmaWxsPSIjODRCRTg0IiByeD0iMyIgcnk9IjMiIHN0eWxlPSJzdHJva2U6IzAzODA0ODtzdHJva2Utd2lkdGg6MS4wOyIvPjx0ZXh0IGZpbGw9IiMwMDAwMDAiIGZvbnQtZmFtaWx5PSJzYW5zLXNlcmlmIiBmb250LXNpemU9IjE0IiBsZW5ndGhBZGp1c3Q9InNwYWNpbmciIHRleHRMZW5ndGg9IjE1MCIgeD0iMjMxMy41IiB5PSIxNTQuMTU2MyI+Z2V0VGFza05hbWUoKTogU3RyaW5nPC90ZXh0PjxlbGxpcHNlIGN4PSIyMzA0LjUiIGN5PSIxNjQuODk4NCIgZmlsbD0iIzg0QkU4NCIgcng9IjMiIHJ5PSIzIiBzdHlsZT0ic3Ryb2tlOiMwMzgwNDg7c3Ryb2tlLXdpZHRoOjEuMDsiLz48dGV4dCBmaWxsPSIjMDAwMDAwIiBmb250LWZhbWlseT0ic2Fucy1zZXJpZiIgZm9udC1zaXplPSIxNCIgbGVuZ3RoQWRqdXN0PSJzcGFjaW5nIiB0ZXh0TGVuZ3RoPSIyNDkiIHg9IjIzMTMuNSIgeT0iMTY5LjE0MDYiPnNldFRhc2tOYW1lKHRhc2tOYW1lOiBTdHJpbmcpOiB2b2lkPC90ZXh0PjxlbGxpcHNlIGN4PSIyMzA0LjUiIGN5PSIxNzkuODgyOCIgZmlsbD0iIzg0QkU4NCIgcng9IjMiIHJ5PSIzIiBzdHlsZT0ic3Ryb2tlOiMwMzgwNDg7c3Ryb2tlLXdpZHRoOjEuMDsiLz48dGV4dCBmaWxsPSIjMDAwMDAwIiBmb250LWZhbWlseT0ic2Fucy1zZXJpZiIgZm9udC1zaXplPSIxNCIgbGVuZ3RoQWRqdXN0PSJzcGFjaW5nIiB0ZXh0TGVuZ3RoPSIxNTciIHg9IjIzMTMuNSIgeT0iMTg0LjEyNSI+Z2V0Q2hpbGROYW1lKCk6IFN0cmluZzwvdGV4dD48ZWxsaXBzZSBjeD0iMjMwNC41IiBjeT0iMTk0Ljg2NzIiIGZpbGw9IiM4NEJFODQiIHJ4PSIzIiByeT0iMyIgc3R5bGU9InN0cm9rZTojMDM4MDQ4O3N0cm9rZS13aWR0aDoxLjA7Ii8+PHRleHQgZmlsbD0iIzAwMDAwMCIgZm9udC1mYW1pbHk9InNhbnMtc2VyaWYiIGZvbnQtc2l6ZT0iMTQiIGxlbmd0aEFkanVzdD0ic3BhY2luZyIgdGV4dExlbmd0aD0iMjYzIiB4PSIyMzEzLjUiIHk9IjE5OS4xMDk0Ij5zZXRDaGlsZE5hbWUoY2hpbGROYW1lOiBTdHJpbmcpOiB2b2lkPC90ZXh0PjxlbGxpcHNlIGN4PSIyMzA0LjUiIGN5PSIyMDkuODUxNiIgZmlsbD0iIzg0QkU4NCIgcng9IjMiIHJ5PSIzIiBzdHlsZT0ic3Ryb2tlOiMwMzgwNDg7c3Ryb2tlLXdpZHRoOjEuMDsiLz48dGV4dCBmaWxsPSIjMDAwMDAwIiBmb250LWZhbWlseT0ic2Fucy1zZXJpZiIgZm9udC1zaXplPSIxNCIgbGVuZ3RoQWRqdXN0PSJzcGFjaW5nIiB0ZXh0TGVuZ3RoPSIxMzUiIHg9IjIzMTMuNSIgeT0iMjE0LjA5MzgiPmdldFN0YXR1cygpOiBTdHJpbmc8L3RleHQ+PGVsbGlwc2UgY3g9IjIzMDQuNSIgY3k9IjIyNC44MzU5IiBmaWxsPSIjODRCRTg0IiByeD0iMyIgcnk9IjMiIHN0eWxlPSJzdHJva2U6IzAzODA0ODtzdHJva2Utd2lkdGg6MS4wOyIvPjx0ZXh0IGZpbGw9IiMwMDAwMDAiIGZvbnQtZmFtaWx5PSJzYW5zLXNlcmlmIiBmb250LXNpemU9IjE0IiBsZW5ndGhBZGp1c3Q9InNwYWNpbmciIHRleHRMZW5ndGg9IjIxOSIgeD0iMjMxMy41IiB5PSIyMjkuMDc4MSI+c2V0U3RhdHVzKHN0YXR1czogU3RyaW5nKTogdm9pZDwvdGV4dD48ZWxsaXBzZSBjeD0iMjMwNC41IiBjeT0iMjM5LjgyMDMiIGZpbGw9IiM4NEJFODQiIHJ4PSIzIiByeT0iMyIgc3R5bGU9InN0cm9rZTojMDM4MDQ4O3N0cm9rZS13aWR0aDoxLjA7Ii8+PHRleHQgZmlsbD0iIzAwMDAwMCIgZm9udC1mYW1pbHk9InNhbnMtc2VyaWYiIGZvbnQtc2l6ZT0iMTQiIGxlbmd0aEFkanVzdD0ic3BhY2luZyIgdGV4dExlbmd0aD0iMTIyIiB4PSIyMzEzLjUiIHk9IjI0NC4wNjI1Ij5nZXRUaW1lKCk6IFN0cmluZzwvdGV4dD48ZWxsaXBzZSBjeD0iMjMwNC41IiBjeT0iMjU0LjgwNDciIGZpbGw9IiM4NEJFODQiIHJ4PSIzIiByeT0iMyIgc3R5bGU9InN0cm9rZTojMDM4MDQ4O3N0cm9rZS13aWR0aDoxLjA7Ii8+PHRleHQgZmlsbD0iIzAwMDAwMCIgZm9udC1mYW1pbHk9InNhbnMtc2VyaWYiIGZvbnQtc2l6ZT0iMTQiIGxlbmd0aEFkanVzdD0ic3BhY2luZyIgdGV4dExlbmd0aD0iMTkzIiB4PSIyMzEzLjUiIHk9IjI1OS4wNDY5Ij5zZXRUaW1lKHRpbWU6IFN0cmluZyk6IHZvaWQ8L3RleHQ+PC9nPjwhLS1jbGFzcyBDaGlsZHJlbkFjY291bnRHVUktLT48ZyBpZD0iZWxlbV9DaGlsZHJlbkFjY291bnRHVUkiPjxyZWN0IGNvZGVMaW5lPSI3MyIgZmlsbD0iI0YxRjFGMSIgaGVpZ2h0PSI3Ny45Njg4IiBpZD0iQ2hpbGRyZW5BY2NvdW50R1VJIiByeD0iMi41IiByeT0iMi41IiBzdHlsZT0ic3Ryb2tlOiMxODE4MTg7c3Ryb2tlLXdpZHRoOjAuNTsiIHdpZHRoPSIyODgiIHg9IjI5MDYiIHk9IjEwNC41Ii8+PGVsbGlwc2UgY3g9IjI5ODIuNzUiIGN5PSIxMjAuNSIgZmlsbD0iI0FERDFCMiIgcng9IjExIiByeT0iMTEiIHN0eWxlPSJzdHJva2U6IzE4MTgxODtzdHJva2Utd2lkdGg6MS4wOyIvPjxwYXRoIGQ9Ik0yOTgwLjM3NSwxMjQuNzUgTDI5ODAuMzc1LDEyNi41IEwyOTg1LjMxMjUsMTI2LjUgTDI5ODUuMzEyNSwxMjQuNzUgTDI5ODAuMzc1LDEyNC43NSBaIE0yOTgxLjA2MjUsMTI1LjQzNzUgUTI5ODEuMDYyNSwxMjUuNDM3NSAyOTgxLjA2MjUsMTE2LjI1IEwyOTc5LjMxMjUsMTE2LjI1IFEyOTc5LjMxMjUsMTE2LjI1IDI5NzkuMzEyNSwxMjUuNDM3NSBMMjk4MS4wNjI1LDEyNS40Mzc1IFogTTI5ODQuNjI1LDEyNS40Mzc1IEwyOTg2LjM3NSwxMjUuNDM3NSBRMjk4Ni4zNzUsMTI1LjQzNzUgMjk4Ni4zNzUsMTIyLjYyNSBMMjk4NC42MjUsMTIyLjYyNSBRMjk4NC42MjUsMTIyLjYyNSAyOTg0LjYyNSwxMjUuNDM3NSBaIE0yOTg0LjYyNSwxMTYuMjUgUTI5ODQuNjI1LDExNi4yNSAyOTg0LjYyNSwxMTkuMDYyNSBMMjk4Ni4zNzUsMTE5LjA2MjUgUTI5ODYuMzc1LDExOS4wNjI1IDI5ODYuMzc1LDExNi4yNSBMMjk4NC42MjUsMTE2LjI1IFogTTI5ODAuMzc1LDExNi45Mzc1IEwyOTg1LjMxMjUsMTE2LjkzNzUgTDI5ODUuMzEyNSwxMTUuMTg3NSBMMjk4MC4zNzUsMTE1LjE4NzUgTDI5ODAuMzc1LDExNi45Mzc1IFogIiBmaWxsPSIjMDAwMDAwIi8+PHRleHQgZmlsbD0iIzAwMDAwMCIgZm9udC1mYW1pbHk9InNhbnMtc2VyaWYiIGZvbnQtc2l6ZT0iMTQiIGxlbmd0aEFkanVzdD0ic3BhY2luZyIgdGV4dExlbmd0aD0iMTI2IiB4PSIzMDAzLjI1IiB5PSIxMjYuMjQyMiI+Q2hpbGRyZW5BY2NvdW50R1VJPC90ZXh0PjxsaW5lIHN0eWxlPSJzdHJva2U6IzE4MTgxODtzdHJva2Utd2lkdGg6MC41OyIgeDE9IjI5MDciIHgyPSIzMTkzIiB5MT0iMTM2LjUiIHkyPSIxMzYuNSIvPjxsaW5lIHN0eWxlPSJzdHJva2U6IzE4MTgxODtzdHJva2Utd2lkdGg6MC41OyIgeDE9IjI5MDciIHgyPSIzMTkzIiB5MT0iMTQ0LjUiIHkyPSIxNDQuNSIvPjxlbGxpcHNlIGN4PSIyOTE3IiBjeT0iMTU3LjQ5MjIiIGZpbGw9IiM4NEJFODQiIHJ4PSIzIiByeT0iMyIgc3R5bGU9InN0cm9rZTojMDM4MDQ4O3N0cm9rZS13aWR0aDoxLjA7Ii8+PHRleHQgZmlsbD0iIzAwMDAwMCIgZm9udC1mYW1pbHk9InNhbnMtc2VyaWYiIGZvbnQtc2l6ZT0iMTQiIGxlbmd0aEFkanVzdD0ic3BhY2luZyIgdGV4dExlbmd0aD0iMTI4IiB4PSIyOTI2IiB5PSIxNjEuNzM0NCI+aW5pdGlhbGl6ZSgpOiB2b2lkPC90ZXh0PjxlbGxpcHNlIGN4PSIyOTE3IiBjeT0iMTcyLjQ3NjYiIGZpbGw9IiM4NEJFODQiIHJ4PSIzIiByeT0iMyIgc3R5bGU9InN0cm9rZTojMDM4MDQ4O3N0cm9rZS13aWR0aDoxLjA7Ii8+PHRleHQgZmlsbD0iIzAwMDAwMCIgZm9udC1mYW1pbHk9InNhbnMtc2VyaWYiIGZvbnQtc2l6ZT0iMTQiIGxlbmd0aEFkanVzdD0ic3BhY2luZyIgdGV4dExlbmd0aD0iMjYyIiB4PSIyOTI2IiB5PSIxNzYuNzE4OCI+YWN0aW9uUGVyZm9ybWVkKGU6IEFjdGlvbkV2ZW50KTogdm9pZDwvdGV4dD48L2c+PCEtLWNsYXNzIENoaWxkQmFsYW5jZUxvZ0xpc3RQYW5lbC0tPjxnIGlkPSJlbGVtX0NoaWxkQmFsYW5jZUxvZ0xpc3RQYW5lbCI+PHJlY3QgY29kZUxpbmU9Ijc4IiBmaWxsPSIjRjFGMUYxIiBoZWlnaHQ9Ijc3Ljk2ODgiIGlkPSJDaGlsZEJhbGFuY2VMb2dMaXN0UGFuZWwiIHJ4PSIyLjUiIHJ5PSIyLjUiIHN0eWxlPSJzdHJva2U6IzE4MTgxODtzdHJva2Utd2lkdGg6MC41OyIgd2lkdGg9IjM1MiIgeD0iNDI0MCIgeT0iMTA0LjUiLz48ZWxsaXBzZSBjeD0iNDMyNy43NSIgY3k9IjEyMC41IiBmaWxsPSIjQUREMUIyIiByeD0iMTEiIHJ5PSIxMSIgc3R5bGU9InN0cm9rZTojMTgxODE4O3N0cm9rZS13aWR0aDoxLjA7Ii8+PHBhdGggZD0iTTQzMjUuMzc1LDEyNC43NSBMNDMyNS4zNzUsMTI2LjUgTDQzMzAuMzEyNSwxMjYuNSBMNDMzMC4zMTI1LDEyNC43NSBMNDMyNS4zNzUsMTI0Ljc1IFogTTQzMjYuMDYyNSwxMjUuNDM3NSBRNDMyNi4wNjI1LDEyNS40Mzc1IDQzMjYuMDYyNSwxMTYuMjUgTDQzMjQuMzEyNSwxMTYuMjUgUTQzMjQuMzEyNSwxMTYuMjUgNDMyNC4zMTI1LDEyNS40Mzc1IEw0MzI2LjA2MjUsMTI1LjQzNzUgWiBNNDMyOS42MjUsMTI1LjQzNzUgTDQzMzEuMzc1LDEyNS40Mzc1IFE0MzMxLjM3NSwxMjUuNDM3NSA0MzMxLjM3NSwxMjIuNjI1IEw0MzI5LjYyNSwxMjIuNjI1IFE0MzI5LjYyNSwxMjIuNjI1IDQzMjkuNjI1LDEyNS40Mzc1IFogTTQzMjkuNjI1LDExNi4yNSBRNDMyOS42MjUsMTE2LjI1IDQzMjkuNjI1LDExOS4wNjI1IEw0MzMxLjM3NSwxMTkuMDYyNSBRNDMzMS4zNzUsMTE5LjA2MjUgNDMzMS4zNzUsMTE2LjI1IEw0MzI5LjYyNSwxMTYuMjUgWiBNNDMyNS4zNzUsMTE2LjkzNzUgTDQzMzAuMzEyNSwxMTYuOTM3NSBMNDMzMC4zMTI1LDExNS4xODc1IEw0MzI1LjM3NSwxMTUuMTg3NSBMNDMyNS4zNzUsMTE2LjkzNzUgWiAiIGZpbGw9IiMwMDAwMDAiLz48dGV4dCBmaWxsPSIjMDAwMDAwIiBmb250LWZhbWlseT0ic2Fucy1zZXJpZiIgZm9udC1zaXplPSIxNCIgbGVuZ3RoQWRqdXN0PSJzcGFjaW5nIiB0ZXh0TGVuZ3RoPSIxNjgiIHg9IjQzNDguMjUiIHk9IjEyNi4yNDIyIj5DaGlsZEJhbGFuY2VMb2dMaXN0UGFuZWw8L3RleHQ+PGxpbmUgc3R5bGU9InN0cm9rZTojMTgxODE4O3N0cm9rZS13aWR0aDowLjU7IiB4MT0iNDI0MSIgeDI9IjQ1OTEiIHkxPSIxMzYuNSIgeTI9IjEzNi41Ii8+PGxpbmUgc3R5bGU9InN0cm9rZTojMTgxODE4O3N0cm9rZS13aWR0aDowLjU7IiB4MT0iNDI0MSIgeDI9IjQ1OTEiIHkxPSIxNDQuNSIgeTI9IjE0NC41Ii8+PGVsbGlwc2UgY3g9IjQyNTEiIGN5PSIxNTcuNDkyMiIgZmlsbD0iIzg0QkU4NCIgcng9IjMiIHJ5PSIzIiBzdHlsZT0ic3Ryb2tlOiMwMzgwNDg7c3Ryb2tlLXdpZHRoOjEuMDsiLz48dGV4dCBmaWxsPSIjMDAwMDAwIiBmb250LWZhbWlseT0ic2Fucy1zZXJpZiIgZm9udC1zaXplPSIxNCIgbGVuZ3RoQWRqdXN0PSJzcGFjaW5nIiB0ZXh0TGVuZ3RoPSIyNjgiIHg9IjQyNjAiIHk9IjE2MS43MzQ0Ij5DaGlsZEJhbGFuY2VMb2dMaXN0UGFuZWwoY2hpbGQ6IENoaWxkKTwvdGV4dD48cmVjdCBmaWxsPSIjRjI0RDVDIiBoZWlnaHQ9IjYiIHN0eWxlPSJzdHJva2U6I0M4MjkzMDtzdHJva2Utd2lkdGg6MS4wOyIgd2lkdGg9IjYiIHg9IjQyNDgiIHk9IjE2OS40NzY2Ii8+PHRleHQgZmlsbD0iIzAwMDAwMCIgZm9udC1mYW1pbHk9InNhbnMtc2VyaWYiIGZvbnQtc2l6ZT0iMTQiIGxlbmd0aEFkanVzdD0ic3BhY2luZyIgdGV4dExlbmd0aD0iMzI2IiB4PSI0MjYwIiB5PSIxNzYuNzE4OCI+aXNDZWxsRWRpdGFibGUocm93OiBpbnQsIGNvbHVtbjogaW50KTogYm9vbGVhbjwvdGV4dD48L2c+PCEtLWNsYXNzIENoaWxkTWVudVVJLS0+PGcgaWQ9ImVsZW1fQ2hpbGRNZW51VUkiPjxyZWN0IGNvZGVMaW5lPSI4MyIgZmlsbD0iI0YxRjFGMSIgaGVpZ2h0PSI3Ny45Njg4IiBpZD0iQ2hpbGRNZW51VUkiIHJ4PSIyLjUiIHJ5PSIyLjUiIHN0eWxlPSJzdHJva2U6IzE4MTgxODtzdHJva2Utd2lkdGg6MC41OyIgd2lkdGg9IjI4OCIgeD0iMzIyOSIgeT0iMTA0LjUiLz48ZWxsaXBzZSBjeD0iMzMzMC4yNSIgY3k9IjEyMC41IiBmaWxsPSIjQUREMUIyIiByeD0iMTEiIHJ5PSIxMSIgc3R5bGU9InN0cm9rZTojMTgxODE4O3N0cm9rZS13aWR0aDoxLjA7Ii8+PHBhdGggZD0iTTMzMjcuODc1LDEyNC43NSBMMzMyNy44NzUsMTI2LjUgTDMzMzIuODEyNSwxMjYuNSBMMzMzMi44MTI1LDEyNC43NSBMMzMyNy44NzUsMTI0Ljc1IFogTTMzMjguNTYyNSwxMjUuNDM3NSBRMzMyOC41NjI1LDEyNS40Mzc1IDMzMjguNTYyNSwxMTYuMjUgTDMzMjYuODEyNSwxMTYuMjUgUTMzMjYuODEyNSwxMTYuMjUgMzMyNi44MTI1LDEyNS40Mzc1IEwzMzI4LjU2MjUsMTI1LjQzNzUgWiBNMzMzMi4xMjUsMTI1LjQzNzUgTDMzMzMuODc1LDEyNS40Mzc1IFEzMzMzLjg3NSwxMjUuNDM3NSAzMzMzLjg3NSwxMjIuNjI1IEwzMzMyLjEyNSwxMjIuNjI1IFEzMzMyLjEyNSwxMjIuNjI1IDMzMzIuMTI1LDEyNS40Mzc1IFogTTMzMzIuMTI1LDExNi4yNSBRMzMzMi4xMjUsMTE2LjI1IDMzMzIuMTI1LDExOS4wNjI1IEwzMzMzLjg3NSwxMTkuMDYyNSBRMzMzMy44NzUsMTE5LjA2MjUgMzMzMy44NzUsMTE2LjI1IEwzMzMyLjEyNSwxMTYuMjUgWiBNMzMyNy44NzUsMTE2LjkzNzUgTDMzMzIuODEyNSwxMTYuOTM3NSBMMzMzMi44MTI1LDExNS4xODc1IEwzMzI3Ljg3NSwxMTUuMTg3NSBMMzMyNy44NzUsMTE2LjkzNzUgWiAiIGZpbGw9IiMwMDAwMDAiLz48dGV4dCBmaWxsPSIjMDAwMDAwIiBmb250LWZhbWlseT0ic2Fucy1zZXJpZiIgZm9udC1zaXplPSIxNCIgbGVuZ3RoQWRqdXN0PSJzcGFjaW5nIiB0ZXh0TGVuZ3RoPSI3NyIgeD0iMzM1MC43NSIgeT0iMTI2LjI0MjIiPkNoaWxkTWVudVVJPC90ZXh0PjxsaW5lIHN0eWxlPSJzdHJva2U6IzE4MTgxODtzdHJva2Utd2lkdGg6MC41OyIgeDE9IjMyMzAiIHgyPSIzNTE2IiB5MT0iMTM2LjUiIHkyPSIxMzYuNSIvPjxsaW5lIHN0eWxlPSJzdHJva2U6IzE4MTgxODtzdHJva2Utd2lkdGg6MC41OyIgeDE9IjMyMzAiIHgyPSIzNTE2IiB5MT0iMTQ0LjUiIHkyPSIxNDQuNSIvPjxlbGxpcHNlIGN4PSIzMjQwIiBjeT0iMTU3LjQ5MjIiIGZpbGw9IiM4NEJFODQiIHJ4PSIzIiByeT0iMyIgc3R5bGU9InN0cm9rZTojMDM4MDQ4O3N0cm9rZS13aWR0aDoxLjA7Ii8+PHRleHQgZmlsbD0iIzAwMDAwMCIgZm9udC1mYW1pbHk9InNhbnMtc2VyaWYiIGZvbnQtc2l6ZT0iMTQiIGxlbmd0aEFkanVzdD0ic3BhY2luZyIgdGV4dExlbmd0aD0iMTc3IiB4PSIzMjQ5IiB5PSIxNjEuNzM0NCI+Q2hpbGRNZW51VUkoY2hpbGQ6IENoaWxkKTwvdGV4dD48ZWxsaXBzZSBjeD0iMzI0MCIgY3k9IjE3Mi40NzY2IiBmaWxsPSIjODRCRTg0IiByeD0iMyIgcnk9IjMiIHN0eWxlPSJzdHJva2U6IzAzODA0ODtzdHJva2Utd2lkdGg6MS4wOyIvPjx0ZXh0IGZpbGw9IiMwMDAwMDAiIGZvbnQtZmFtaWx5PSJzYW5zLXNlcmlmIiBmb250LXNpemU9IjE0IiBsZW5ndGhBZGp1c3Q9InNwYWNpbmciIHRleHRMZW5ndGg9IjI2MiIgeD0iMzI0OSIgeT0iMTc2LjcxODgiPmFjdGlvblBlcmZvcm1lZChlOiBBY3Rpb25FdmVudCk6IHZvaWQ8L3RleHQ+PC9nPjwhLS1jbGFzcyBDaGlsZFBhbmVsLS0+PGcgaWQ9ImVsZW1fQ2hpbGRQYW5lbCI+PHJlY3QgY29kZUxpbmU9Ijg4IiBmaWxsPSIjRjFGMUYxIiBoZWlnaHQ9Ijc3Ljk2ODgiIGlkPSJDaGlsZFBhbmVsIiByeD0iMi41IiByeT0iMi41IiBzdHlsZT0ic3Ryb2tlOiMxODE4MTg7c3Ryb2tlLXdpZHRoOjAuNTsiIHdpZHRoPSIyODgiIHg9IjQ2MjciIHk9IjEwNC41Ii8+PGVsbGlwc2UgY3g9IjQ3MzEuNzUiIGN5PSIxMjAuNSIgZmlsbD0iI0FERDFCMiIgcng9IjExIiByeT0iMTEiIHN0eWxlPSJzdHJva2U6IzE4MTgxODtzdHJva2Utd2lkdGg6MS4wOyIvPjxwYXRoIGQ9Ik00NzI5LjM3NSwxMjQuNzUgTDQ3MjkuMzc1LDEyNi41IEw0NzM0LjMxMjUsMTI2LjUgTDQ3MzQuMzEyNSwxMjQuNzUgTDQ3MjkuMzc1LDEyNC43NSBaIE00NzMwLjA2MjUsMTI1LjQzNzUgUTQ3MzAuMDYyNSwxMjUuNDM3NSA0NzMwLjA2MjUsMTE2LjI1IEw0NzI4LjMxMjUsMTE2LjI1IFE0NzI4LjMxMjUsMTE2LjI1IDQ3MjguMzEyNSwxMjUuNDM3NSBMNDczMC4wNjI1LDEyNS40Mzc1IFogTTQ3MzMuNjI1LDEyNS40Mzc1IEw0NzM1LjM3NSwxMjUuNDM3NSBRNDczNS4zNzUsMTI1LjQzNzUgNDczNS4zNzUsMTIyLjYyNSBMNDczMy42MjUsMTIyLjYyNSBRNDczMy42MjUsMTIyLjYyNSA0NzMzLjYyNSwxMjUuNDM3NSBaIE00NzMzLjYyNSwxMTYuMjUgUTQ3MzMuNjI1LDExNi4yNSA0NzMzLjYyNSwxMTkuMDYyNSBMNDczNS4zNzUsMTE5LjA2MjUgUTQ3MzUuMzc1LDExOS4wNjI1IDQ3MzUuMzc1LDExNi4yNSBMNDczMy42MjUsMTE2LjI1IFogTTQ3MjkuMzc1LDExNi45Mzc1IEw0NzM0LjMxMjUsMTE2LjkzNzUgTDQ3MzQuMzEyNSwxMTUuMTg3NSBMNDcyOS4zNzUsMTE1LjE4NzUgTDQ3MjkuMzc1LDExNi45Mzc1IFogIiBmaWxsPSIjMDAwMDAwIi8+PHRleHQgZmlsbD0iIzAwMDAwMCIgZm9udC1mYW1pbHk9InNhbnMtc2VyaWYiIGZvbnQtc2l6ZT0iMTQiIGxlbmd0aEFkanVzdD0ic3BhY2luZyIgdGV4dExlbmd0aD0iNzAiIHg9IjQ3NTIuMjUiIHk9IjEyNi4yNDIyIj5DaGlsZFBhbmVsPC90ZXh0PjxsaW5lIHN0eWxlPSJzdHJva2U6IzE4MTgxODtzdHJva2Utd2lkdGg6MC41OyIgeDE9IjQ2MjgiIHgyPSI0OTE0IiB5MT0iMTM2LjUiIHkyPSIxMzYuNSIvPjxsaW5lIHN0eWxlPSJzdHJva2U6IzE4MTgxODtzdHJva2Utd2lkdGg6MC41OyIgeDE9IjQ2MjgiIHgyPSI0OTE0IiB5MT0iMTQ0LjUiIHkyPSIxNDQuNSIvPjxlbGxpcHNlIGN4PSI0NjM4IiBjeT0iMTU3LjQ5MjIiIGZpbGw9IiM4NEJFODQiIHJ4PSIzIiByeT0iMyIgc3R5bGU9InN0cm9rZTojMDM4MDQ4O3N0cm9rZS13aWR0aDoxLjA7Ii8+PHRleHQgZmlsbD0iIzAwMDAwMCIgZm9udC1mYW1pbHk9InNhbnMtc2VyaWYiIGZvbnQtc2l6ZT0iMTQiIGxlbmd0aEFkanVzdD0ic3BhY2luZyIgdGV4dExlbmd0aD0iMTcwIiB4PSI0NjQ3IiB5PSIxNjEuNzM0NCI+Q2hpbGRQYW5lbChjaGlsZDogQ2hpbGQpPC90ZXh0PjxlbGxpcHNlIGN4PSI0NjM4IiBjeT0iMTcyLjQ3NjYiIGZpbGw9IiM4NEJFODQiIHJ4PSIzIiByeT0iMyIgc3R5bGU9InN0cm9rZTojMDM4MDQ4O3N0cm9rZS13aWR0aDoxLjA7Ii8+PHRleHQgZmlsbD0iIzAwMDAwMCIgZm9udC1mYW1pbHk9InNhbnMtc2VyaWYiIGZvbnQtc2l6ZT0iMTQiIGxlbmd0aEFkanVzdD0ic3BhY2luZyIgdGV4dExlbmd0aD0iMjYyIiB4PSI0NjQ3IiB5PSIxNzYuNzE4OCI+YWN0aW9uUGVyZm9ybWVkKGU6IEFjdGlvbkV2ZW50KTogdm9pZDwvdGV4dD48L2c+PCEtLWNsYXNzIENoaWxkVGFza0xpc3RQYW5lbC0tPjxnIGlkPSJlbGVtX0NoaWxkVGFza0xpc3RQYW5lbCI+PHJlY3QgY29kZUxpbmU9IjkzIiBmaWxsPSIjRjFGMUYxIiBoZWlnaHQ9Ijc3Ljk2ODgiIGlkPSJDaGlsZFRhc2tMaXN0UGFuZWwiIHJ4PSIyLjUiIHJ5PSIyLjUiIHN0eWxlPSJzdHJva2U6IzE4MTgxODtzdHJva2Utd2lkdGg6MC41OyIgd2lkdGg9IjI4OCIgeD0iNDk1MCIgeT0iMTA0LjUiLz48ZWxsaXBzZSBjeD0iNTAyNi43NSIgY3k9IjEyMC41IiBmaWxsPSIjQUREMUIyIiByeD0iMTEiIHJ5PSIxMSIgc3R5bGU9InN0cm9rZTojMTgxODE4O3N0cm9rZS13aWR0aDoxLjA7Ii8+PHBhdGggZD0iTTUwMjQuMzc1LDEyNC43NSBMNTAyNC4zNzUsMTI2LjUgTDUwMjkuMzEyNSwxMjYuNSBMNTAyOS4zMTI1LDEyNC43NSBMNTAyNC4zNzUsMTI0Ljc1IFogTTUwMjUuMDYyNSwxMjUuNDM3NSBRNTAyNS4wNjI1LDEyNS40Mzc1IDUwMjUuMDYyNSwxMTYuMjUgTDUwMjMuMzEyNSwxMTYuMjUgUTUwMjMuMzEyNSwxMTYuMjUgNTAyMy4zMTI1LDEyNS40Mzc1IEw1MDI1LjA2MjUsMTI1LjQzNzUgWiBNNTAyOC42MjUsMTI1LjQzNzUgTDUwMzAuMzc1LDEyNS40Mzc1IFE1MDMwLjM3NSwxMjUuNDM3NSA1MDMwLjM3NSwxMjIuNjI1IEw1MDI4LjYyNSwxMjIuNjI1IFE1MDI4LjYyNSwxMjIuNjI1IDUwMjguNjI1LDEyNS40Mzc1IFogTTUwMjguNjI1LDExNi4yNSBRNTAyOC42MjUsMTE2LjI1IDUwMjguNjI1LDExOS4wNjI1IEw1MDMwLjM3NSwxMTkuMDYyNSBRNTAzMC4zNzUsMTE5LjA2MjUgNTAzMC4zNzUsMTE2LjI1IEw1MDI4LjYyNSwxMTYuMjUgWiBNNTAyNC4zNzUsMTE2LjkzNzUgTDUwMjkuMzEyNSwxMTYuOTM3NSBMNTAyOS4zMTI1LDExNS4xODc1IEw1MDI0LjM3NSwxMTUuMTg3NSBMNTAyNC4zNzUsMTE2LjkzNzUgWiAiIGZpbGw9IiMwMDAwMDAiLz48dGV4dCBmaWxsPSIjMDAwMDAwIiBmb250LWZhbWlseT0ic2Fucy1zZXJpZiIgZm9udC1zaXplPSIxNCIgbGVuZ3RoQWRqdXN0PSJzcGFjaW5nIiB0ZXh0TGVuZ3RoPSIxMjYiIHg9IjUwNDcuMjUiIHk9IjEyNi4yNDIyIj5DaGlsZFRhc2tMaXN0UGFuZWw8L3RleHQ+PGxpbmUgc3R5bGU9InN0cm9rZTojMTgxODE4O3N0cm9rZS13aWR0aDowLjU7IiB4MT0iNDk1MSIgeDI9IjUyMzciIHkxPSIxMzYuNSIgeTI9IjEzNi41Ii8+PGxpbmUgc3R5bGU9InN0cm9rZTojMTgxODE4O3N0cm9rZS13aWR0aDowLjU7IiB4MT0iNDk1MSIgeDI9IjUyMzciIHkxPSIxNDQuNSIgeTI9IjE0NC41Ii8+PGVsbGlwc2UgY3g9IjQ5NjEiIGN5PSIxNTcuNDkyMiIgZmlsbD0iIzg0QkU4NCIgcng9IjMiIHJ5PSIzIiBzdHlsZT0ic3Ryb2tlOiMwMzgwNDg7c3Ryb2tlLXdpZHRoOjEuMDsiLz48dGV4dCBmaWxsPSIjMDAwMDAwIiBmb250LWZhbWlseT0ic2Fucy1zZXJpZiIgZm9udC1zaXplPSIxNCIgbGVuZ3RoQWRqdXN0PSJzcGFjaW5nIiB0ZXh0TGVuZ3RoPSIyMjYiIHg9IjQ5NzAiIHk9IjE2MS43MzQ0Ij5DaGlsZFRhc2tMaXN0UGFuZWwoY2hpbGQ6IENoaWxkKTwvdGV4dD48ZWxsaXBzZSBjeD0iNDk2MSIgY3k9IjE3Mi40NzY2IiBmaWxsPSIjODRCRTg0IiByeD0iMyIgcnk9IjMiIHN0eWxlPSJzdHJva2U6IzAzODA0ODtzdHJva2Utd2lkdGg6MS4wOyIvPjx0ZXh0IGZpbGw9IiMwMDAwMDAiIGZvbnQtZmFtaWx5PSJzYW5zLXNlcmlmIiBmb250LXNpemU9IjE0IiBsZW5ndGhBZGp1c3Q9InNwYWNpbmciIHRleHRMZW5ndGg9IjI2MiIgeD0iNDk3MCIgeT0iMTc2LjcxODgiPmFjdGlvblBlcmZvcm1lZChlOiBBY3Rpb25FdmVudCk6IHZvaWQ8L3RleHQ+PC9nPjwhLS1jbGFzcyBDaGlsZFRhc2tXb3JrTG9nTGlzdFBhbmVsLS0+PGcgaWQ9ImVsZW1fQ2hpbGRUYXNrV29ya0xvZ0xpc3RQYW5lbCI+PHJlY3QgY29kZUxpbmU9Ijk4IiBmaWxsPSIjRjFGMUYxIiBoZWlnaHQ9Ijc3Ljk2ODgiIGlkPSJDaGlsZFRhc2tXb3JrTG9nTGlzdFBhbmVsIiByeD0iMi41IiByeT0iMi41IiBzdHlsZT0ic3Ryb2tlOiMxODE4MTg7c3Ryb2tlLXdpZHRoOjAuNTsiIHdpZHRoPSIzMDEiIHg9IjUyNzMuNSIgeT0iMTA0LjUiLz48ZWxsaXBzZSBjeD0iNTMzMi4yNSIgY3k9IjEyMC41IiBmaWxsPSIjQUREMUIyIiByeD0iMTEiIHJ5PSIxMSIgc3R5bGU9InN0cm9rZTojMTgxODE4O3N0cm9rZS13aWR0aDoxLjA7Ii8+PHBhdGggZD0iTTUzMjkuODc1LDEyNC43NSBMNTMyOS44NzUsMTI2LjUgTDUzMzQuODEyNSwxMjYuNSBMNTMzNC44MTI1LDEyNC43NSBMNTMyOS44NzUsMTI0Ljc1IFogTTUzMzAuNTYyNSwxMjUuNDM3NSBRNTMzMC41NjI1LDEyNS40Mzc1IDUzMzAuNTYyNSwxMTYuMjUgTDUzMjguODEyNSwxMTYuMjUgUTUzMjguODEyNSwxMTYuMjUgNTMyOC44MTI1LDEyNS40Mzc1IEw1MzMwLjU2MjUsMTI1LjQzNzUgWiBNNTMzNC4xMjUsMTI1LjQzNzUgTDUzMzUuODc1LDEyNS40Mzc1IFE1MzM1Ljg3NSwxMjUuNDM3NSA1MzM1Ljg3NSwxMjIuNjI1IEw1MzM0LjEyNSwxMjIuNjI1IFE1MzM0LjEyNSwxMjIuNjI1IDUzMzQuMTI1LDEyNS40Mzc1IFogTTUzMzQuMTI1LDExNi4yNSBRNTMzNC4xMjUsMTE2LjI1IDUzMzQuMTI1LDExOS4wNjI1IEw1MzM1Ljg3NSwxMTkuMDYyNSBRNTMzNS44NzUsMTE5LjA2MjUgNTMzNS44NzUsMTE2LjI1IEw1MzM0LjEyNSwxMTYuMjUgWiBNNTMyOS44NzUsMTE2LjkzNzUgTDUzMzQuODEyNSwxMTYuOTM3NSBMNTMzNC44MTI1LDExNS4xODc1IEw1MzI5Ljg3NSwxMTUuMTg3NSBMNTMyOS44NzUsMTE2LjkzNzUgWiAiIGZpbGw9IiMwMDAwMDAiLz48dGV4dCBmaWxsPSIjMDAwMDAwIiBmb250LWZhbWlseT0ic2Fucy1zZXJpZiIgZm9udC1zaXplPSIxNCIgbGVuZ3RoQWRqdXN0PSJzcGFjaW5nIiB0ZXh0TGVuZ3RoPSIxNzUiIHg9IjUzNTIuNzUiIHk9IjEyNi4yNDIyIj5DaGlsZFRhc2tXb3JrTG9nTGlzdFBhbmVsPC90ZXh0PjxsaW5lIHN0eWxlPSJzdHJva2U6IzE4MTgxODtzdHJva2Utd2lkdGg6MC41OyIgeDE9IjUyNzQuNSIgeDI9IjU1NzMuNSIgeTE9IjEzNi41IiB5Mj0iMTM2LjUiLz48bGluZSBzdHlsZT0ic3Ryb2tlOiMxODE4MTg7c3Ryb2tlLXdpZHRoOjAuNTsiIHgxPSI1Mjc0LjUiIHgyPSI1NTczLjUiIHkxPSIxNDQuNSIgeTI9IjE0NC41Ii8+PGVsbGlwc2UgY3g9IjUyODQuNSIgY3k9IjE1Ny40OTIyIiBmaWxsPSIjODRCRTg0IiByeD0iMyIgcnk9IjMiIHN0eWxlPSJzdHJva2U6IzAzODA0ODtzdHJva2Utd2lkdGg6MS4wOyIvPjx0ZXh0IGZpbGw9IiMwMDAwMDAiIGZvbnQtZmFtaWx5PSJzYW5zLXNlcmlmIiBmb250LXNpemU9IjE0IiBsZW5ndGhBZGp1c3Q9InNwYWNpbmciIHRleHRMZW5ndGg9IjI3NSIgeD0iNTI5My41IiB5PSIxNjEuNzM0NCI+Q2hpbGRUYXNrV29ya0xvZ0xpc3RQYW5lbChjaGlsZDogQ2hpbGQpPC90ZXh0PjxlbGxpcHNlIGN4PSI1Mjg0LjUiIGN5PSIxNzIuNDc2NiIgZmlsbD0iIzg0QkU4NCIgcng9IjMiIHJ5PSIzIiBzdHlsZT0ic3Ryb2tlOiMwMzgwNDg7c3Ryb2tlLXdpZHRoOjEuMDsiLz48dGV4dCBmaWxsPSIjMDAwMDAwIiBmb250LWZhbWlseT0ic2Fucy1zZXJpZiIgZm9udC1zaXplPSIxNCIgbGVuZ3RoQWRqdXN0PSJzcGFjaW5nIiB0ZXh0TGVuZ3RoPSIyNjIiIHg9IjUyOTMuNSIgeT0iMTc2LjcxODgiPmFjdGlvblBlcmZvcm1lZChlOiBBY3Rpb25FdmVudCk6IHZvaWQ8L3RleHQ+PC9nPjwhLS1jbGFzcyBDaGlsZExpc3RQYW5lbC0tPjxnIGlkPSJlbGVtX0NoaWxkTGlzdFBhbmVsIj48cmVjdCBjb2RlTGluZT0iMTAzIiBmaWxsPSIjRjFGMUYxIiBoZWlnaHQ9Ijc3Ljk2ODgiIGlkPSJDaGlsZExpc3RQYW5lbCIgcng9IjIuNSIgcnk9IjIuNSIgc3R5bGU9InN0cm9rZTojMTgxODE4O3N0cm9rZS13aWR0aDowLjU7IiB3aWR0aD0iMjMyIiB4PSI1NjEwIiB5PSIxMDQuNSIvPjxlbGxpcHNlIGN4PSI1NjcyLjc1IiBjeT0iMTIwLjUiIGZpbGw9IiNBREQxQjIiIHJ4PSIxMSIgcnk9IjExIiBzdHlsZT0ic3Ryb2tlOiMxODE4MTg7c3Ryb2tlLXdpZHRoOjEuMDsiLz48cGF0aCBkPSJNNTY3MC4zNzUsMTI0Ljc1IEw1NjcwLjM3NSwxMjYuNSBMNTY3NS4zMTI1LDEyNi41IEw1Njc1LjMxMjUsMTI0Ljc1IEw1NjcwLjM3NSwxMjQuNzUgWiBNNTY3MS4wNjI1LDEyNS40Mzc1IFE1NjcxLjA2MjUsMTI1LjQzNzUgNTY3MS4wNjI1LDExNi4yNSBMNTY2OS4zMTI1LDExNi4yNSBRNTY2OS4zMTI1LDExNi4yNSA1NjY5LjMxMjUsMTI1LjQzNzUgTDU2NzEuMDYyNSwxMjUuNDM3NSBaIE01Njc0LjYyNSwxMjUuNDM3NSBMNTY3Ni4zNzUsMTI1LjQzNzUgUTU2NzYuMzc1LDEyNS40Mzc1IDU2NzYuMzc1LDEyMi42MjUgTDU2NzQuNjI1LDEyMi42MjUgUTU2NzQuNjI1LDEyMi42MjUgNTY3NC42MjUsMTI1LjQzNzUgWiBNNTY3NC42MjUsMTE2LjI1IFE1Njc0LjYyNSwxMTYuMjUgNTY3NC42MjUsMTE5LjA2MjUgTDU2NzYuMzc1LDExOS4wNjI1IFE1Njc2LjM3NSwxMTkuMDYyNSA1Njc2LjM3NSwxMTYuMjUgTDU2NzQuNjI1LDExNi4yNSBaIE01NjcwLjM3NSwxMTYuOTM3NSBMNTY3NS4zMTI1LDExNi45Mzc1IEw1Njc1LjMxMjUsMTE1LjE4NzUgTDU2NzAuMzc1LDExNS4xODc1IEw1NjcwLjM3NSwxMTYuOTM3NSBaICIgZmlsbD0iIzAwMDAwMCIvPjx0ZXh0IGZpbGw9IiMwMDAwMDAiIGZvbnQtZmFtaWx5PSJzYW5zLXNlcmlmIiBmb250LXNpemU9IjE0IiBsZW5ndGhBZGp1c3Q9InNwYWNpbmciIHRleHRMZW5ndGg9Ijk4IiB4PSI1NjkzLjI1IiB5PSIxMjYuMjQyMiI+Q2hpbGRMaXN0UGFuZWw8L3RleHQ+PGxpbmUgc3R5bGU9InN0cm9rZTojMTgxODE4O3N0cm9rZS13aWR0aDowLjU7IiB4MT0iNTYxMSIgeDI9IjU4NDEiIHkxPSIxMzYuNSIgeTI9IjEzNi41Ii8+PGxpbmUgc3R5bGU9InN0cm9rZTojMTgxODE4O3N0cm9rZS13aWR0aDowLjU7IiB4MT0iNTYxMSIgeDI9IjU4NDEiIHkxPSIxNDQuNSIgeTI9IjE0NC41Ii8+PGVsbGlwc2UgY3g9IjU2MjEiIGN5PSIxNTcuNDkyMiIgZmlsbD0iIzg0QkU4NCIgcng9IjMiIHJ5PSIzIiBzdHlsZT0ic3Ryb2tlOiMwMzgwNDg7c3Ryb2tlLXdpZHRoOjEuMDsiLz48dGV4dCBmaWxsPSIjMDAwMDAwIiBmb250LWZhbWlseT0ic2Fucy1zZXJpZiIgZm9udC1zaXplPSIxNCIgbGVuZ3RoQWRqdXN0PSJzcGFjaW5nIiB0ZXh0TGVuZ3RoPSIxMTQiIHg9IjU2MzAiIHk9IjE2MS43MzQ0Ij5DaGlsZExpc3RQYW5lbCgpPC90ZXh0PjxlbGxpcHNlIGN4PSI1NjIxIiBjeT0iMTcyLjQ3NjYiIGZpbGw9IiM4NEJFODQiIHJ4PSIzIiByeT0iMyIgc3R5bGU9InN0cm9rZTojMDM4MDQ4O3N0cm9rZS13aWR0aDoxLjA7Ii8+PHRleHQgZmlsbD0iIzAwMDAwMCIgZm9udC1mYW1pbHk9InNhbnMtc2VyaWYiIGZvbnQtc2l6ZT0iMTQiIGxlbmd0aEFkanVzdD0ic3BhY2luZyIgdGV4dExlbmd0aD0iMjA2IiB4PSI1NjMwIiB5PSIxNzYuNzE4OCI+QnV0dG9ucyhjaGlsZDogQ2hpbGQpOiBKUGFuZWw8L3RleHQ+PC9nPjwhLS1jbGFzcyBMb2dpbkdVSS0tPjxnIGlkPSJlbGVtX0xvZ2luR1VJIj48cmVjdCBjb2RlTGluZT0iMTA4IiBmaWxsPSIjRjFGMUYxIiBoZWlnaHQ9Ijc3Ljk2ODgiIGlkPSJMb2dpbkdVSSIgcng9IjIuNSIgcnk9IjIuNSIgc3R5bGU9InN0cm9rZTojMTgxODE4O3N0cm9rZS13aWR0aDowLjU7IiB3aWR0aD0iNDM2IiB4PSIzNTUyIiB5PSIxMDQuNSIvPjxlbGxpcHNlIGN4PSIzNzM3Ljc1IiBjeT0iMTIwLjUiIGZpbGw9IiNBREQxQjIiIHJ4PSIxMSIgcnk9IjExIiBzdHlsZT0ic3Ryb2tlOiMxODE4MTg7c3Ryb2tlLXdpZHRoOjEuMDsiLz48cGF0aCBkPSJNMzczNS4zNzUsMTI0Ljc1IEwzNzM1LjM3NSwxMjYuNSBMMzc0MC4zMTI1LDEyNi41IEwzNzQwLjMxMjUsMTI0Ljc1IEwzNzM1LjM3NSwxMjQuNzUgWiBNMzczNi4wNjI1LDEyNS40Mzc1IFEzNzM2LjA2MjUsMTI1LjQzNzUgMzczNi4wNjI1LDExNi4yNSBMMzczNC4zMTI1LDExNi4yNSBRMzczNC4zMTI1LDExNi4yNSAzNzM0LjMxMjUsMTI1LjQzNzUgTDM3MzYuMDYyNSwxMjUuNDM3NSBaIE0zNzM5LjYyNSwxMjUuNDM3NSBMMzc0MS4zNzUsMTI1LjQzNzUgUTM3NDEuMzc1LDEyNS40Mzc1IDM3NDEuMzc1LDEyMi42MjUgTDM3MzkuNjI1LDEyMi42MjUgUTM3MzkuNjI1LDEyMi42MjUgMzczOS42MjUsMTI1LjQzNzUgWiBNMzczOS42MjUsMTE2LjI1IFEzNzM5LjYyNSwxMTYuMjUgMzczOS42MjUsMTE5LjA2MjUgTDM3NDEuMzc1LDExOS4wNjI1IFEzNzQxLjM3NSwxMTkuMDYyNSAzNzQxLjM3NSwxMTYuMjUgTDM3MzkuNjI1LDExNi4yNSBaIE0zNzM1LjM3NSwxMTYuOTM3NSBMMzc0MC4zMTI1LDExNi45Mzc1IEwzNzQwLjMxMjUsMTE1LjE4NzUgTDM3MzUuMzc1LDExNS4xODc1IEwzNzM1LjM3NSwxMTYuOTM3NSBaICIgZmlsbD0iIzAwMDAwMCIvPjx0ZXh0IGZpbGw9IiMwMDAwMDAiIGZvbnQtZmFtaWx5PSJzYW5zLXNlcmlmIiBmb250LXNpemU9IjE0IiBsZW5ndGhBZGp1c3Q9InNwYWNpbmciIHRleHRMZW5ndGg9IjU2IiB4PSIzNzU4LjI1IiB5PSIxMjYuMjQyMiI+TG9naW5HVUk8L3RleHQ+PGxpbmUgc3R5bGU9InN0cm9rZTojMTgxODE4O3N0cm9rZS13aWR0aDowLjU7IiB4MT0iMzU1MyIgeDI9IjM5ODciIHkxPSIxMzYuNSIgeTI9IjEzNi41Ii8+PGxpbmUgc3R5bGU9InN0cm9rZTojMTgxODE4O3N0cm9rZS13aWR0aDowLjU7IiB4MT0iMzU1MyIgeDI9IjM5ODciIHkxPSIxNDQuNSIgeTI9IjE0NC41Ii8+PGVsbGlwc2UgY3g9IjM1NjMiIGN5PSIxNTcuNDkyMiIgZmlsbD0iIzg0QkU4NCIgcng9IjMiIHJ5PSIzIiBzdHlsZT0ic3Ryb2tlOiMwMzgwNDg7c3Ryb2tlLXdpZHRoOjEuMDsiLz48dGV4dCBmaWxsPSIjMDAwMDAwIiBmb250LWZhbWlseT0ic2Fucy1zZXJpZiIgZm9udC1zaXplPSIxNCIgbGVuZ3RoQWRqdXN0PSJzcGFjaW5nIiB0ZXh0TGVuZ3RoPSI3MiIgeD0iMzU3MiIgeT0iMTYxLjczNDQiPkxvZ2luR1VJKCk8L3RleHQ+PHJlY3QgZmlsbD0iI0YyNEQ1QyIgaGVpZ2h0PSI2IiBzdHlsZT0ic3Ryb2tlOiNDODI5MzA7c3Ryb2tlLXdpZHRoOjEuMDsiIHdpZHRoPSI2IiB4PSIzNTYwIiB5PSIxNjkuNDc2NiIvPjx0ZXh0IGZpbGw9IiMwMDAwMDAiIGZvbnQtZmFtaWx5PSJzYW5zLXNlcmlmIiBmb250LXNpemU9IjE0IiBsZW5ndGhBZGp1c3Q9InNwYWNpbmciIHRleHRMZW5ndGg9IjQxMCIgeD0iMzU3MiIgeT0iMTc2LjcxODgiPnZhbGlkYXRlTG9naW4odXNlcm5hbWU6IFN0cmluZywgcGFzc3dvcmQ6IFN0cmluZyk6IGJvb2xlYW48L3RleHQ+PC9nPjwhLS1jbGFzcyBNZW51VUktLT48ZyBpZD0iZWxlbV9NZW51VUkiPjxyZWN0IGNvZGVMaW5lPSIxMTMiIGZpbGw9IiNGMUYxRjEiIGhlaWdodD0iNjIuOTg0NCIgaWQ9Ik1lbnVVSSIgcng9IjIuNSIgcnk9IjIuNSIgc3R5bGU9InN0cm9rZTojMTgxODE4O3N0cm9rZS13aWR0aDowLjU7IiB3aWR0aD0iMTgyIiB4PSI0MDIzIiB5PSIxMTIiLz48ZWxsaXBzZSBjeD0iNDA4OC43NSIgY3k9IjEyOCIgZmlsbD0iI0FERDFCMiIgcng9IjExIiByeT0iMTEiIHN0eWxlPSJzdHJva2U6IzE4MTgxODtzdHJva2Utd2lkdGg6MS4wOyIvPjxwYXRoIGQ9Ik00MDg2LjM3NSwxMzIuMjUgTDQwODYuMzc1LDEzNCBMNDA5MS4zMTI1LDEzNCBMNDA5MS4zMTI1LDEzMi4yNSBMNDA4Ni4zNzUsMTMyLjI1IFogTTQwODcuMDYyNSwxMzIuOTM3NSBRNDA4Ny4wNjI1LDEzMi45Mzc1IDQwODcuMDYyNSwxMjMuNzUgTDQwODUuMzEyNSwxMjMuNzUgUTQwODUuMzEyNSwxMjMuNzUgNDA4NS4zMTI1LDEzMi45Mzc1IEw0MDg3LjA2MjUsMTMyLjkzNzUgWiBNNDA5MC42MjUsMTMyLjkzNzUgTDQwOTIuMzc1LDEzMi45Mzc1IFE0MDkyLjM3NSwxMzIuOTM3NSA0MDkyLjM3NSwxMzAuMTI1IEw0MDkwLjYyNSwxMzAuMTI1IFE0MDkwLjYyNSwxMzAuMTI1IDQwOTAuNjI1LDEzMi45Mzc1IFogTTQwOTAuNjI1LDEyMy43NSBRNDA5MC42MjUsMTIzLjc1IDQwOTAuNjI1LDEyNi41NjI1IEw0MDkyLjM3NSwxMjYuNTYyNSBRNDA5Mi4zNzUsMTI2LjU2MjUgNDA5Mi4zNzUsMTIzLjc1IEw0MDkwLjYyNSwxMjMuNzUgWiBNNDA4Ni4zNzUsMTI0LjQzNzUgTDQwOTEuMzEyNSwxMjQuNDM3NSBMNDA5MS4zMTI1LDEyMi42ODc1IEw0MDg2LjM3NSwxMjIuNjg3NSBMNDA4Ni4zNzUsMTI0LjQzNzUgWiAiIGZpbGw9IiMwMDAwMDAiLz48dGV4dCBmaWxsPSIjMDAwMDAwIiBmb250LWZhbWlseT0ic2Fucy1zZXJpZiIgZm9udC1zaXplPSIxNCIgbGVuZ3RoQWRqdXN0PSJzcGFjaW5nIiB0ZXh0TGVuZ3RoPSI0MiIgeD0iNDEwOS4yNSIgeT0iMTMzLjc0MjIiPk1lbnVVSTwvdGV4dD48bGluZSBzdHlsZT0ic3Ryb2tlOiMxODE4MTg7c3Ryb2tlLXdpZHRoOjAuNTsiIHgxPSI0MDI0IiB4Mj0iNDIwNCIgeTE9IjE0NCIgeTI9IjE0NCIvPjxsaW5lIHN0eWxlPSJzdHJva2U6IzE4MTgxODtzdHJva2Utd2lkdGg6MC41OyIgeDE9IjQwMjQiIHgyPSI0MjA0IiB5MT0iMTUyIiB5Mj0iMTUyIi8+PGVsbGlwc2UgY3g9IjQwMzQiIGN5PSIxNjQuOTkyMiIgZmlsbD0iIzg0QkU4NCIgcng9IjMiIHJ5PSIzIiBzdHlsZT0ic3Ryb2tlOiMwMzgwNDg7c3Ryb2tlLXdpZHRoOjEuMDsiLz48dGV4dCBmaWxsPSIjMDAwMDAwIiBmb250LWZhbWlseT0ic2Fucy1zZXJpZiIgZm9udC1zaXplPSIxNCIgbGVuZ3RoQWRqdXN0PSJzcGFjaW5nIiB0ZXh0TGVuZ3RoPSIxNTYiIHg9IjQwNDMiIHk9IjE2OS4yMzQ0Ij5NZW51VUkocGFyZW50OiBQYXJlbnQpPC90ZXh0PjwvZz48IS0tY2xhc3MgVGFza0lucHV0UGFuZWwtLT48ZyBpZD0iZWxlbV9UYXNrSW5wdXRQYW5lbCI+PHJlY3QgY29kZUxpbmU9IjExNyIgZmlsbD0iI0YxRjFGMSIgaGVpZ2h0PSI2Mi45ODQ0IiBpZD0iVGFza0lucHV0UGFuZWwiIHJ4PSIyLjUiIHJ5PSIyLjUiIHN0eWxlPSJzdHJva2U6IzE4MTgxODtzdHJva2Utd2lkdGg6MC41OyIgd2lkdGg9IjIzOCIgeD0iNTg3NyIgeT0iMTEyIi8+PGVsbGlwc2UgY3g9IjU5NDIuNzUiIGN5PSIxMjgiIGZpbGw9IiNBREQxQjIiIHJ4PSIxMSIgcnk9IjExIiBzdHlsZT0ic3Ryb2tlOiMxODE4MTg7c3Ryb2tlLXdpZHRoOjEuMDsiLz48cGF0aCBkPSJNNTk0MC4zNzUsMTMyLjI1IEw1OTQwLjM3NSwxMzQgTDU5NDUuMzEyNSwxMzQgTDU5NDUuMzEyNSwxMzIuMjUgTDU5NDAuMzc1LDEzMi4yNSBaIE01OTQxLjA2MjUsMTMyLjkzNzUgUTU5NDEuMDYyNSwxMzIuOTM3NSA1OTQxLjA2MjUsMTIzLjc1IEw1OTM5LjMxMjUsMTIzLjc1IFE1OTM5LjMxMjUsMTIzLjc1IDU5MzkuMzEyNSwxMzIuOTM3NSBMNTk0MS4wNjI1LDEzMi45Mzc1IFogTTU5NDQuNjI1LDEzMi45Mzc1IEw1OTQ2LjM3NSwxMzIuOTM3NSBRNTk0Ni4zNzUsMTMyLjkzNzUgNTk0Ni4zNzUsMTMwLjEyNSBMNTk0NC42MjUsMTMwLjEyNSBRNTk0NC42MjUsMTMwLjEyNSA1OTQ0LjYyNSwxMzIuOTM3NSBaIE01OTQ0LjYyNSwxMjMuNzUgUTU5NDQuNjI1LDEyMy43NSA1OTQ0LjYyNSwxMjYuNTYyNSBMNTk0Ni4zNzUsMTI2LjU2MjUgUTU5NDYuMzc1LDEyNi41NjI1IDU5NDYuMzc1LDEyMy43NSBMNTk0NC42MjUsMTIzLjc1IFogTTU5NDAuMzc1LDEyNC40Mzc1IEw1OTQ1LjMxMjUsMTI0LjQzNzUgTDU5NDUuMzEyNSwxMjIuNjg3NSBMNTk0MC4zNzUsMTIyLjY4NzUgTDU5NDAuMzc1LDEyNC40Mzc1IFogIiBmaWxsPSIjMDAwMDAwIi8+PHRleHQgZmlsbD0iIzAwMDAwMCIgZm9udC1mYW1pbHk9InNhbnMtc2VyaWYiIGZvbnQtc2l6ZT0iMTQiIGxlbmd0aEFkanVzdD0ic3BhY2luZyIgdGV4dExlbmd0aD0iOTgiIHg9IjU5NjMuMjUiIHk9IjEzMy43NDIyIj5UYXNrSW5wdXRQYW5lbDwvdGV4dD48bGluZSBzdHlsZT0ic3Ryb2tlOiMxODE4MTg7c3Ryb2tlLXdpZHRoOjAuNTsiIHgxPSI1ODc4IiB4Mj0iNjExNCIgeTE9IjE0NCIgeTI9IjE0NCIvPjxsaW5lIHN0eWxlPSJzdHJva2U6IzE4MTgxODtzdHJva2Utd2lkdGg6MC41OyIgeDE9IjU4NzgiIHgyPSI2MTE0IiB5MT0iMTUyIiB5Mj0iMTUyIi8+PGVsbGlwc2UgY3g9IjU4ODgiIGN5PSIxNjQuOTkyMiIgZmlsbD0iIzg0QkU4NCIgcng9IjMiIHJ5PSIzIiBzdHlsZT0ic3Ryb2tlOiMwMzgwNDg7c3Ryb2tlLXdpZHRoOjEuMDsiLz48dGV4dCBmaWxsPSIjMDAwMDAwIiBmb250LWZhbWlseT0ic2Fucy1zZXJpZiIgZm9udC1zaXplPSIxNCIgbGVuZ3RoQWRqdXN0PSJzcGFjaW5nIiB0ZXh0TGVuZ3RoPSIyMTIiIHg9IjU4OTciIHk9IjE2OS4yMzQ0Ij5UYXNrSW5wdXRQYW5lbChwYXJlbnQ6IFBhcmVudCk8L3RleHQ+PC9nPjwhLS1jbGFzcyBUYXNrTGlzdFBhbmVsLS0+PGcgaWQ9ImVsZW1fVGFza0xpc3RQYW5lbCI+PHJlY3QgY29kZUxpbmU9IjEyMSIgZmlsbD0iI0YxRjFGMSIgaGVpZ2h0PSI2Mi45ODQ0IiBpZD0iVGFza0xpc3RQYW5lbCIgcng9IjIuNSIgcnk9IjIuNSIgc3R5bGU9InN0cm9rZTojMTgxODE4O3N0cm9rZS13aWR0aDowLjU7IiB3aWR0aD0iMjMxIiB4PSI2MTUwLjUiIHk9IjExMiIvPjxlbGxpcHNlIGN4PSI2MjE2LjI1IiBjeT0iMTI4IiBmaWxsPSIjQUREMUIyIiByeD0iMTEiIHJ5PSIxMSIgc3R5bGU9InN0cm9rZTojMTgxODE4O3N0cm9rZS13aWR0aDoxLjA7Ii8+PHBhdGggZD0iTTYyMTMuODc1LDEzMi4yNSBMNjIxMy44NzUsMTM0IEw2MjE4LjgxMjUsMTM0IEw2MjE4LjgxMjUsMTMyLjI1IEw2MjEzLjg3NSwxMzIuMjUgWiBNNjIxNC41NjI1LDEzMi45Mzc1IFE2MjE0LjU2MjUsMTMyLjkzNzUgNjIxNC41NjI1LDEyMy43NSBMNjIxMi44MTI1LDEyMy43NSBRNjIxMi44MTI1LDEyMy43NSA2MjEyLjgxMjUsMTMyLjkzNzUgTDYyMTQuNTYyNSwxMzIuOTM3NSBaIE02MjE4LjEyNSwxMzIuOTM3NSBMNjIxOS44NzUsMTMyLjkzNzUgUTYyMTkuODc1LDEzMi45Mzc1IDYyMTkuODc1LDEzMC4xMjUgTDYyMTguMTI1LDEzMC4xMjUgUTYyMTguMTI1LDEzMC4xMjUgNjIxOC4xMjUsMTMyLjkzNzUgWiBNNjIxOC4xMjUsMTIzLjc1IFE2MjE4LjEyNSwxMjMuNzUgNjIxOC4xMjUsMTI2LjU2MjUgTDYyMTkuODc1LDEyNi41NjI1IFE2MjE5Ljg3NSwxMjYuNTYyNSA2MjE5Ljg3NSwxMjMuNzUgTDYyMTguMTI1LDEyMy43NSBaIE02MjEzLjg3NSwxMjQuNDM3NSBMNjIxOC44MTI1LDEyNC40Mzc1IEw2MjE4LjgxMjUsMTIyLjY4NzUgTDYyMTMuODc1LDEyMi42ODc1IEw2MjEzLjg3NSwxMjQuNDM3NSBaICIgZmlsbD0iIzAwMDAwMCIvPjx0ZXh0IGZpbGw9IiMwMDAwMDAiIGZvbnQtZmFtaWx5PSJzYW5zLXNlcmlmIiBmb250LXNpemU9IjE0IiBsZW5ndGhBZGp1c3Q9InNwYWNpbmciIHRleHRMZW5ndGg9IjkxIiB4PSI2MjM2Ljc1IiB5PSIxMzMuNzQyMiI+VGFza0xpc3RQYW5lbDwvdGV4dD48bGluZSBzdHlsZT0ic3Ryb2tlOiMxODE4MTg7c3Ryb2tlLXdpZHRoOjAuNTsiIHgxPSI2MTUxLjUiIHgyPSI2MzgwLjUiIHkxPSIxNDQiIHkyPSIxNDQiLz48bGluZSBzdHlsZT0ic3Ryb2tlOiMxODE4MTg7c3Ryb2tlLXdpZHRoOjAuNTsiIHgxPSI2MTUxLjUiIHgyPSI2MzgwLjUiIHkxPSIxNTIiIHkyPSIxNTIiLz48ZWxsaXBzZSBjeD0iNjE2MS41IiBjeT0iMTY0Ljk5MjIiIGZpbGw9IiM4NEJFODQiIHJ4PSIzIiByeT0iMyIgc3R5bGU9InN0cm9rZTojMDM4MDQ4O3N0cm9rZS13aWR0aDoxLjA7Ii8+PHRleHQgZmlsbD0iIzAwMDAwMCIgZm9udC1mYW1pbHk9InNhbnMtc2VyaWYiIGZvbnQtc2l6ZT0iMTQiIGxlbmd0aEFkanVzdD0ic3BhY2luZyIgdGV4dExlbmd0aD0iMjA1IiB4PSI2MTcwLjUiIHk9IjE2OS4yMzQ0Ij5UYXNrTGlzdFBhbmVsKHBhcmVudDogUGFyZW50KTwvdGV4dD48L2c+PCEtLWNsYXNzIE9iamVjdC0tPjxnIGlkPSJlbGVtX09iamVjdCI+PHJlY3QgZmlsbD0iI0YxRjFGMSIgaGVpZ2h0PSI0OCIgaWQ9Ik9iamVjdCIgcng9IjIuNSIgcnk9IjIuNSIgc3R5bGU9InN0cm9rZTojMTgxODE4O3N0cm9rZS13aWR0aDowLjU7IiB3aWR0aD0iNzQiIHg9IjE1NDUiIHk9IjM0MCIvPjxlbGxpcHNlIGN4PSIxNTYwIiBjeT0iMzU2IiBmaWxsPSIjQUREMUIyIiByeD0iMTEiIHJ5PSIxMSIgc3R5bGU9InN0cm9rZTojMTgxODE4O3N0cm9rZS13aWR0aDoxLjA7Ii8+PHBhdGggZD0iTTE1NTcuNjI1LDM2MC4yNSBMMTU1Ny42MjUsMzYyIEwxNTYyLjU2MjUsMzYyIEwxNTYyLjU2MjUsMzYwLjI1IEwxNTU3LjYyNSwzNjAuMjUgWiBNMTU1OC4zMTI1LDM2MC45Mzc1IFExNTU4LjMxMjUsMzYwLjkzNzUgMTU1OC4zMTI1LDM1MS43NSBMMTU1Ni41NjI1LDM1MS43NSBRMTU1Ni41NjI1LDM1MS43NSAxNTU2LjU2MjUsMzYwLjkzNzUgTDE1NTguMzEyNSwzNjAuOTM3NSBaIE0xNTYxLjg3NSwzNjAuOTM3NSBMMTU2My42MjUsMzYwLjkzNzUgUTE1NjMuNjI1LDM2MC45Mzc1IDE1NjMuNjI1LDM1OC4xMjUgTDE1NjEuODc1LDM1OC4xMjUgUTE1NjEuODc1LDM1OC4xMjUgMTU2MS44NzUsMzYwLjkzNzUgWiBNMTU2MS44NzUsMzUxLjc1IFExNTYxLjg3NSwzNTEuNzUgMTU2MS44NzUsMzU0LjU2MjUgTDE1NjMuNjI1LDM1NC41NjI1IFExNTYzLjYyNSwzNTQuNTYyNSAxNTYzLjYyNSwzNTEuNzUgTDE1NjEuODc1LDM1MS43NSBaIE0xNTU3LjYyNSwzNTIuNDM3NSBMMTU2Mi41NjI1LDM1Mi40Mzc1IEwxNTYyLjU2MjUsMzUwLjY4NzUgTDE1NTcuNjI1LDM1MC42ODc1IEwxNTU3LjYyNSwzNTIuNDM3NSBaICIgZmlsbD0iIzAwMDAwMCIvPjx0ZXh0IGZpbGw9IiMwMDAwMDAiIGZvbnQtZmFtaWx5PSJzYW5zLXNlcmlmIiBmb250LXNpemU9IjE0IiBsZW5ndGhBZGp1c3Q9InNwYWNpbmciIHRleHRMZW5ndGg9IjQyIiB4PSIxNTc0IiB5PSIzNjEuNzQyMiI+T2JqZWN0PC90ZXh0PjxsaW5lIHN0eWxlPSJzdHJva2U6IzE4MTgxODtzdHJva2Utd2lkdGg6MC41OyIgeDE9IjE1NDYiIHgyPSIxNjE4IiB5MT0iMzcyIiB5Mj0iMzcyIi8+PGxpbmUgc3R5bGU9InN0cm9rZTojMTgxODE4O3N0cm9rZS13aWR0aDowLjU7IiB4MT0iMTU0NiIgeDI9IjE2MTgiIHkxPSIzODAiIHkyPSIzODAiLz48L2c+PCEtLWNsYXNzIEpGcmFtZS0tPjxnIGlkPSJlbGVtX0pGcmFtZSI+PHJlY3QgZmlsbD0iI0YxRjFGMSIgaGVpZ2h0PSI0OCIgaWQ9IkpGcmFtZSIgcng9IjIuNSIgcnk9IjIuNSIgc3R5bGU9InN0cm9rZTojMTgxODE4O3N0cm9rZS13aWR0aDowLjU7IiB3aWR0aD0iNzYiIHg9IjM1MzMiIHk9IjM0MCIvPjxlbGxpcHNlIGN4PSIzNTQ4IiBjeT0iMzU2IiBmaWxsPSIjQUREMUIyIiByeD0iMTEiIHJ5PSIxMSIgc3R5bGU9InN0cm9rZTojMTgxODE4O3N0cm9rZS13aWR0aDoxLjA7Ii8+PHBhdGggZD0iTTM1NDUuNjI1LDM2MC4yNSBMMzU0NS42MjUsMzYyIEwzNTUwLjU2MjUsMzYyIEwzNTUwLjU2MjUsMzYwLjI1IEwzNTQ1LjYyNSwzNjAuMjUgWiBNMzU0Ni4zMTI1LDM2MC45Mzc1IFEzNTQ2LjMxMjUsMzYwLjkzNzUgMzU0Ni4zMTI1LDM1MS43NSBMMzU0NC41NjI1LDM1MS43NSBRMzU0NC41NjI1LDM1MS43NSAzNTQ0LjU2MjUsMzYwLjkzNzUgTDM1NDYuMzEyNSwzNjAuOTM3NSBaIE0zNTQ5Ljg3NSwzNjAuOTM3NSBMMzU1MS42MjUsMzYwLjkzNzUgUTM1NTEuNjI1LDM2MC45Mzc1IDM1NTEuNjI1LDM1OC4xMjUgTDM1NDkuODc1LDM1OC4xMjUgUTM1NDkuODc1LDM1OC4xMjUgMzU0OS44NzUsMzYwLjkzNzUgWiBNMzU0OS44NzUsMzUxLjc1IFEzNTQ5Ljg3NSwzNTEuNzUgMzU0OS44NzUsMzU0LjU2MjUgTDM1NTEuNjI1LDM1NC41NjI1IFEzNTUxLjYyNSwzNTQuNTYyNSAzNTUxLjYyNSwzNTEuNzUgTDM1NDkuODc1LDM1MS43NSBaIE0zNTQ1LjYyNSwzNTIuNDM3NSBMMzU1MC41NjI1LDM1Mi40Mzc1IEwzNTUwLjU2MjUsMzUwLjY4NzUgTDM1NDUuNjI1LDM1MC42ODc1IEwzNTQ1LjYyNSwzNTIuNDM3NSBaICIgZmlsbD0iIzAwMDAwMCIvPjx0ZXh0IGZpbGw9IiMwMDAwMDAiIGZvbnQtZmFtaWx5PSJzYW5zLXNlcmlmIiBmb250LXNpemU9IjE0IiBsZW5ndGhBZGp1c3Q9InNwYWNpbmciIHRleHRMZW5ndGg9IjQ0IiB4PSIzNTYyIiB5PSIzNjEuNzQyMiI+SkZyYW1lPC90ZXh0PjxsaW5lIHN0eWxlPSJzdHJva2U6IzE4MTgxODtzdHJva2Utd2lkdGg6MC41OyIgeDE9IjM1MzQiIHgyPSIzNjA4IiB5MT0iMzcyIiB5Mj0iMzcyIi8+PGxpbmUgc3R5bGU9InN0cm9rZTojMTgxODE4O3N0cm9rZS13aWR0aDowLjU7IiB4MT0iMzUzNCIgeDI9IjM2MDgiIHkxPSIzODAiIHkyPSIzODAiLz48L2c+PCEtLWNsYXNzIEpQYW5lbC0tPjxnIGlkPSJlbGVtX0pQYW5lbCI+PHJlY3QgZmlsbD0iI0YxRjFGMSIgaGVpZ2h0PSI0OCIgaWQ9IkpQYW5lbCIgcng9IjIuNSIgcnk9IjIuNSIgc3R5bGU9InN0cm9rZTojMTgxODE4O3N0cm9rZS13aWR0aDowLjU7IiB3aWR0aD0iNzUiIHg9IjUzODYuNSIgeT0iMzQwIi8+PGVsbGlwc2UgY3g9IjU0MDEuNSIgY3k9IjM1NiIgZmlsbD0iI0FERDFCMiIgcng9IjExIiByeT0iMTEiIHN0eWxlPSJzdHJva2U6IzE4MTgxODtzdHJva2Utd2lkdGg6MS4wOyIvPjxwYXRoIGQ9Ik01Mzk5LjEyNSwzNjAuMjUgTDUzOTkuMTI1LDM2MiBMNTQwNC4wNjI1LDM2MiBMNTQwNC4wNjI1LDM2MC4yNSBMNTM5OS4xMjUsMzYwLjI1IFogTTUzOTkuODEyNSwzNjAuOTM3NSBRNTM5OS44MTI1LDM2MC45Mzc1IDUzOTkuODEyNSwzNTEuNzUgTDUzOTguMDYyNSwzNTEuNzUgUTUzOTguMDYyNSwzNTEuNzUgNTM5OC4wNjI1LDM2MC45Mzc1IEw1Mzk5LjgxMjUsMzYwLjkzNzUgWiBNNTQwMy4zNzUsMzYwLjkzNzUgTDU0MDUuMTI1LDM2MC45Mzc1IFE1NDA1LjEyNSwzNjAuOTM3NSA1NDA1LjEyNSwzNTguMTI1IEw1NDAzLjM3NSwzNTguMTI1IFE1NDAzLjM3NSwzNTguMTI1IDU0MDMuMzc1LDM2MC45Mzc1IFogTTU0MDMuMzc1LDM1MS43NSBRNTQwMy4zNzUsMzUxLjc1IDU0MDMuMzc1LDM1NC41NjI1IEw1NDA1LjEyNSwzNTQuNTYyNSBRNTQwNS4xMjUsMzU0LjU2MjUgNTQwNS4xMjUsMzUxLjc1IEw1NDAzLjM3NSwzNTEuNzUgWiBNNTM5OS4xMjUsMzUyLjQzNzUgTDU0MDQuMDYyNSwzNTIuNDM3NSBMNTQwNC4wNjI1LDM1MC42ODc1IEw1Mzk5LjEyNSwzNTAuNjg3NSBMNTM5OS4xMjUsMzUyLjQzNzUgWiAiIGZpbGw9IiMwMDAwMDAiLz48dGV4dCBmaWxsPSIjMDAwMDAwIiBmb250LWZhbWlseT0ic2Fucy1zZXJpZiIgZm9udC1zaXplPSIxNCIgbGVuZ3RoQWRqdXN0PSJzcGFjaW5nIiB0ZXh0TGVuZ3RoPSI0MyIgeD0iNTQxNS41IiB5PSIzNjEuNzQyMiI+SlBhbmVsPC90ZXh0PjxsaW5lIHN0eWxlPSJzdHJva2U6IzE4MTgxODtzdHJva2Utd2lkdGg6MC41OyIgeDE9IjUzODcuNSIgeDI9IjU0NjAuNSIgeTE9IjM3MiIgeTI9IjM3MiIvPjxsaW5lIHN0eWxlPSJzdHJva2U6IzE4MTgxODtzdHJva2Utd2lkdGg6MC41OyIgeDE9IjUzODcuNSIgeDI9IjU0NjAuNSIgeTE9IjM4MCIgeTI9IjM4MCIvPjwvZz48IS0tbGluayBCYWxhbmNlTG9nIHRvIE9iamVjdC0tPjxnIGlkPSJsaW5rX0JhbGFuY2VMb2dfT2JqZWN0Ij48cGF0aCBjb2RlTGluZT0iMTI1IiBkPSJNNDk3Ljg4LDI1Ny41NiBDNTIwLjQ5LDI2Ni4yNiA1NDMuNDQsMjczLjk4IDU2NiwyODAgQzc1Ni41NiwzMzAuODIgMTM2Ny40MTE0LDM1NS40MTk2IDE1MjYuOTUxNCwzNjEuMDk5NiAiIGZpbGw9Im5vbmUiIGlkPSJCYWxhbmNlTG9nLXRvLU9iamVjdCIgc3R5bGU9InN0cm9rZTojMTgxODE4O3N0cm9rZS13aWR0aDoxLjA7Ii8+PHBvbHlnb24gZmlsbD0ibm9uZSIgcG9pbnRzPSIxNTQ0Ljk0LDM2MS43NCwxNTI3LjE2NDksMzU1LjEwMzQsMTUyNi43Mzc5LDM2Ny4wOTU4LDE1NDQuOTQsMzYxLjc0IiBzdHlsZT0ic3Ryb2tlOiMxODE4MTg7c3Ryb2tlLXdpZHRoOjEuMDsiLz48L2c+PCEtLWxpbmsgQ2hpbGQgdG8gT2JqZWN0LS0+PGcgaWQ9ImxpbmtfQ2hpbGRfT2JqZWN0Ij48cGF0aCBjb2RlTGluZT0iMTI2IiBkPSJNMTM1My45MywyODAuMDggQzE0MzIuMjIsMzA4LjU1IDE0ODYuNjI0OCwzMjguMzE1NyAxNTI3LjkzNDgsMzQzLjM0NTcgIiBmaWxsPSJub25lIiBpZD0iQ2hpbGQtdG8tT2JqZWN0IiBzdHlsZT0ic3Ryb2tlOiMxODE4MTg7c3Ryb2tlLXdpZHRoOjEuMDsiLz48cG9seWdvbiBmaWxsPSJub25lIiBwb2ludHM9IjE1NDQuODUsMzQ5LjUsMTUyOS45ODYyLDMzNy43MDczLDE1MjUuODgzMywzNDguOTg0MSwxNTQ0Ljg1LDM0OS41IiBzdHlsZT0ic3Ryb2tlOiMxODE4MTg7c3Ryb2tlLXdpZHRoOjEuMDsiLz48L2c+PCEtLWxpbmsgUGFyZW50IHRvIE9iamVjdC0tPjxnIGlkPSJsaW5rX1BhcmVudF9PYmplY3QiPjxwYXRoIGNvZGVMaW5lPSIxMjciIGQ9Ik0xNTgyLDIyMCBDMTU4MiwyNjEuOTQgMTU4MiwyOTMuMjQgMTU4MiwzMjEuNjMgIiBmaWxsPSJub25lIiBpZD0iUGFyZW50LXRvLU9iamVjdCIgc3R5bGU9InN0cm9rZTojMTgxODE4O3N0cm9rZS13aWR0aDoxLjA7Ii8+PHBvbHlnb24gZmlsbD0ibm9uZSIgcG9pbnRzPSIxNTgyLDMzOS42MywxNTg4LDMyMS42MywxNTc2LDMyMS42MywxNTgyLDMzOS42MyIgc3R5bGU9InN0cm9rZTojMTgxODE4O3N0cm9rZS13aWR0aDoxLjA7Ii8+PC9nPjwhLS1saW5rIFRhc2sgdG8gT2JqZWN0LS0+PGcgaWQ9ImxpbmtfVGFza19PYmplY3QiPjxwYXRoIGNvZGVMaW5lPSIxMjgiIGQ9Ik0xODQxLjczLDI0Mi42NyBDMTgxNy4wOSwyNTUuNSAxNzkyLjAyLDI2OC4yNSAxNzY4LDI4MCBDMTcxNy4wMiwzMDQuOTQgMTY3My40MDE5LDMyNC4xNTY0IDE2MzUuNjExOSwzNDAuMzA2NCAiIGZpbGw9Im5vbmUiIGlkPSJUYXNrLXRvLU9iamVjdCIgc3R5bGU9InN0cm9rZTojMTgxODE4O3N0cm9rZS13aWR0aDoxLjA7Ii8+PHBvbHlnb24gZmlsbD0ibm9uZSIgcG9pbnRzPSIxNjE5LjA2LDM0Ny4zOCwxNjM3Ljk2OTcsMzQ1LjgyMzcsMTYzMy4yNTQsMzM0Ljc4OTEsMTYxOS4wNiwzNDcuMzgiIHN0eWxlPSJzdHJva2U6IzE4MTgxODtzdHJva2Utd2lkdGg6MS4wOyIvPjwvZz48IS0tbGluayBUYXNrV29ya0xvZyB0byBPYmplY3QtLT48ZyBpZD0ibGlua19UYXNrV29ya0xvZ19PYmplY3QiPjxwYXRoIGNvZGVMaW5lPSIxMjkiIGQ9Ik0yMzIzLjk0LDI2NS4xIEMyMzA3Ljg5LDI3MC42MiAyMjkxLjgzLDI3NS42NSAyMjc2LDI4MCBDMjAzMS43MywzNDcuMDYgMTc0Mi4zNjUsMzU5LjUxNTUgMTYzNy4yMjUsMzYxLjk5NTUgIiBmaWxsPSJub25lIiBpZD0iVGFza1dvcmtMb2ctdG8tT2JqZWN0IiBzdHlsZT0ic3Ryb2tlOiMxODE4MTg7c3Ryb2tlLXdpZHRoOjEuMDsiLz48cG9seWdvbiBmaWxsPSJub25lIiBwb2ludHM9IjE2MTkuMjMsMzYyLjQyLDE2MzcuMzY2NSwzNjcuOTkzOSwxNjM3LjA4MzUsMzU1Ljk5NzIsMTYxOS4yMywzNjIuNDIiIHN0eWxlPSJzdHJva2U6IzE4MTgxODtzdHJva2Utd2lkdGg6MS4wOyIvPjwvZz48IS0tbGluayBDaGlsZHJlbkFjY291bnRHVUkgdG8gSkZyYW1lLS0+PGcgaWQ9ImxpbmtfQ2hpbGRyZW5BY2NvdW50R1VJX0pGcmFtZSI+PHBhdGggY29kZUxpbmU9IjEzMSIgZD0iTTMwODUuMDQsMTgyLjY3IEMzMTE1LjQ0LDIxMy40OSAzMTYyLjE0LDI1NS42IDMyMTEsMjgwIEMzMzE5Ljc0LDMzNC4zIDM0NDYuODM5NCwzNTIuMDAwNyAzNTE0LjgzOTQsMzU4LjQxMDcgIiBmaWxsPSJub25lIiBpZD0iQ2hpbGRyZW5BY2NvdW50R1VJLXRvLUpGcmFtZSIgc3R5bGU9InN0cm9rZTojMTgxODE4O3N0cm9rZS13aWR0aDoxLjA7Ii8+PHBvbHlnb24gZmlsbD0ibm9uZSIgcG9pbnRzPSIzNTMyLjc2LDM2MC4xLDM1MTUuNDAyNSwzNTIuNDM3MiwzNTE0LjI3NjQsMzY0LjM4NDIsMzUzMi43NiwzNjAuMSIgc3R5bGU9InN0cm9rZTojMTgxODE4O3N0cm9rZS13aWR0aDoxLjA7Ii8+PC9nPjwhLS1saW5rIENoaWxkQmFsYW5jZUxvZ0xpc3RQYW5lbCB0byBKUGFuZWwtLT48ZyBpZD0ibGlua19DaGlsZEJhbGFuY2VMb2dMaXN0UGFuZWxfSlBhbmVsIj48cGF0aCBjb2RlTGluZT0iMTMyIiBkPSJNNDQ1Ni44MSwxODIuNjYgQzQ0OTMuNTgsMjE0LjU3IDQ1NTAuNjksMjU4LjI2IDQ2MDksMjgwIEM0NzU0LjU5LDMzNC4yNyA1MjI3LjM4MjgsMzU1LjY4MSA1MzY4LjA0MjgsMzYwLjk5MSAiIGZpbGw9Im5vbmUiIGlkPSJDaGlsZEJhbGFuY2VMb2dMaXN0UGFuZWwtdG8tSlBhbmVsIiBzdHlsZT0ic3Ryb2tlOiMxODE4MTg7c3Ryb2tlLXdpZHRoOjEuMDsiLz48cG9seWdvbiBmaWxsPSJub25lIiBwb2ludHM9IjUzODYuMDMsMzYxLjY3LDUzNjguMjY5MiwzNTQuOTk1Miw1MzY3LjgxNjUsMzY2Ljk4NjcsNTM4Ni4wMywzNjEuNjciIHN0eWxlPSJzdHJva2U6IzE4MTgxODtzdHJva2Utd2lkdGg6MS4wOyIvPjwvZz48IS0tbGluayBDaGlsZE1lbnVVSSB0byBKRnJhbWUtLT48ZyBpZD0ibGlua19DaGlsZE1lbnVVSV9KRnJhbWUiPjxwYXRoIGNvZGVMaW5lPSIxMzMiIGQ9Ik0zNDA3LjQ5LDE4Mi41NiBDMzQ0OC41OSwyMjcuOTIgMzUwMy44OTE0LDI4OC45NTM0IDM1MzcuODkxNCwzMjYuNDYzNCAiIGZpbGw9Im5vbmUiIGlkPSJDaGlsZE1lbnVVSS10by1KRnJhbWUiIHN0eWxlPSJzdHJva2U6IzE4MTgxODtzdHJva2Utd2lkdGg6MS4wOyIvPjxwb2x5Z29uIGZpbGw9Im5vbmUiIHBvaW50cz0iMzU0OS45OCwzMzkuOCwzNTQyLjMzNjksMzIyLjQzMzksMzUzMy40NDU4LDMzMC40OTI5LDM1NDkuOTgsMzM5LjgiIHN0eWxlPSJzdHJva2U6IzE4MTgxODtzdHJva2Utd2lkdGg6MS4wOyIvPjwvZz48IS0tbGluayBDaGlsZFBhbmVsIHRvIEpQYW5lbC0tPjxnIGlkPSJsaW5rX0NoaWxkUGFuZWxfSlBhbmVsIj48cGF0aCBjb2RlTGluZT0iMTM0IiBkPSJNNDgwNS4wNywxODIuODEgQzQ4MzUuMjMsMjE0LjE0IDQ4ODIuMSwyNTYuOTEgNDkzMiwyODAgQzUwODkuMjMsMzUyLjc1IDUyODMuMDgwOCwzNjIuMzI1MSA1MzY4LjI0MDgsMzYzLjEwNTEgIiBmaWxsPSJub25lIiBpZD0iQ2hpbGRQYW5lbC10by1KUGFuZWwiIHN0eWxlPSJzdHJva2U6IzE4MTgxODtzdHJva2Utd2lkdGg6MS4wOyIvPjxwb2x5Z29uIGZpbGw9Im5vbmUiIHBvaW50cz0iNTM4Ni4yNCwzNjMuMjcsNTM2OC4yOTU3LDM1Ny4xMDU0LDUzNjguMTg1OCwzNjkuMTA0OSw1Mzg2LjI0LDM2My4yNyIgc3R5bGU9InN0cm9rZTojMTgxODE4O3N0cm9rZS13aWR0aDoxLjA7Ii8+PC9nPjwhLS1saW5rIENoaWxkVGFza0xpc3RQYW5lbCB0byBKUGFuZWwtLT48ZyBpZD0ibGlua19DaGlsZFRhc2tMaXN0UGFuZWxfSlBhbmVsIj48cGF0aCBjb2RlTGluZT0iMTM1IiBkPSJNNTEzNC4xNywxODIuNzYgQzUxNjUuNzIsMjExLjYyIDUyMTEuNjIsMjUxLjA3IDUyNTYsMjgwIEM1Mjk4LjM4LDMwNy42MyA1MzM0LjczODQsMzI1LjE2NTkgNTM2OS43Mjg0LDM0MC4yOTU5ICIgZmlsbD0ibm9uZSIgaWQ9IkNoaWxkVGFza0xpc3RQYW5lbC10by1KUGFuZWwiIHN0eWxlPSJzdHJva2U6IzE4MTgxODtzdHJva2Utd2lkdGg6MS4wOyIvPjxwb2x5Z29uIGZpbGw9Im5vbmUiIHBvaW50cz0iNTM4Ni4yNSwzNDcuNDQsNTM3Mi4xMDk4LDMzNC43ODg3LDUzNjcuMzQ3MSwzNDUuODAzMSw1Mzg2LjI1LDM0Ny40NCIgc3R5bGU9InN0cm9rZTojMTgxODE4O3N0cm9rZS13aWR0aDoxLjA7Ii8+PC9nPjwhLS1saW5rIENoaWxkVGFza1dvcmtMb2dMaXN0UGFuZWwgdG8gSlBhbmVsLS0+PGcgaWQ9ImxpbmtfQ2hpbGRUYXNrV29ya0xvZ0xpc3RQYW5lbF9KUGFuZWwiPjxwYXRoIGNvZGVMaW5lPSIxMzYiIGQ9Ik01NDI0LDE4Mi41NiBDNTQyNCwyMjcuOTIgNTQyNCwyODQuMjkgNTQyNCwzMjEuOCAiIGZpbGw9Im5vbmUiIGlkPSJDaGlsZFRhc2tXb3JrTG9nTGlzdFBhbmVsLXRvLUpQYW5lbCIgc3R5bGU9InN0cm9rZTojMTgxODE4O3N0cm9rZS13aWR0aDoxLjA7Ii8+PHBvbHlnb24gZmlsbD0ibm9uZSIgcG9pbnRzPSI1NDI0LDMzOS44LDU0MzAsMzIxLjgsNTQxOCwzMjEuOCw1NDI0LDMzOS44IiBzdHlsZT0ic3Ryb2tlOiMxODE4MTg7c3Ryb2tlLXdpZHRoOjEuMDsiLz48L2c+PCEtLWxpbmsgQ2hpbGRMaXN0UGFuZWwgdG8gSlBhbmVsLS0+PGcgaWQ9ImxpbmtfQ2hpbGRMaXN0UGFuZWxfSlBhbmVsIj48cGF0aCBjb2RlTGluZT0iMTM3IiBkPSJNNTY5NC40OCwxODIuNyBDNTY2OC45OSwyMTEuOTIgNTYzMS4wNCwyNTEuODQgNTU5MiwyODAgQzU1NTAuNzEsMzA5Ljc5IDU1MTMuNzg0OCwzMjcuMzY2NyA1NDc4LjM2NDgsMzQxLjgyNjcgIiBmaWxsPSJub25lIiBpZD0iQ2hpbGRMaXN0UGFuZWwtdG8tSlBhbmVsIiBzdHlsZT0ic3Ryb2tlOiMxODE4MTg7c3Ryb2tlLXdpZHRoOjEuMDsiLz48cG9seWdvbiBmaWxsPSJub25lIiBwb2ludHM9IjU0NjEuNywzNDguNjMsNTQ4MC42MzI2LDM0Ny4zODE2LDU0NzYuMDk3LDMzNi4yNzE4LDU0NjEuNywzNDguNjMiIHN0eWxlPSJzdHJva2U6IzE4MTgxODtzdHJva2Utd2lkdGg6MS4wOyIvPjwvZz48IS0tbGluayBMb2dpbkdVSSB0byBKRnJhbWUtLT48ZyBpZD0ibGlua19Mb2dpbkdVSV9KRnJhbWUiPjxwYXRoIGNvZGVMaW5lPSIxMzgiIGQ9Ik0zNzM1LjM0LDE4Mi41NiBDMzY5NC4wMiwyMjcuOTIgMzYzOC40MjE3LDI4OC45ODM0IDM2MDQuMjUxNywzMjYuNDkzNCAiIGZpbGw9Im5vbmUiIGlkPSJMb2dpbkdVSS10by1KRnJhbWUiIHN0eWxlPSJzdHJva2U6IzE4MTgxODtzdHJva2Utd2lkdGg6MS4wOyIvPjxwb2x5Z29uIGZpbGw9Im5vbmUiIHBvaW50cz0iMzU5Mi4xMywzMzkuOCwzNjA4LjY4NzIsMzMwLjUzNCwzNTk5LjgxNjIsMzIyLjQ1MjksMzU5Mi4xMywzMzkuOCIgc3R5bGU9InN0cm9rZTojMTgxODE4O3N0cm9rZS13aWR0aDoxLjA7Ii8+PC9nPjwhLS1saW5rIE1lbnVVSSB0byBKRnJhbWUtLT48ZyBpZD0ibGlua19NZW51VUlfSkZyYW1lIj48cGF0aCBjb2RlTGluZT0iMTM5IiBkPSJNNDA5OCwxNzUuMTIgQzQwNzkuODQsMjA2LjY1IDQwNDcuMTgsMjU0LjY1IDQwMDUsMjgwIEMzOTM3LjkzLDMyMC4zMSAzNzIwLjA1NjMsMzQ3LjE1MDMgMzYyNy4wMzYzLDM1Ny4xODAzICIgZmlsbD0ibm9uZSIgaWQ9Ik1lbnVVSS10by1KRnJhbWUiIHN0eWxlPSJzdHJva2U6IzE4MTgxODtzdHJva2Utd2lkdGg6MS4wOyIvPjxwb2x5Z29uIGZpbGw9Im5vbmUiIHBvaW50cz0iMzYwOS4xNCwzNTkuMTEsMzYyNy42Nzk1LDM2My4xNDU3LDM2MjYuMzkzLDM1MS4yMTQ5LDM2MDkuMTQsMzU5LjExIiBzdHlsZT0ic3Ryb2tlOiMxODE4MTg7c3Ryb2tlLXdpZHRoOjEuMDsiLz48L2c+PCEtLWxpbmsgVGFza0lucHV0UGFuZWwgdG8gSlBhbmVsLS0+PGcgaWQ9ImxpbmtfVGFza0lucHV0UGFuZWxfSlBhbmVsIj48cGF0aCBjb2RlTGluZT0iMTQwIiBkPSJNNTk3NC4yMiwxNzUuMTEgQzU5NTAuMDQsMjA2LjY0IDU5MDguMDQsMjU0LjYzIDU4NjAsMjgwIEM1NzI1Ljk0LDM1MC43OSA1NTU4LjQwNzUsMzYxLjQ5MDQgNTQ3OS43MDc1LDM2Mi44MDA0ICIgZmlsbD0ibm9uZSIgaWQ9IlRhc2tJbnB1dFBhbmVsLXRvLUpQYW5lbCIgc3R5bGU9InN0cm9rZTojMTgxODE4O3N0cm9rZS13aWR0aDoxLjA7Ii8+PHBvbHlnb24gZmlsbD0ibm9uZSIgcG9pbnRzPSI1NDYxLjcxLDM2My4xLDU0NzkuODA3NCwzNjguNzk5Niw1NDc5LjYwNzYsMzU2LjgwMTMsNTQ2MS43MSwzNjMuMSIgc3R5bGU9InN0cm9rZTojMTgxODE4O3N0cm9rZS13aWR0aDoxLjA7Ii8+PC9nPjwhLS1saW5rIFRhc2tMaXN0UGFuZWwgdG8gSlBhbmVsLS0+PGcgaWQ9ImxpbmtfVGFza0xpc3RQYW5lbF9KUGFuZWwiPjxwYXRoIGNvZGVMaW5lPSIxNDEiIGQ9Ik02MjQ1LjYyLDE3NS4yMSBDNjIyMi40NywyMDcuMjkgNjE4MS41NCwyNTYuMjEgNjEzMywyODAgQzYwMTIuODEsMzM4Ljg5IDU2MDguNjc5NiwzNTYuODc5IDU0NzkuNzA5NiwzNjEuMjU5ICIgZmlsbD0ibm9uZSIgaWQ9IlRhc2tMaXN0UGFuZWwtdG8tSlBhbmVsIiBzdHlsZT0ic3Ryb2tlOiMxODE4MTg7c3Ryb2tlLXdpZHRoOjEuMDsiLz48cG9seWdvbiBmaWxsPSJub25lIiBwb2ludHM9IjU0NjEuNzIsMzYxLjg3LDU0NzkuOTEzMywzNjcuMjU1Niw1NDc5LjUwNiwzNTUuMjYyNSw1NDYxLjcyLDM2MS44NyIgc3R5bGU9InN0cm9rZTojMTgxODE4O3N0cm9rZS13aWR0aDoxLjA7Ii8+PC9nPjwhLS1TUkM9W2hMUkJaamVtNUR0ZEF4bXEwZHVXWXFlQ2RMT3BjY2JIWHdmaGF4WktkTTJaczA1RDdfelVudE9JRnN3MDhiWUgtcFpkRmF4aTUxTUg0anNIWWwyMkZlYWotZnFYX1BpTkZyWExWWTh4Y2dDTkxKRS1qTVJyamV5aVAyU1FoZDlLWWNQSktIVjVlaHBmRzgwSnYxZG9LTVNlSERIVTNzcll1UlBLQkppT0YwY2Y5NUxoWk9Ueksxcm80QXBpYXFyMGNoU21wM1dpOEN2ckdQRVdQU0Vnd3lIMWlKNGgyd2h6Y3NNNWNSdmZ2U3BXenBobUFFZW9qMVBETkxFa3RqRXphMm5RV1lHNzdHVXd6Z0pESWFZY2ZYMWVHSjd4M0M3Q0NtSW9qVzBudXNNUk4zYlk3NVNHcHhPRkozNk1HUWFPaFpwNll2QklSUl91Wk1BbXhIV3BKNGFYTF9zR0MzMmxmRTQtNjkyS3pOUVE2amF0QkFnZnBHTEFJN0ttRUx0RWJPc0RSbEFpNmxoLXJxSS1UanFoX0pfalZJU3VWVmoyWndINWtVSmJRMjVuWjNMMzBDdmZrUXlUMTdIa1RRd085ZnhIeXEwQXdDWnQwa0xUZkFKX01icW16Yy1ZVmxLazRkWnc4d1VTTDRHckNoZm82Qkc5bm04aTEzWS1HalluNi1LTVlwYnJiV3MtZkNKYWYzMDUwblpFNEpQcXZmdXZVcC01NXY1VXlnOGVzWmxrdXpTN2p5S2Z1cW1uS2g1VjFkWFc4dUxZV2d6ZV9MdEtFcmZZWlJxbWZsazNyV2ZDQzdtQkYzNmYxU1BmclQ2Qy1VdDRTZmpsRHBQZFNhY2h3aHZhWWNYSHVyZVNTeUl1cVc4R0xSRlp2YTROaTE2WWVlSDdESm5KdFdwVFVJUTB3UWVjcXhSNjZoYUFsWEthRkJ0MFNxaXd6eVFEaXlPMWpvQTc2R1NRMXR0TkEyTXUzNWJwejZZMjFhWFQ4VUVVaWhqZDFwQ19ROU1OSDU1Wm51c2FESnp6MUc4STJ6TmJYNk1GcHpuVHBQRm1xN3BXLW9QaUNoSVVwYXVjNThlMG9GSy0gLUVWcEYtX0d2eXJGTWdaQ1ZlZHc1bFNYdVBsQ3RIZVJrYkZWanNWMFVNQnlabnpnRlREaXozSW1HTlBuX2trUTk4LTRYcEMxdE9jUWFvWk9yU2w3aG1LZUJyZ2czcDVRdEp5MF0tLT48L2c+PC9zdmc+;" vertex="1" parent="1">
            <mxGeometry x="-4060" y="-540" width="6388" height="395" as="geometry" />
          </mxCell>
        </UserObject>
      </root>
    </mxGraphModel>
  </diagram>
</mxfile>
